<svg width="517" height="496" viewBox="0 0 517 496" fill="none" xmlns="http://www.w3.org/2000/svg">
<path d="M495.752 254.645H314.6V33.4172H476.887L495.752 51.6977V254.645Z" fill="#EBEBEB"/>
<path d="M486.545 42.5636H323.82V245.377H486.545V42.5636Z" fill="white"/>
<g opacity="0.2">
<path opacity="0.2" d="M410.552 42.5635L405.176 143.964L399.825 42.5635H410.552Z" fill="#EBEBEB"/>
<path opacity="0.2" d="M405.176 143.964L372.179 42.5635H383.697L405.176 143.964Z" fill="#EBEBEB"/>
<path opacity="0.2" d="M405.176 143.964L339.266 42.5635H353.594L405.176 143.964Z" fill="#EBEBEB"/>
<path opacity="0.2" d="M405.176 143.964L323.82 70.7932V53.4978L405.176 143.964Z" fill="#EBEBEB"/>
<path opacity="0.2" d="M405.176 143.964L323.82 102.562V91.0684L405.176 143.964Z" fill="#EBEBEB"/>
<path opacity="0.2" d="M405.176 143.964L323.82 126.717V117.474L405.176 143.964Z" fill="#EBEBEB"/>
<path opacity="0.2" d="M405.176 143.964L323.82 148.282V139.658L405.176 143.964Z" fill="#EBEBEB"/>
<path opacity="0.2" d="M405.176 143.964L323.82 170.442V161.211L405.176 143.964Z" fill="#EBEBEB"/>
<path opacity="0.2" d="M405.176 143.964L323.82 196.847V185.366L405.176 143.964Z" fill="#EBEBEB"/>
<path opacity="0.2" d="M405.176 143.964L323.82 234.406V217.147L405.176 143.964Z" fill="#EBEBEB"/>
<path opacity="0.2" d="M405.176 143.964L353.57 245.377H339.23L405.176 143.964Z" fill="#EBEBEB"/>
<path opacity="0.2" d="M405.176 143.964L383.685 245.377H372.154L405.176 143.964Z" fill="#EBEBEB"/>
<path opacity="0.2" d="M410.552 245.377H399.8L405.176 143.964L410.552 245.377Z" fill="#EBEBEB"/>
<path opacity="0.2" d="M438.186 245.377H426.68L405.176 143.964L438.186 245.377Z" fill="#EBEBEB"/>
<path opacity="0.2" d="M471.11 245.377H456.782L405.176 143.964L471.11 245.377Z" fill="#EBEBEB"/>
<path opacity="0.2" d="M486.545 217.159V234.442L405.176 143.964L486.545 217.159Z" fill="#EBEBEB"/>
<path opacity="0.2" d="M486.545 185.378V196.872L405.176 143.964L486.545 185.378Z" fill="#EBEBEB"/>
<path opacity="0.2" d="M486.545 161.223V170.454L405.176 143.964L486.545 161.223Z" fill="#EBEBEB"/>
<path opacity="0.2" d="M486.545 139.658V148.282L405.176 143.964L486.545 139.658Z" fill="#EBEBEB"/>
<path opacity="0.2" d="M486.545 117.486V126.729L405.176 143.964L486.545 117.486Z" fill="#EBEBEB"/>
<path opacity="0.2" d="M486.545 91.0684V102.562L405.176 143.964L486.545 91.0684Z" fill="#EBEBEB"/>
<path opacity="0.2" d="M486.545 53.51V70.781L405.176 143.964L486.545 53.51Z" fill="#EBEBEB"/>
<path opacity="0.2" d="M471.122 42.5635L405.176 143.964L456.782 42.5635H471.122Z" fill="#EBEBEB"/>
<path opacity="0.2" d="M438.186 42.5635L405.176 143.964L426.68 42.5635H438.186Z" fill="#EBEBEB"/>
</g>
<path d="M380.401 194.111V190.997H360.186V194.111H380.401Z" fill="white"/>
<path d="M459.385 111.842V108.729H439.171V111.842H459.385Z" fill="white"/>
<path d="M457.184 167.183V164.069H436.969V167.183H457.184Z" fill="white"/>
<path d="M464.761 156.358V153.244H444.547V156.358H464.761Z" fill="#DBDBDB"/>
<path d="M464.773 202.138V199.025H444.559V202.138H464.773Z" fill="#DBDBDB"/>
<path d="M371.51 186.096V182.982H351.295V186.096H371.51Z" fill="#DBDBDB"/>
<path d="M365.805 93.3672V90.2535H345.591V93.3672H365.805Z" fill="#DBDBDB"/>
<path d="M476.887 33.4172V51.6977H495.752L476.887 33.4172Z" fill="#EBEBEB"/>
<path d="M244.093 84.5735H10.6789V94.5956H244.093V84.5735Z" fill="#EBEBEB"/>
<path d="M44.6128 134.051H35.5273L31.8785 94.5956H44.6128V134.051Z" fill="#EBEBEB"/>
<path d="M210.159 134.051H219.245L222.894 94.5956H210.159V134.051Z" fill="#EBEBEB"/>
<path d="M31.8785 94.5956H44.6128V108.181H33.1312L31.8785 94.5956Z" fill="#DBDBDB"/>
<path d="M222.894 94.5956L221.641 108.181H210.159V94.5956H222.894Z" fill="#DBDBDB"/>
<path d="M95.1975 24.4533C84.8471 38.4769 74.0466 54.7506 71.4194 72.35C71.4165 72.4059 71.4339 72.4609 71.4685 72.5048C71.503 72.5488 71.5523 72.5788 71.6072 72.5892C71.6622 72.5996 71.719 72.5897 71.7673 72.5614C71.8155 72.5331 71.8518 72.4882 71.8695 72.4352C73.0615 67.6374 74.5938 62.9307 76.4548 58.3507C83.2659 56.4777 89.9432 54.933 93.4826 48.1827C97.1314 41.2257 96.6692 32.1766 95.9151 24.5992C95.9638 24.1979 95.4164 24.1736 95.1975 24.4533Z" fill="#EBEBEB"/>
<path d="M76.5521 58.2169C81.2104 47.7813 87.1823 37.2971 94.7961 28.7102C94.7961 28.6494 94.9299 28.7102 94.8813 28.7954C90.1274 34.9108 85.9576 41.4587 82.4267 48.353C85.8565 44.8745 89.6027 41.7486 92.8623 38.0633C92.8623 37.9904 93.0204 38.0633 92.9596 38.1606C89.7364 42.0405 86.2093 46.2488 82.0131 49.1071C80.882 51.1869 79.7509 53.2667 78.5954 55.3587C78.8751 55.2006 79.1671 55.0546 79.459 54.9208C79.459 54.9208 79.5563 54.9208 79.459 54.9938C79.1306 55.1519 78.8143 55.3222 78.4859 55.4682C77.9386 56.4533 77.4035 57.4385 76.844 58.4237C76.7588 58.6305 76.4548 58.4359 76.5521 58.2169Z" fill="#A6A6A6"/>
<path d="M80.0184 54.5803C82.8028 53.016 85.4622 51.239 87.9729 49.2652C87.9729 49.2652 88.131 49.2652 88.0702 49.3625C85.6385 51.4645 82.9737 53.2806 80.1279 54.7749C80.0063 54.8357 79.8847 54.6533 80.0184 54.5803Z" fill="#A6A6A6"/>
<path d="M70.2883 72.1797C70.299 72.2216 70.3234 72.2587 70.3575 72.2852C70.3917 72.3117 70.4336 72.3261 70.4768 72.3261C70.5201 72.3261 70.562 72.3117 70.5962 72.2852C70.6303 72.2587 70.6547 72.2216 70.6654 72.1797C70.6654 66.3903 70.6654 60.5644 70.7505 54.7506C72.2344 51.7586 75.421 50.0923 77.6346 47.6962C79.2334 45.947 80.6213 44.0161 81.7699 41.9433C84.4466 36.9951 86.0855 31.5527 86.5863 25.9493C87.1945 19.7585 84.8471 -0.699184 82.2321 0.018415C80.882 0.383296 76.4913 10.5148 75.3358 13.8596C73.444 19.3976 72.0639 25.0974 71.2127 30.8874C69.0721 44.4731 69.2423 58.4602 70.2883 72.1797Z" fill="#EBEBEB"/>
<path d="M70.2396 47.1975C70.5559 39.8999 72.21 32.4685 73.7547 25.3047C75.421 17.6422 77.4035 10.4419 81.3077 3.60642C81.3222 3.58062 81.3464 3.56163 81.3749 3.55365C81.4034 3.54567 81.4339 3.54934 81.4597 3.56385C81.4855 3.57837 81.5045 3.60254 81.5125 3.63105C81.5205 3.65957 81.5168 3.69008 81.5023 3.71589C78.8733 9.03167 76.8341 14.6192 75.421 20.3788C75.6885 19.9653 76.0169 19.5761 76.2845 19.1625C76.394 19.0044 76.6494 19.1625 76.5399 19.3085C76.1918 19.9263 75.7845 20.5087 75.3237 21.0477C73.9614 26.521 72.9884 32.1158 72.1492 37.6985C72.2222 37.6985 72.283 37.5525 72.3438 37.4917C72.4046 37.4309 72.4533 37.4917 72.4289 37.5525L72.0884 38.112C71.6748 40.9459 71.2856 43.7677 70.8721 46.6259C76.0421 42.4652 80.0929 37.0809 82.6578 30.9603C80.2252 37.4552 76.5764 43.2325 70.7383 47.1854C70.6289 47.9395 70.5315 48.6936 70.4221 49.4476C70.4221 49.6058 70.1545 49.5571 70.1545 49.4476C70.1545 48.7787 70.1545 48.1097 70.1545 47.4408C70.1399 47.4202 70.1305 47.3964 70.127 47.3715C70.1235 47.3465 70.126 47.321 70.1343 47.2972C70.1427 47.2734 70.1566 47.2519 70.1749 47.2346C70.1932 47.2173 70.2154 47.2046 70.2396 47.1975Z" fill="#A6A6A6"/>
<path d="M72.6235 36.5795C76.5715 30.9844 80.0227 25.0548 82.9375 18.8585C82.9375 18.7855 83.0956 18.8585 83.0591 18.8585C80.7512 25.3569 77.2948 31.3881 72.8546 36.6646C72.7208 36.8228 72.5384 36.689 72.6235 36.5795Z" fill="#A6A6A6"/>
<path d="M77.744 17.4354C79.3495 14.6137 81.028 11.8649 82.5361 8.98233C82.5361 8.89719 82.6821 8.98233 82.6578 8.98233C81.4245 11.9861 79.8578 14.842 77.9873 17.4962C77.9695 17.5141 77.9473 17.5271 77.923 17.5339C77.8986 17.5407 77.8729 17.541 77.8484 17.5349C77.8239 17.5288 77.8014 17.5164 77.7831 17.4989C77.7648 17.4815 77.7513 17.4596 77.744 17.4354Z" fill="#A6A6A6"/>
<path d="M67.4423 57.3412C67.3655 61.179 66.9133 65.0001 66.0922 68.7498L66.2746 69.9661C67.4564 65.8327 68.1503 61.5752 68.3423 57.2804C68.3798 57.218 68.3996 57.1465 68.3996 57.0736C68.3996 57.0008 68.3798 56.9293 68.3423 56.8669C68.5272 51.0956 68.1196 45.3205 67.126 39.6323C65.3381 28.9778 61.4095 18.7611 53.9903 10.7824C53.9283 10.7296 53.8551 10.6916 53.7763 10.6713C53.6974 10.6511 53.6149 10.6491 53.5352 10.6655C53.4554 10.6819 53.3804 10.7163 53.316 10.7661C53.2515 10.8158 53.1993 10.8797 53.1632 10.9527C50.1712 18.5665 51.2172 27.6642 53.7714 35.2781C55.1612 39.3917 57.1443 43.2802 59.6581 46.8205C62.1271 50.3963 65.3746 53.4248 67.4423 57.3412Z" fill="#EBEBEB"/>
<path d="M54.793 14.3582C61.8352 25.779 66.7246 39.3161 67.3206 52.8167C67.3206 53.0478 66.9314 53.1086 66.8949 52.8167C66.7368 51.6004 66.5422 50.3842 66.3597 49.1679C63.2971 46.4692 60.6096 43.3727 58.3688 39.9607C58.3688 39.9607 58.3688 39.8269 58.4661 39.8756C60.881 42.8502 63.468 45.6808 66.2138 48.353C65.7192 45.3772 65.1151 42.4419 64.4015 39.5472L63.8542 38.8904C63.7326 38.7445 63.9272 38.5377 64.061 38.6836L64.2313 38.8661C63.2526 34.9037 62.034 31.0045 60.5825 27.1899C58.7945 25.0493 56.7877 23.2005 55.4863 20.6342C55.4863 20.6342 55.4863 20.5247 55.5836 20.6342C56.5925 22.1273 57.6763 23.5684 58.831 24.952C59.3054 25.4993 59.8284 26.0101 60.3149 26.5453C58.6978 22.4026 56.7749 18.3859 54.5619 14.5285C54.416 14.2974 54.6835 14.188 54.793 14.3582Z" fill="#A6A6A6"/>
<path d="M56.1796 28.4427C58.454 31.5077 61.0447 34.4267 63.161 37.589C63.161 37.6863 63.088 37.7715 63.015 37.7106C60.3136 34.9547 57.9645 31.8743 56.0215 28.54C55.9971 28.4427 56.1796 28.3575 56.1796 28.4427Z" fill="#A6A6A6"/>
<path d="M63.4769 38.3065L63.5737 38.4033C63.6463 38.4638 63.5737 38.5727 63.4769 38.5001V38.4033C63.3438 38.3428 63.4769 38.2339 63.4769 38.3065Z" fill="#A6A6A6"/>
<path d="M42.679 33.4293C43.509 39.8053 46.0756 45.8304 50.0982 50.8463C51.7725 52.8248 53.8446 54.4285 56.1796 55.5533C58.7824 56.8425 61.519 58.3264 64.2191 59.3845C65.4968 62.6522 66.4501 66.0375 67.0652 69.4917L67.3206 68.5917C65.5449 53.7167 55.912 41.0554 43.6034 32.8455C43.5073 32.7802 43.3943 32.7443 43.2782 32.7423C43.1621 32.7403 43.0479 32.7723 42.9497 32.8343C42.8515 32.8963 42.7736 32.9857 42.7255 33.0914C42.6774 33.1971 42.6612 33.3146 42.679 33.4293Z" fill="#EBEBEB"/>
<path d="M47.2035 42.9649C47.3691 43.0632 47.5276 43.1729 47.6778 43.2933L47.617 43.3785C47.4346 43.2933 47.2886 43.196 47.1184 43.0987C46.9481 43.0014 47.1184 42.9041 47.2035 42.9649Z" fill="#A6A6A6"/>
<path d="M82.4023 84.5735H57.0553L58.2959 67.9593L58.7824 62.5347H80.4563L80.9306 67.9593L82.4023 84.5735Z" fill="#DBDBDB"/>
<path d="M80.9307 67.9593H58.2959L58.7824 62.5347H80.4563L80.9307 67.9593Z" fill="#C7C7C7"/>
<path d="M82.1834 58.0832H57.0553V63.6415H82.1834V58.0832Z" fill="#DBDBDB"/>
<path d="M144.031 84.537V24.1979H128.84V84.537H144.031Z" fill="#C7C7C7"/>
<path d="M144.019 27.5912V20.9626H128.827V27.5912H144.019Z" fill="#DBDBDB"/>
<path d="M144.031 38.5499V36.093H128.84V38.5499H144.031Z" fill="#DBDBDB"/>
<path d="M144.019 76.6191V69.9904H128.827V76.6191H144.019Z" fill="#DBDBDB"/>
<path d="M154.649 84.537V14.1393H144.031V84.537H154.649Z" fill="#DBDBDB"/>
<path d="M152.472 47.83V20.7558H146.098V47.83H152.472Z" fill="#EBEBEB"/>
<path d="M230.277 76.9168L180.212 27.4257L172.748 34.9769L222.812 84.468L230.277 76.9168Z" fill="#C7C7C7"/>
<path d="M217.053 66.7911L197.799 47.7574L193.318 52.2898L212.573 71.3236L217.053 66.7911Z" fill="#DBDBDB"/>
<path d="M172.674 84.5492V31.082H154.637V84.5492H172.674Z" fill="#A6A6A6"/>
<path d="M172.662 78.8814V73.8947H154.624V78.8814H172.662Z" fill="#C7C7C7"/>
<path d="M172.674 70.6351V68.7012H154.637V70.6351H172.674Z" fill="#C7C7C7"/>
<path d="M109.103 84.5721L128.92 38.4014L117.475 33.489L97.6578 79.6598L109.103 84.5721Z" fill="#A6A6A6"/>
<path d="M111.205 79.6935L113.052 75.3904L101.607 70.4781L99.7602 74.7811L111.205 79.6935Z" fill="#C7C7C7"/>
<path d="M122.989 52.2259L124.836 47.9229L113.391 43.0105L111.544 47.3135L122.989 52.2259Z" fill="#C7C7C7"/>
<path d="M121 56.836L121.715 55.1706L110.27 50.2582L109.556 51.9236L121 56.836Z" fill="#C7C7C7"/>
<path d="M253.215 495.539C393.062 495.539 506.431 481.544 506.431 464.281C506.431 447.018 393.062 433.023 253.215 433.023C113.368 433.023 0 447.018 0 464.281C0 481.544 113.368 495.539 253.215 495.539Z" fill="#EBEBEB"/>
<path d="M6.84756 412.942L68.4395 412.638L130.031 412.541L253.215 412.334L376.399 412.529L437.991 412.638L499.583 412.942L437.991 413.234L376.399 413.344L253.215 413.55L130.031 413.344L68.4395 413.234L6.84756 412.942Z" fill="#263238"/>
<path d="M7.20033 412.918C8.08063 392.369 7.8492 371.788 6.50705 351.265C3.50287 302.213 -2.89471 237.422 3.04068 223.812C7.15168 214.35 23.097 201.396 24.4714 198.976C27.1836 194.232 36.3665 166.903 40.8059 161.272C48.2981 151.797 82.1591 152.004 87.5958 158.839C97.63 171.719 99.6612 194.281 103.687 198.648C107.713 203.014 137.876 214.812 141.951 225.977C146.025 237.142 128.985 262.417 128.767 269.301C128.548 276.185 161.095 353.491 162.202 370.64C163.309 387.79 146.244 412.48 146.244 412.48L7.20033 412.918Z" fill="#A6A6A6"/>
<path d="M146.244 412.492H138.205H138.119C138.119 412.492 148.616 386.865 148.616 374.313C148.616 361.761 118.489 282.521 118.647 269.483C118.805 256.445 137.669 239.636 136.21 228.641C134.75 217.646 106.241 207.563 100.5 201.883C94.7594 196.203 90.6241 163.436 85.5158 159.435C80.4074 155.433 51.6183 155.64 46.5951 164.3C41.5719 172.96 37.3515 196.178 33.2161 205.069C29.0808 213.96 10.6057 219.847 9.96104 234.527C9.31642 249.208 44.0166 344.575 39.2732 368.171C34.5297 391.767 25.3712 406.18 20.5791 412.881H17.66C17.66 412.881 31.3187 379.519 31.635 365.203C31.9026 353.783 10.0462 293.443 1.22822 269.483C0.230878 247.59 0.316016 230.161 3.08911 223.812C7.20011 214.362 23.1332 201.421 24.532 199C27.2321 194.245 36.4149 166.903 40.8665 161.296C48.3587 151.809 82.2197 152.016 87.6442 158.863C97.6785 171.744 99.7096 194.305 103.748 198.672C107.786 203.038 137.925 214.836 141.999 226.001C146.074 237.167 128.973 262.416 128.778 269.301C128.584 276.185 161.095 353.491 162.202 370.64C163.308 387.79 146.244 412.492 146.244 412.492Z" fill="#EBEBEB"/>
<path d="M57.4688 169.749C52.7375 172.291 46.8264 197.103 50.1712 198.477C53.5159 199.852 61.1176 198.83 62.8447 195.716C64.5718 192.603 62.3703 167.097 57.4688 169.749Z" fill="#EBEBEB"/>
<path d="M78.8873 167.547C83.6186 170.102 89.5297 194.901 86.1849 196.288C82.8402 197.674 75.2385 196.628 73.5114 193.527C71.7843 190.426 73.9857 164.92 78.8873 167.547Z" fill="#EBEBEB"/>
<path d="M226.749 438.034H129.156C120.824 438.034 132.878 414.329 163.211 405.195C193.545 396.06 236.333 429.143 226.749 438.034Z" fill="#37474F"/>
<path d="M188.473 438.034C188.591 435.34 189.066 432.673 189.884 430.104C190.68 427.515 191.787 425.031 193.18 422.709C194.564 420.362 196.299 418.242 198.325 416.421C200.327 414.599 202.627 413.135 205.124 412.091C204.577 412.492 204.029 412.869 203.47 413.246L202.655 413.806L201.889 414.45L200.368 415.667L198.97 417.065C197.152 418.953 195.556 421.042 194.214 423.293C192.867 425.551 191.711 427.919 190.76 430.371C190.281 431.612 189.856 432.865 189.483 434.13C189.069 435.431 188.753 436.732 188.473 438.034Z" fill="#263238"/>
<path d="M200.028 415.484C205.789 417.424 211.244 420.176 216.229 423.658C218.745 425.386 221.03 427.43 223.027 429.739C224.008 430.924 224.856 432.213 225.557 433.582C226.248 434.956 226.661 436.452 226.774 437.985C226.452 436.523 225.871 435.131 225.059 433.874C224.284 432.608 223.375 431.429 222.346 430.359C220.274 428.223 217.997 426.296 215.547 424.606C213.115 422.855 210.561 421.298 207.982 419.741C206.693 418.975 205.379 418.245 204.054 417.528C202.728 416.81 201.366 416.177 200.028 415.484Z" fill="#263238"/>
<path d="M131.771 154.169C112.797 165.687 102.361 189.647 102.361 189.647C102.361 189.647 81.5874 211.333 82.3902 226.001C82.539 230.143 83.6888 234.188 85.7412 237.789C87.7937 241.389 90.6877 244.439 94.1758 246.678L94.5529 238.748C94.5529 238.748 97.1192 249.694 112.59 257.576C128.061 265.457 151 265.652 163.674 262.672C171.187 260.941 178.122 257.291 183.803 252.078L176.907 262.064C176.907 262.064 192.986 265.36 206.547 250.692C220.108 236.024 198.824 205.082 197.778 199.28C196.732 193.478 203.069 154.509 161.229 151.371C161.241 151.408 144.821 146.263 131.771 154.169Z" fill="#263238"/>
<path d="M88.5931 244.318C84.5673 241.071 81.9158 235.537 80.663 230.599C79.2556 225.422 79.6283 219.922 81.7212 214.982C84.3362 209.047 88.9215 204.388 93.3852 199.827C97.8489 195.266 102.957 190.73 107.482 185.937C107.737 185.67 107.336 185.305 107.056 185.5C102.463 188.806 98.0648 192.376 93.8839 196.191C89.7193 199.606 85.9717 203.501 82.7185 207.794C79.698 211.743 77.8706 216.474 77.4521 221.428C77.3026 225.499 78.1371 229.546 79.8846 233.226C81.9523 237.629 85.1511 240.913 88.2161 244.598C88.4958 244.829 88.8242 244.501 88.5931 244.318Z" fill="#263238"/>
<path d="M214.173 234.102C212.762 218.85 202.254 206.857 197.522 192.749C194.956 185.086 193.509 176.937 189.471 169.858C189.361 169.676 189.033 169.858 189.142 170.053C192.341 176.329 193.399 183.201 195.224 189.939C197.221 196.674 199.885 203.193 203.178 209.399C208.834 220.905 215.657 234.515 210.585 247.469C208.25 253.44 202.947 259.4 196.136 259.802C195.88 259.802 195.929 260.252 196.197 260.203C198.938 259.805 201.57 258.852 203.931 257.403C206.291 255.954 208.332 254.038 209.928 251.774C213.433 246.59 214.941 240.312 214.173 234.102Z" fill="#263238"/>
<path d="M213.845 238.091C215.566 232.858 215.626 227.22 214.015 221.951C212.336 216.746 208.761 212.416 205.1 208.451C200.879 203.877 196.343 199.414 194.433 193.345C194.348 193.089 193.971 193.247 194.044 193.491C196.999 203.476 205.659 209.886 210.403 218.825C215.827 229.054 212.835 241.326 205.416 249.707C200.713 254.784 194.879 258.68 188.388 261.079C188.366 261.079 188.344 261.088 188.328 261.104C188.312 261.12 188.303 261.141 188.303 261.164C188.303 261.186 188.312 261.208 188.328 261.224C188.344 261.24 188.366 261.249 188.388 261.249C199.517 257.247 210.22 249.694 213.845 238.091Z" fill="#263238"/>
<path d="M130.445 270.93C139.822 311.773 158.808 363.476 173.477 373.9C185.299 382.316 260.209 405.827 263.663 406.204C272.238 407.068 291.09 340.039 282.211 337.582C271.021 334.481 203.056 330.649 200.028 327.536C196.999 324.422 177.539 298.078 155.622 267.719C140.504 246.678 124.631 245.535 130.445 270.93Z" fill="#F7A9A0"/>
<path d="M244.458 400.451C245.589 401.035 261.705 409.135 271.666 412.018C279.098 414.171 300.65 419.802 303.836 411.86C306.014 406.435 293.729 401.631 285.118 398.043C280.581 396.158 274.987 391.402 276.324 388.483C278.66 383.387 290.348 388.483 298.023 392.971C312.886 401.606 332.674 417.138 341.808 409.61C345.226 406.751 341.249 401.57 335.423 396.486C344.873 402.409 354.968 407.274 358.897 404.258C361.147 402.543 361.257 400.183 360.004 397.495C362.923 398.444 365.501 398.262 367.301 396.364C370.366 393.141 368.87 388.398 365.514 383.533C366.09 383.47 366.644 383.271 367.128 382.951C367.613 382.632 368.014 382.202 368.299 381.696C374.806 371.771 342.234 343.286 330.971 340.611C297.828 332.741 262.568 335.612 262.568 335.612C249.494 346.011 244.434 400.427 244.458 400.451Z" fill="#F7A9A0"/>
<path d="M293.194 369.947C301.086 371.181 308.624 374.083 315.306 378.461C323.71 384.007 329.281 390.502 336.335 397.033C336.518 397.216 336.25 397.508 336.068 397.337C332.711 394.224 318.797 382.548 315.196 379.884C308.694 374.988 301.161 371.639 293.17 370.093C293.15 370.09 293.133 370.079 293.122 370.063C293.11 370.047 293.106 370.027 293.109 370.008C293.112 369.988 293.123 369.971 293.139 369.96C293.155 369.948 293.175 369.944 293.194 369.947Z" fill="#263238"/>
<path d="M299.434 355.875C308.142 358.307 317.069 360.667 325.158 364.79C334 369.302 340.969 376.649 347.732 383.727C351.826 387.976 355.82 392.314 359.712 396.741C359.882 396.924 359.627 397.216 359.457 397.033C352.548 389.736 345.421 382.637 338.074 375.736C331.29 369.301 323.3 364.271 314.564 360.934C309.577 359.037 304.457 357.517 299.336 356.069C299.239 356.069 299.275 355.85 299.434 355.875Z" fill="#263238"/>
<path d="M308.677 343.578C317.191 345.318 324.489 346.801 332.017 351.338C341.942 357.346 351.478 367.466 354.883 371.042C358.593 375.007 362.181 379.093 365.684 383.204C365.83 383.375 365.538 383.63 365.392 383.46C357.344 374.399 348.719 365.867 339.57 357.918C335.275 354.058 330.404 350.89 325.133 348.528C319.793 346.44 314.283 344.812 308.665 343.663L308.677 343.578Z" fill="#263238"/>
<path d="M199.566 321.527L142.401 319.095C142.401 319.095 132.014 290.756 128.195 265.579C124.376 240.402 145.819 249.451 167.043 276.525C188.266 303.599 199.566 321.527 199.566 321.527Z" fill="#37474F"/>
<path d="M163.734 413.356L160.268 355.315C160.268 355.315 175.885 338.044 172.431 322.476C170.679 314.57 143.739 254.523 141.1 252.054C130.482 242.166 112.578 246.106 105.22 251.665C64.511 282.436 35.8192 348.468 22.0389 413.429L163.734 413.356Z" fill="#A4D985"/>
<path d="M163.734 413.356L160.268 355.315C160.268 355.315 175.885 338.044 172.431 322.476C170.679 314.57 143.739 254.523 141.1 252.054C130.482 242.166 112.578 246.106 105.22 251.665C64.511 282.436 35.8192 348.468 22.0389 413.429L163.734 413.356Z" fill="#A4D985"/>
<path d="M160.268 355.315L163.734 413.356H22.0389C35.807 348.443 64.4989 282.412 105.22 251.592C106.812 250.42 108.545 249.452 110.377 248.709C119.061 245.06 132.488 243.954 141.1 251.981C143.739 254.413 170.679 314.497 172.419 322.403C175.885 338.044 160.268 355.315 160.268 355.315Z" fill="#A4D985"/>
<g opacity="0.1">
<path opacity="0.1" d="M138.314 249.852H108.066C108.817 249.449 109.588 249.084 110.377 248.758C111.871 248.132 113.407 247.611 114.974 247.201H132.646C134.652 247.811 136.561 248.704 138.314 249.852Z" fill="black"/>
<path opacity="0.1" d="M143.398 255.982H99.8315C100.902 255.07 101.972 254.17 103.067 253.319H141.987C142.352 253.988 142.839 254.888 143.398 255.982Z" fill="black"/>
<path opacity="0.1" d="M146.439 262.1H93.1664C94.0786 261.188 95.0151 260.3 95.9516 259.437H145.15L146.439 262.1Z" fill="black"/>
<path opacity="0.1" d="M149.346 268.218H87.3161C88.131 267.318 88.9459 266.43 89.7486 265.567H148.13L149.346 268.218Z" fill="black"/>
<path opacity="0.1" d="M152.18 274.336H82.0131C82.7429 273.436 83.4848 272.56 84.2389 271.685H150.963C151.353 272.548 151.766 273.436 152.18 274.336Z" fill="black"/>
<path opacity="0.1" d="M154.977 280.466H77.1967L79.2401 277.802H153.761L154.977 280.466Z" fill="black"/>
<path opacity="0.1" d="M157.714 286.584H72.7938C73.4141 285.684 74.0101 284.796 74.6669 283.92H156.522C156.923 284.808 157.325 285.696 157.714 286.584Z" fill="black"/>
<path opacity="0.1" d="M160.414 292.702H68.695C69.2667 291.814 69.8505 290.926 70.4343 290.05H159.222C159.636 290.938 160.037 291.826 160.414 292.702Z" fill="black"/>
<path opacity="0.1" d="M163.078 298.82H64.8759C65.4111 297.932 65.9584 297.044 66.5057 296.168H161.922C162.324 297.056 162.701 297.944 163.078 298.82Z" fill="black"/>
<path opacity="0.1" d="M165.644 304.986H61.3001C61.8109 304.098 62.3096 303.21 62.8326 302.335H164.561C164.951 303.186 165.328 304.074 165.644 304.986Z" fill="black"/>
<path opacity="0.1" d="M168.247 311.067H57.931C58.4175 310.167 58.8918 309.279 59.3784 308.404H167.14L168.247 311.067Z" fill="black"/>
<path opacity="0.1" d="M170.655 317.149H54.7809C55.2187 316.261 55.6687 315.373 56.1187 314.497H169.633C170.01 315.482 170.351 316.37 170.655 317.149Z" fill="black"/>
<path opacity="0.1" d="M172.577 323.303H51.7888C52.2024 322.415 52.628 321.527 53.0051 320.652H171.835C172.04 321.242 172.215 321.843 172.358 322.452C172.479 322.731 172.54 323.023 172.577 323.303Z" fill="black"/>
<path opacity="0.1" d="M172.942 326.769C172.964 327.654 172.931 328.54 172.844 329.421H48.9549L50.1712 326.769H172.942Z" fill="black"/>
<path opacity="0.1" d="M172.273 332.887C172.09 333.787 171.859 334.676 171.579 335.551H46.3035L47.4468 332.887H172.273Z" fill="black"/>
<path opacity="0.1" d="M170.375 339.042C170.01 339.954 169.621 340.829 169.159 341.693H43.725C44.0777 340.805 44.4426 339.917 44.8074 339.042H170.375Z" fill="black"/>
<path opacity="0.1" d="M167.407 345.123C166.884 346.059 166.361 346.947 165.826 347.774H41.3046C41.6451 346.887 41.9857 346.011 42.3384 345.123H167.407Z" fill="black"/>
<path opacity="0.1" d="M163.479 351.204C162.701 352.287 161.995 353.187 161.46 353.856H39.018C39.3342 352.968 39.6505 352.08 39.9789 351.204H163.479Z" fill="black"/>
<path opacity="0.1" d="M160.548 360.034H36.8166C37.1328 359.134 37.4369 358.246 37.7653 357.371H160.39L160.548 360.034Z" fill="black"/>
<path opacity="0.1" d="M160.913 366.152H34.7489C35.0408 365.264 35.3327 364.376 35.6368 363.501H160.779L160.913 366.152Z" fill="black"/>
<path opacity="0.1" d="M161.277 372.27H32.7907C33.0583 371.382 33.338 370.494 33.6299 369.619H161.119L161.277 372.27Z" fill="black"/>
<path opacity="0.1" d="M161.642 378.388H30.9177C31.1731 377.5 31.4407 376.624 31.7204 375.736H161.484L161.642 378.388Z" fill="black"/>
<path opacity="0.1" d="M161.995 384.518H29.1541C29.3973 383.63 29.6406 382.742 29.9081 381.854H161.849L161.995 384.518Z" fill="black"/>
<path opacity="0.1" d="M162.372 390.636H27.4756C27.7067 389.748 27.9378 388.872 28.1932 387.984H162.214L162.372 390.636Z" fill="black"/>
<path opacity="0.1" d="M162.737 396.754H25.8945C26.1012 395.866 26.3323 394.99 26.5634 394.102H162.579L162.737 396.754Z" fill="black"/>
<path opacity="0.1" d="M163.114 402.871H24.4592C24.666 401.984 24.8728 401.108 25.0917 400.22H162.944L163.114 402.871Z" fill="black"/>
<path opacity="0.1" d="M163.479 409.001H22.9876C23.1822 408.114 23.3768 407.226 23.5835 406.338H163.321L163.479 409.001Z" fill="black"/>
<path opacity="0.1" d="M163.734 413.356H22.0389C22.0389 413.064 22.1605 412.76 22.2335 412.468H163.686L163.734 413.356Z" fill="black"/>
</g>
<path d="M123.634 244.683C114.524 245.9 114.852 251.19 120.338 260.775C125.823 270.359 134.021 274.336 138.363 274.336C141.464 274.336 147.521 267.245 146.013 259.437C144.006 249.038 133.778 243.394 123.634 244.683Z" fill="#37474F"/>
<path d="M147.071 253.501C147.071 253.501 143.532 270.76 138.01 270.76C127.721 270.76 118.55 251.3 118.611 248.6C118.611 247.919 124.424 232.46 128.949 220.455C131.856 212.732 134.252 206.444 134.252 206.444L158.115 232.01L147.826 252.03L147.071 253.501Z" fill="#F7A9A0"/>
<path d="M158.115 232.01L147.825 252.03C142.632 248.382 138.267 243.681 135.014 238.232C131.762 232.782 129.695 226.709 128.949 220.407C131.856 212.683 134.252 206.395 134.252 206.395L137.317 209.46L158.115 232.01Z" fill="#263238"/>
<path d="M202.11 214.671C203.86 205.63 198.848 197.055 190.915 195.518C182.982 193.982 175.131 200.066 173.38 209.107C171.629 218.149 176.641 226.724 184.574 228.26C192.508 229.797 200.359 223.712 202.11 214.671Z" fill="#A4D985"/>
<path d="M168.599 208.755C166.653 218.813 172.248 228.349 181.054 230.064C189.86 231.779 198.605 225.004 200.514 214.946C202.424 204.887 196.866 195.351 188.072 193.636C179.278 191.922 170.509 198.696 168.599 208.755Z" fill="#C7C7C7"/>
<path d="M197.011 208.098C190.407 247.019 166.325 247.493 157.933 246.07C150.307 244.756 124.51 239.356 127.052 199.925C129.594 160.493 149.808 151.274 167.395 153.317C184.983 155.36 203.616 169.141 197.011 208.098Z" fill="#F7A9A0"/>
<path d="M192.645 200.91C191.74 201.001 190.83 201.037 189.921 201.019C188.968 201.197 187.983 201.052 187.123 200.606C186.879 200.414 186.704 200.146 186.627 199.845C186.55 199.544 186.575 199.225 186.698 198.939C187.026 198.411 187.491 197.981 188.043 197.694C188.595 197.408 189.214 197.275 189.835 197.31C191.097 197.18 192.363 197.522 193.387 198.27C193.612 198.455 193.779 198.701 193.866 198.978C193.954 199.256 193.958 199.553 193.879 199.833C193.801 200.113 193.642 200.364 193.423 200.555C193.204 200.747 192.933 200.87 192.645 200.91Z" fill="#263238"/>
<path d="M164.33 194.682C165.097 195.205 165.899 195.57 166.763 196.02C167.534 196.609 168.481 196.922 169.451 196.908C169.754 196.849 170.029 196.69 170.232 196.456C170.435 196.223 170.554 195.928 170.57 195.619C170.518 195.001 170.301 194.409 169.942 193.904C169.582 193.399 169.093 193 168.526 192.749C167.448 192.049 166.145 191.78 164.878 191.995C164.593 192.055 164.332 192.198 164.127 192.405C163.922 192.612 163.782 192.874 163.723 193.159C163.665 193.445 163.692 193.741 163.8 194.011C163.907 194.282 164.092 194.515 164.33 194.682Z" fill="#263238"/>
<path opacity="0.8" d="M165.899 203.488C160.864 201.98 158.225 212.172 162.895 213.559C167.566 214.946 170.12 204.753 165.899 203.488Z" fill="#E07F69"/>
<path d="M167.943 206.322C167.943 206.225 167.712 206.407 167.699 206.517C167.201 209.156 166.203 212.112 163.637 212.464C163.552 212.464 163.528 212.61 163.637 212.61C166.617 212.841 167.906 208.901 167.943 206.322Z" fill="#263238"/>
<path d="M166.203 203.063C162.044 201.846 159.867 210.226 163.71 211.382C167.553 212.537 169.682 204.109 166.203 203.063Z" fill="#263238"/>
<path d="M164.428 203.087C163.564 203.367 162.628 204.023 161.715 203.877C160.803 203.732 160.122 202.661 159.672 201.615C159.672 201.506 159.538 201.615 159.502 201.676C159.064 203.281 159.258 205.094 160.913 205.775C162.567 206.456 163.941 205.276 164.756 203.756C164.926 203.476 164.78 202.965 164.428 203.087Z" fill="#263238"/>
<path opacity="0.8" d="M186.807 207.368C182.404 206.614 180.957 217.038 185.043 217.731C189.13 218.424 190.504 208.001 186.807 207.368Z" fill="#E07F69"/>
<path d="M183.45 209.302C183.45 209.205 183.62 209.472 183.584 209.582C182.805 212.16 182.368 215.237 184.472 216.733C184.533 216.733 184.472 216.904 184.472 216.867C181.65 215.7 182.295 211.613 183.45 209.302Z" fill="#263238"/>
<path d="M186.491 207.198C190.76 208.001 188.85 216.478 184.897 215.712C180.945 214.946 182.915 206.529 186.491 207.198Z" fill="#263238"/>
<path d="M188.133 208.159C188.704 208.755 189.179 209.728 189.969 209.959C190.76 210.19 191.769 209.472 192.56 208.743C192.645 208.67 192.694 208.743 192.682 208.864C192.353 210.494 191.465 212.063 189.811 212.026C188.157 211.99 187.598 210.36 187.585 208.657C187.537 208.317 187.902 207.915 188.133 208.159Z" fill="#263238"/>
<path d="M162.932 226.561C163.357 227.351 163.722 228.373 164.622 228.738C165.585 229.02 166.597 229.09 167.59 228.945C167.61 228.943 167.631 228.948 167.649 228.958C167.666 228.969 167.68 228.984 167.688 229.003C167.697 229.022 167.698 229.043 167.694 229.063C167.689 229.083 167.678 229.102 167.663 229.115C167.143 229.496 166.532 229.733 165.891 229.802C165.25 229.87 164.602 229.767 164.014 229.504C163.534 229.204 163.153 228.77 162.917 228.256C162.682 227.741 162.602 227.169 162.688 226.61C162.652 226.439 162.871 226.451 162.932 226.561Z" fill="#263238"/>
<path d="M176.177 219.847C176.177 219.847 175.751 223.873 175.301 225.722C175.301 225.892 174.79 225.855 174.158 225.722C174.158 225.722 174.158 225.722 174.085 225.722C172.435 225.622 170.845 225.07 169.489 224.126C168.133 223.182 167.064 221.882 166.398 220.37C166.372 220.325 166.365 220.271 166.379 220.221C166.393 220.171 166.426 220.128 166.471 220.103C166.516 220.077 166.57 220.07 166.62 220.084C166.67 220.097 166.713 220.13 166.738 220.175C168.684 222.362 171.288 223.856 174.158 224.432C174.413 223.958 174.656 217.5 174.948 217.548C176.344 218.031 177.669 218.698 178.889 219.531C180.02 211.151 179.789 202.661 181.042 194.342C181.042 194.274 181.069 194.209 181.117 194.161C181.165 194.113 181.23 194.086 181.297 194.086C181.365 194.086 181.43 194.113 181.478 194.161C181.526 194.209 181.553 194.274 181.553 194.342C182.416 203.221 181.334 212.89 180.336 221.574C180.239 222.632 176.834 220.309 176.177 219.847Z" fill="#263238"/>
<path d="M173.185 224.432C171.916 225.571 170.374 226.363 168.709 226.731C167.795 226.896 166.853 226.777 166.009 226.391C164.172 225.527 164.452 223.739 165.097 222.292C165.439 221.523 165.876 220.799 166.398 220.139C168.145 222.256 170.523 223.76 173.185 224.432Z" fill="#263238"/>
<path d="M168.709 226.731C167.795 226.896 166.853 226.777 166.009 226.391C164.172 225.527 164.452 223.739 165.097 222.292C167.116 222.9 168.903 224.712 168.709 226.731Z" fill="#DD6A57"/>
<path d="M128.475 196.641C132.659 197.65 146.804 189.611 153.177 169.883C153.177 169.883 146.22 187.215 144.092 189.416C141.963 191.617 152.009 184.879 157.373 169.031C157.373 169.031 164.282 178.129 171.19 182.556C178.098 186.983 182.745 188.321 183.45 187.932C184.155 187.543 174.109 180.635 172.163 176.28C172.163 176.28 189.41 191.751 198.459 195.278C199.505 195.692 201.183 178.433 189.714 164.714C178.244 150.994 158.808 149.778 150.903 153.767C150.903 153.767 143.435 152.551 132.415 160.809C121.396 169.068 123.974 195.522 128.475 196.641Z" fill="#263238"/>
<path d="M132.805 204.036C132.805 204.036 127.562 189.927 121.372 191.496C115.181 193.065 116.957 211.99 122.697 216.016C123.398 216.584 124.206 217.003 125.073 217.25C125.94 217.497 126.849 217.566 127.743 217.452C128.638 217.339 129.5 217.045 130.278 216.589C131.056 216.133 131.733 215.524 132.269 214.8L132.805 204.036Z" fill="#F7A9A0"/>
<path d="M121.955 196.847C121.945 196.842 121.934 196.838 121.922 196.837C121.91 196.836 121.898 196.837 121.887 196.84C121.876 196.844 121.865 196.849 121.856 196.857C121.847 196.864 121.839 196.874 121.834 196.884C121.828 196.894 121.825 196.906 121.824 196.917C121.822 196.929 121.823 196.941 121.827 196.952C121.83 196.964 121.836 196.974 121.843 196.983C121.851 196.992 121.86 197 121.87 197.006C125.86 199.973 127.137 204.717 127.66 209.436C126.76 207.441 125.227 206.067 122.576 207.064C122.442 207.064 122.503 207.332 122.576 207.332C123.424 207.289 124.265 207.509 124.983 207.961C125.701 208.414 126.262 209.078 126.589 209.862C127.142 211.176 127.549 212.546 127.806 213.948C127.903 214.398 128.681 214.374 128.645 213.875C128.651 213.839 128.651 213.802 128.645 213.766C130.25 208.11 127.939 199.012 121.955 196.847Z" fill="#263238"/>
<path d="M126.723 215.201C126.646 215.461 126.494 215.692 126.286 215.865C126.078 216.039 125.824 216.147 125.554 216.176C125.285 216.206 125.013 216.155 124.773 216.03C124.532 215.905 124.334 215.712 124.203 215.475C124.072 215.238 124.014 214.968 124.036 214.698C124.058 214.428 124.159 214.17 124.327 213.958C124.495 213.745 124.722 213.587 124.98 213.503C125.237 213.419 125.514 213.413 125.775 213.486C126.128 213.588 126.426 213.826 126.604 214.147C126.782 214.469 126.825 214.848 126.723 215.201Z" fill="white"/>
<path d="M123.597 211.82C123.568 211.93 123.517 212.034 123.447 212.125C123.377 212.216 123.289 212.291 123.19 212.348C123.09 212.405 122.98 212.441 122.866 212.454C122.753 212.468 122.637 212.459 122.527 212.428C122.407 212.406 122.294 212.358 122.193 212.29C122.093 212.221 122.008 212.132 121.944 212.029C121.879 211.925 121.838 211.81 121.821 211.689C121.804 211.569 121.812 211.446 121.845 211.329C121.878 211.212 121.935 211.103 122.013 211.009C122.09 210.915 122.187 210.839 122.295 210.784C122.404 210.73 122.523 210.698 122.645 210.692C122.766 210.686 122.888 210.706 123.001 210.749C123.111 210.78 123.213 210.832 123.303 210.903C123.392 210.974 123.467 211.061 123.522 211.161C123.577 211.26 123.613 211.369 123.626 211.483C123.638 211.596 123.629 211.71 123.597 211.82Z" fill="white"/>
<path d="M119.778 199.17L117.017 199.061C116.871 199.055 116.733 198.991 116.633 198.884C116.533 198.778 116.479 198.636 116.482 198.489C116.489 198.343 116.552 198.205 116.659 198.105C116.766 198.005 116.908 197.951 117.054 197.954L119.815 198.064C119.962 198.073 120.1 198.139 120.2 198.248C120.3 198.357 120.353 198.5 120.35 198.648C120.347 198.719 120.33 198.79 120.299 198.855C120.269 198.92 120.226 198.979 120.173 199.028C120.12 199.076 120.057 199.114 119.99 199.138C119.922 199.163 119.85 199.174 119.778 199.17Z" fill="#A4D985"/>
<path d="M119.912 197.346L117.188 196.847C117.116 196.834 117.048 196.807 116.988 196.768C116.927 196.728 116.875 196.677 116.834 196.617C116.793 196.557 116.765 196.489 116.75 196.418C116.736 196.347 116.736 196.274 116.75 196.203C116.761 196.131 116.787 196.062 116.827 196C116.866 195.939 116.917 195.886 116.978 195.845C117.038 195.804 117.106 195.775 117.178 195.762C117.249 195.748 117.323 195.749 117.394 195.765L120.107 196.264C120.25 196.293 120.376 196.376 120.46 196.496C120.544 196.616 120.578 196.764 120.557 196.908C120.544 196.98 120.516 197.048 120.477 197.108C120.437 197.169 120.386 197.221 120.326 197.262C120.266 197.303 120.199 197.331 120.127 197.346C120.056 197.36 119.983 197.36 119.912 197.346Z" fill="#A4D985"/>
<path d="M127.112 192.797C127.112 192.797 128.718 172.704 136.149 162.597C144.432 151.335 171.616 147.017 188.06 162.853C188.06 162.853 160.317 149.741 143.885 164.628C136.964 170.892 133.68 194.305 133.68 194.305L127.112 192.797Z" fill="#C7C7C7"/>
<path d="M144.262 205.58C142.875 215.736 134.532 222.973 125.629 221.757C116.725 220.54 110.632 211.321 112.018 201.177C113.405 191.034 121.749 183.785 130.664 185.001C139.579 186.217 145.661 195.437 144.262 205.58Z" fill="#C7C7C7"/>
<path d="M139.652 204.364C138.436 213.486 130.895 219.993 122.892 218.898C114.889 217.804 109.416 209.521 110.729 200.399C112.043 191.277 119.474 184.77 127.477 185.864C135.48 186.959 140.893 195.242 139.652 204.364Z" fill="#A4D985"/>
<path d="M153.858 235.659L141.647 230.185L131.965 217.743L133.875 216.247L143.192 228.215L154.843 233.445L153.858 235.659Z" fill="#C7C7C7"/>
<path d="M152.569 233.676C153.785 230.125 163.832 231.596 161.934 236.984C160.037 242.372 151.316 237.252 152.569 233.676Z" fill="#37474F"/>
<path d="M93.4947 260.203C69.9234 285.453 5.48542 376.965 24.7755 393.19C56.4836 419.948 91.573 424.655 113.028 427.525C122.284 428.741 141.623 368.415 135.541 360.497C129.46 352.579 88.5202 353.917 87.8999 347.835C87.5593 344.381 102.495 315.811 112.627 279.177C124.291 236.875 103.906 249.038 93.4947 260.203Z" fill="#F7A9A0"/>
<path d="M109.987 354.367C109.987 354.367 138.314 352.299 156.899 351.812C167.274 351.545 185.092 352.664 192.803 355.96C204.333 360.825 249.433 388.799 242.889 399.879C236.978 409.914 201.281 380.991 201.281 380.991C201.281 380.991 239.885 406.982 230.471 417.746C221.057 428.51 185.153 390.49 185.153 390.49C185.153 390.49 224.268 418.099 212.872 427.659C204.273 434.896 169.731 402.288 169.731 402.288C169.731 402.288 203.141 426.236 194.603 434.057C185.177 442.704 151.413 414.596 151.413 414.596C126.383 430.833 107.81 428.328 94.8204 424.971C91.6825 424.18 109.987 354.367 109.987 354.367Z" fill="#F7A9A0"/>
<path d="M188.51 371.151C193.156 374.046 197.875 376.928 202.254 380.224C206.632 383.521 210.877 386.963 214.927 390.648C224.852 399.685 229.644 406.897 229.303 406.459C221.142 396.729 205.683 384.664 201.329 381.368C196.975 378.072 192.815 374.581 188.412 371.285C188.266 371.224 188.4 371.078 188.51 371.151Z" fill="#263238"/>
<path d="M176.335 386.719C182.112 390.66 187.987 394.37 193.582 398.578C199.176 402.786 204.066 407.214 209.393 411.762C209.794 412.115 209.478 412.212 209.053 411.884C203.604 407.542 198.24 403.942 192.742 399.721C187.245 395.501 181.905 390.952 176.286 386.902C176.152 386.792 176.25 386.659 176.335 386.719Z" fill="#263238"/>
<path d="M163.491 398.201C172.613 403.784 180.701 411.033 188.473 418.342C188.85 418.707 188.473 418.792 188.011 418.44C179.826 411.592 173.416 406.155 163.296 398.517C163.138 398.396 163.296 398.092 163.491 398.201Z" fill="#263238"/>
<path d="M205.927 361.153C199.943 357.505 193.569 354.306 186.588 353.089C182.438 352.481 178.254 352.14 174.06 352.068C169.67 351.885 165.267 351.837 160.876 351.666C160.754 351.666 160.767 351.849 160.876 351.861C164.525 352.165 168.271 352.603 171.981 352.883C175.69 353.162 179.12 353.369 182.659 353.831C186.114 354.257 189.509 355.073 192.779 356.264C195.878 357.447 198.869 358.896 201.718 360.594C207.702 364.06 236.042 383.703 242.026 393.433C243.013 394.945 243.383 396.777 243.059 398.554C242.915 399.34 242.546 400.068 241.998 400.65C241.45 401.233 240.746 401.645 239.97 401.838C239.727 401.838 239.97 402.044 240.226 402.008C242.792 401.667 243.874 399.381 244.227 396.96C245.443 387.352 212.288 365.07 205.927 361.153Z" fill="#263238"/>
<path d="M45.2331 319.752L102.398 317.854C102.398 317.854 113.052 289.612 117.102 264.484C121.153 239.356 100.573 247.031 79.0941 273.935C57.6147 300.839 45.2331 319.752 45.2331 319.752Z" fill="#37474F"/>
<path d="M243.059 417.479H232.417V424.436H243.059V417.479Z" fill="#455A64"/>
<path d="M256.864 417.017H246.222V423.974H256.864V417.017Z" fill="#455A64"/>
<path d="M270.669 416.554H260.026V423.512H270.669V416.554Z" fill="#455A64"/>
<path d="M284.473 416.092H273.831V423.049H284.473V416.092Z" fill="#455A64"/>
<path d="M298.29 415.642H287.648V422.599H298.29V415.642Z" fill="#455A64"/>
<path d="M312.095 415.18H301.453V422.137H312.095V415.18Z" fill="#455A64"/>
<path d="M325.9 414.718H315.257V421.675H325.9V414.718Z" fill="#455A64"/>
<path d="M339.716 414.256H329.074V421.213H339.716V414.256Z" fill="#455A64"/>
<path d="M353.521 413.806H342.879V420.763H353.521V413.806Z" fill="#455A64"/>
<path d="M356.136 428.425H229.802V419.972L356.136 416.445V428.425Z" fill="#37474F"/>
<path d="M476.182 400.974H267.957L301.063 245.948H509.289L476.182 400.974Z" fill="#455A64"/>
<path d="M483.881 400.974H275.655L308.775 245.948H517L483.881 400.974Z" fill="#37474F"/>
<path d="M409.515 323.184C415.169 317.96 416.138 309.813 411.679 304.988C407.221 300.163 399.023 300.487 393.369 305.711C387.716 310.936 386.747 319.082 391.205 323.907C395.664 328.732 403.861 328.408 409.515 323.184Z" fill="#263238"/>
<path d="M424.989 441.464H322.579V433.509L424.989 430.189V441.464Z" fill="#455A64"/>
<path d="M452.83 441.451H397.854L364.735 354.585H419.723L452.83 441.451Z" fill="#455A64"/>
<path d="M461.879 441.451H406.903L373.784 354.585H428.772L461.879 441.451Z" fill="#263238"/>
<path d="M289.217 256.81C283.379 254.511 277.602 252.09 271.836 249.646C266.071 247.201 260.343 244.683 254.59 242.202C248.837 239.721 243.145 237.106 237.404 234.442L228.89 230.502C226.056 229.139 223.222 227.826 220.376 226.427C223.295 227.57 226.178 228.774 229.084 229.954L237.756 233.603C243.522 236.036 249.25 238.565 254.991 241.047C260.732 243.528 266.436 246.143 272.128 248.758C277.82 251.373 283.622 254.049 289.217 256.81Z" fill="#263238"/>
<path d="M279.158 303.77C273.831 304.025 268.492 304.135 263.164 304.232C257.837 304.329 252.498 304.329 247.17 304.378C241.843 304.426 236.504 304.378 231.176 304.244L223.173 304.074C220.51 303.964 217.846 303.903 215.183 303.77C217.846 303.636 220.51 303.575 223.173 303.478L231.176 303.308C236.504 303.21 241.843 303.21 247.17 303.162C252.498 303.113 257.837 303.162 263.164 303.308C268.492 303.453 273.892 303.478 279.158 303.77Z" fill="#263238"/>
<path d="M237.732 248.965C241.892 249.816 246.003 250.813 250.114 251.823C254.225 252.832 258.324 253.903 262.41 254.997C266.497 256.092 270.571 257.223 274.634 258.439L280.715 260.252C282.734 260.908 284.765 261.468 286.796 262.198C284.717 261.784 282.649 261.285 280.581 260.835L274.415 259.339C270.292 258.342 266.205 257.26 262.118 256.165C258.032 255.07 253.933 253.903 249.871 252.686C245.808 251.47 241.758 250.254 237.732 248.965Z" fill="#263238"/>
<path d="M235.64 191.873C241.028 196.191 246.331 200.606 251.61 205.033C256.888 209.46 262.106 213.973 267.361 218.412C272.615 222.851 277.784 227.449 282.941 232.034L290.652 238.918C293.206 241.241 295.773 243.54 298.29 245.9C295.59 243.747 292.939 241.545 290.263 239.368L282.321 232.74C277.042 228.312 271.824 223.8 266.57 219.361C261.316 214.921 256.159 210.324 251.002 205.738C245.845 201.153 240.7 196.616 235.64 191.873Z" fill="#263238"/>
<path d="M232.417 316.395C236.625 315.628 240.858 314.996 245.091 314.388C249.323 313.78 253.605 313.171 257.801 312.697C261.997 312.223 266.315 311.688 270.547 311.286L276.933 310.678C279.061 310.52 281.19 310.313 283.33 310.192C281.226 310.593 279.11 310.909 277.006 311.262L270.657 312.211C266.424 312.831 262.143 313.366 257.947 313.901C253.75 314.436 249.433 314.899 245.2 315.312C240.967 315.726 236.686 316.127 232.417 316.395Z" fill="#263238"/>
<path d="M225.351 271.903C230.593 272.597 235.798 273.436 241.016 274.275C246.234 275.114 251.403 276.075 256.609 276.975C261.814 277.875 266.983 278.897 272.153 279.943L279.912 281.524C282.491 282.096 285.069 282.619 287.648 283.227C285.021 282.899 282.418 282.485 279.803 282.108L271.995 280.892C266.777 280.052 261.595 279.104 256.39 278.204C251.184 277.304 246.015 276.27 240.846 275.236C235.677 274.202 230.508 273.095 225.351 271.903Z" fill="#263238"/>
<path d="M272.676 211.467C274.877 213.547 276.993 215.7 279.085 217.877C281.177 220.054 283.221 222.28 285.252 224.505C287.283 226.731 289.278 229.006 291.224 231.316L294.131 234.795C295.067 236.011 296.028 237.142 296.94 238.347C295.821 237.325 294.763 236.242 293.681 235.196L290.518 231.949C288.414 229.784 286.383 227.546 284.352 225.32C282.321 223.095 280.326 220.82 278.392 218.509C276.458 216.198 274.451 213.875 272.676 211.467Z" fill="#263238"/>
<path d="M352.049 125.55H184.776V140.631H352.049V125.55Z" fill="#EBEBEB"/>
<path d="M329.925 128.067H187.804V138.345H329.925V128.067Z" fill="#A4D985"/>
<path d="M172.868 133.942C170.594 138.114 165.145 141.787 165.145 141.787C165.145 141.787 159.684 138.138 157.434 133.942C154.856 129.223 156.279 124.406 159.964 124.406C164.075 124.406 165.145 129.539 165.145 129.539C165.145 129.539 166.228 124.406 170.314 124.406C174.012 124.406 175.435 129.223 172.868 133.942Z" fill="#EBEBEB"/>
<path d="M147.825 133.942C145.551 138.114 140.102 141.787 140.102 141.787C140.102 141.787 134.653 138.138 132.391 133.942C129.825 129.223 131.236 124.406 134.921 124.406C139.032 124.406 140.102 129.539 140.102 129.539C140.102 129.539 141.185 124.406 145.283 124.406C148.969 124.406 150.392 129.223 147.825 133.942Z" fill="#A4D985"/>
<path d="M122.795 133.942C120.52 138.114 115.059 141.787 115.059 141.787C115.059 141.787 109.61 138.138 107.348 133.942C104.782 129.223 106.193 124.406 109.878 124.406C114.001 124.406 115.059 129.539 115.059 129.539C115.059 129.539 116.142 124.406 120.24 124.406C123.926 124.406 125.361 129.223 122.795 133.942Z" fill="#A4D985"/>
<path d="M110.34 392.18L105.195 456.935H69.5706L64.4258 392.18H110.34Z" fill="#A4D985"/>
<path d="M113.417 386.33H61.0568V395.768H113.417V386.33Z" fill="#455A64"/>
<path d="M109.817 386.33H64.6448L67.2841 375.736H107.178L109.817 386.33Z" fill="#37474F"/>
<path d="M99.7463 425.129C99.7463 433.534 94.2123 440.345 87.389 440.345C80.5657 440.345 75.0195 433.534 75.0195 425.129C75.0195 416.725 80.5536 409.901 87.389 409.901C94.2244 409.901 99.7463 416.713 99.7463 425.129Z" fill="white"/>
<path d="M320.451 470.727C320.451 473.658 306.464 476.03 289.217 476.03C271.97 476.03 257.983 473.658 257.983 470.727C257.983 467.796 271.958 465.424 289.217 465.424C306.476 465.424 320.451 467.796 320.451 470.727Z" fill="#C7C7C7"/>
<path d="M293.072 476.03C293.072 478.961 279.085 481.333 261.839 481.333C244.592 481.333 230.605 478.961 230.605 476.03C230.605 473.099 244.592 470.727 261.839 470.727C279.085 470.727 293.072 473.099 293.072 476.03Z" fill="#C7C7C7"/>
<path d="M308.665 428.96L373.407 434.105V469.73L308.665 474.875V428.96Z" fill="#A4D985"/>
<path d="M237.27 475.458H184.91V484.897H237.27V475.458Z" fill="#455A64"/>
<path d="M233.682 475.458H188.498L191.137 464.853H231.031L233.682 475.458Z" fill="#37474F"/>
<path d="M341.614 439.554C350.018 439.554 356.829 445.088 356.829 451.911C356.829 458.735 350.018 464.317 341.614 464.317C333.209 464.317 326.386 458.783 326.386 451.948C326.386 445.112 333.197 439.554 341.614 439.554Z" fill="white"/>
<path d="M449.4 433.68C453.413 433.096 458.57 433.096 458.862 435.394C459.154 437.693 457.33 438.934 457.901 440.077C458.473 441.22 461.733 443.325 463.265 444.857C464.536 446.207 465.455 447.848 465.941 449.637C465.941 450.209 466.89 451.17 465.941 452.313C464.992 453.456 464.445 455.183 463.654 456.047C462.864 456.91 462.535 457.859 463.654 459.392C464.773 460.924 463.825 465.315 462.098 466.847C460.37 468.38 455.408 464.743 453.876 465.12C452.343 465.497 452.161 466.263 450.823 467.224C449.485 468.185 446.237 470.484 442.795 470.484C439.353 470.484 437.626 467.419 435.498 466.081C433.369 464.743 431.484 464.548 429.575 463.782C427.856 463.09 426.341 461.973 425.172 460.535C424.795 459.769 423.457 459.586 424.028 457.482C424.6 455.378 425.561 454.806 425.561 453.079C425.561 451.352 425.561 451.06 425.561 449.102C425.561 447.144 424.016 443.714 425.354 442.181C426.692 440.649 427.653 438.362 429.757 438.362C431.861 438.362 438.551 439.505 438.551 439.505C439.257 438.752 439.896 437.938 440.46 437.073C440.942 436.27 441.62 435.603 442.43 435.135C443.241 434.667 444.158 434.413 445.094 434.397C446.558 434.381 448.01 434.139 449.4 433.68Z" fill="white"/>
<path d="M425.597 453.079C428.334 454.295 431.107 455.512 433.904 456.57C436.702 457.628 439.463 458.844 442.272 459.878C445.015 460.947 447.817 461.857 450.665 462.602C451.237 462.749 451.826 462.818 452.416 462.809L454.107 461.958C455.382 461.308 456.602 460.556 457.755 459.708C458.863 458.953 459.81 457.985 460.541 456.862C460.696 456.601 460.831 456.329 460.942 456.047L461.064 455.633L461.125 455.439C460.966 454.985 460.713 454.571 460.383 454.222C458.432 452.091 456.258 450.175 453.9 448.506C451.467 446.73 449.035 445.064 446.493 443.483C445.277 442.668 443.963 441.877 442.662 441.135C442.005 440.77 441.348 440.418 440.679 440.089C440.348 439.916 440.007 439.761 439.657 439.627C439.341 439.542 438.903 439.262 438.648 439.554C438.867 439.201 439.378 439.408 439.718 439.445C440.092 439.523 440.461 439.621 440.825 439.737C441.543 439.968 442.248 440.247 442.953 440.539C444.352 441.111 445.727 441.756 447.089 442.412C449.789 443.787 452.416 445.283 454.995 446.913C457.674 448.508 460.129 450.455 462.292 452.702C462.999 453.426 463.463 454.353 463.618 455.354C463.642 455.543 463.642 455.735 463.618 455.925L463.533 456.278L463.338 456.947C463.175 457.365 462.984 457.771 462.767 458.163C461.884 459.597 460.722 460.838 459.349 461.812C458.07 462.73 456.72 463.543 455.311 464.244L454.289 464.755L453.766 464.999L453.486 465.132L452.927 465.303C452.013 465.376 451.094 465.281 450.215 465.023C447.266 464.167 444.39 463.077 441.616 461.763C436.056 459.295 430.7 456.391 425.597 453.079Z" fill="#C7C7C7"/>
<path d="M437.006 458.236C438.474 455.901 440.134 453.692 441.968 451.632C442.856 450.574 443.841 449.601 444.827 448.615C445.325 448.117 445.86 447.667 446.408 447.204C447.015 446.666 447.694 446.216 448.427 445.867C448.549 445.813 448.675 445.768 448.804 445.733C449.07 445.69 449.341 445.69 449.606 445.733C450.004 445.81 450.368 446.005 450.652 446.292C450.943 446.589 451.207 446.911 451.443 447.253C451.86 447.841 452.246 448.45 452.598 449.078C453.255 450.294 453.912 451.51 454.447 452.812C455.642 455.312 456.521 457.951 457.062 460.669L452.684 453.724C451.942 452.593 451.273 451.425 450.519 450.318C450.154 449.771 449.801 449.199 449.436 448.725C449.275 448.507 449.101 448.3 448.913 448.105C448.913 448.105 448.913 448.105 449.096 448.19C449.194 448.226 449.302 448.226 449.4 448.19H449.302C448.804 448.441 448.335 448.747 447.904 449.102L446.383 450.318L443.318 452.957C441.299 454.831 439.232 456.606 437.006 458.236Z" fill="#C7C7C7"/>
<path d="M410.917 480.202C408.74 480.725 405.918 480.98 405.638 479.74C405.359 478.499 406.295 477.721 405.918 477.125C404.918 476.267 403.857 475.482 402.744 474.777C401.984 474.117 401.396 473.282 401.029 472.345C401.029 472.041 400.433 471.566 400.895 470.885C401.357 470.204 401.564 469.231 401.953 468.72C402.073 468.595 402.164 468.445 402.221 468.281C402.277 468.117 402.298 467.942 402.282 467.769C402.266 467.597 402.213 467.429 402.127 467.279C402.041 467.128 401.923 466.997 401.783 466.896C401.077 466.105 401.381 463.649 402.245 462.724C403.108 461.8 406.015 463.539 406.842 463.247C407.669 462.955 407.718 462.53 408.399 461.934C409.566 460.806 411.037 460.044 412.632 459.744C414.529 459.562 415.624 461.155 416.84 461.775C417.925 462.216 419.055 462.539 420.209 462.736C421.188 463.026 422.075 463.562 422.788 464.293C423.031 464.682 423.773 464.719 423.566 465.911C423.359 467.103 422.873 467.455 422.958 468.343C423.043 469.231 423.043 469.45 423.153 470.52C423.262 471.591 424.271 473.403 423.627 474.303C422.982 475.203 422.557 476.517 421.413 476.626C420.27 476.736 416.548 476.444 416.548 476.444C416.195 476.9 415.886 477.389 415.624 477.903C415.398 478.373 415.056 478.777 414.631 479.077C414.205 479.377 413.709 479.564 413.191 479.618C412.407 479.691 411.639 479.888 410.917 480.202Z" fill="white"/>
<path d="M402.598 467.966C403.814 466.75 405.03 465.619 406.186 464.451L407.11 463.624L407.572 463.198C407.845 462.984 408.16 462.831 408.496 462.748C409.38 462.55 410.28 462.436 411.184 462.408C412.925 462.335 414.669 462.433 416.39 462.7C417.365 462.824 418.312 463.116 419.187 463.563C419.796 463.96 420.231 464.573 420.404 465.278C420.553 465.796 420.618 466.334 420.598 466.872C420.488 468.69 420.077 470.478 419.382 472.162C419.06 472.996 418.686 473.808 418.263 474.595C418.048 475.019 417.8 475.426 417.521 475.811C417.175 476.308 416.688 476.69 416.122 476.906C414.378 477.392 412.551 477.508 410.759 477.246C409.07 477.071 407.396 476.778 405.748 476.371C407.438 476.249 409.117 476.225 410.759 476.018C412.312 475.951 413.846 475.647 415.308 475.118C415.624 474.948 415.539 474.948 415.782 474.619C416.025 474.291 416.135 473.987 416.305 473.634C416.622 472.911 416.903 472.172 417.144 471.42C417.673 469.975 417.977 468.458 418.044 466.92C418.073 466.457 418.277 466.022 418.616 465.704C417.723 465.418 416.807 465.207 415.879 465.071C414.304 464.736 412.706 464.513 411.099 464.403C410.326 464.342 409.549 464.342 408.776 464.403C408.63 464.403 408.484 464.476 408.533 464.403L408.01 464.743L406.927 465.424C405.517 466.203 404.094 467.127 402.598 467.966Z" fill="#C7C7C7"/>
<path d="M407.803 464.707C407.888 466.312 407.803 467.857 407.949 469.28C407.949 469.924 408.156 470.727 408.326 470.776C408.497 470.824 408.326 470.776 408.326 470.776C408.326 470.776 408.326 470.776 408.472 470.776C408.766 470.762 409.058 470.73 409.348 470.679C410.698 470.447 412.158 470.046 413.641 469.73C415.162 469.367 416.706 469.115 418.263 468.976C415.814 471.051 412.889 472.489 409.749 473.16C409.276 473.205 408.8 473.205 408.326 473.16C407.993 473.137 407.664 473.064 407.353 472.941C406.974 472.767 406.657 472.483 406.441 472.126C405.966 471.218 405.828 470.171 406.052 469.17C406.313 467.575 406.91 466.054 407.803 464.707Z" fill="#C7C7C7"/>
<path d="M125.349 452.155C124.364 449.199 124.534 445.769 121.201 446.073C117.869 446.377 115.874 442.279 114.378 441.269C112.882 440.26 107.543 441.269 106.375 442.279C105.207 443.288 104.709 445.222 103.541 446.073C102.373 446.925 100.707 448.275 99.2112 449.613C97.7152 450.951 95.5624 452.775 96.207 456.108C96.8516 459.44 98.3719 460.583 99.3815 462.262C100.391 463.94 98.7125 466.932 100.038 470.776C101.364 474.619 107.871 476.103 109.537 475.434C111.204 474.765 115.619 471.931 118.051 471.931C120.484 471.931 121.153 473.938 123.33 472.771C125.507 471.603 128.657 469.122 128.827 468.1C128.998 467.078 126.991 466.227 127.611 464.67C128.231 463.113 130.944 460.182 130.603 458.224C130.263 456.266 126.091 454.368 125.349 452.155Z" fill="white"/>
<path d="M119.17 445.721C115.055 447.038 111.035 448.639 107.141 450.513C106.709 450.737 106.301 451.006 105.925 451.315C105.767 451.315 105.67 452.07 105.572 452.532C105.39 453.578 105.268 454.648 105.147 455.718C104.94 457.847 104.77 460 104.757 462.128C104.732 463.165 104.789 464.202 104.928 465.23C104.951 465.516 105.025 465.796 105.147 466.057C105.528 466.244 105.94 466.364 106.363 466.409C108.435 466.724 110.533 466.83 112.627 466.726C113.676 466.697 114.724 466.612 115.765 466.47C116.665 466.324 117.881 466.032 118.903 465.85C121.019 465.424 123.16 465.011 125.191 464.476C125.689 464.342 126.212 464.22 126.626 464.062C126.712 464.037 126.794 464 126.869 463.953C126.869 463.953 126.991 463.953 126.869 463.953C126.831 463.974 126.798 464.004 126.773 464.039C126.747 464.075 126.73 464.116 126.723 464.159C126.594 464.402 126.564 464.685 126.638 464.95C126.685 465.083 126.755 465.206 126.845 465.315C126.845 465.376 127.003 465.436 126.979 465.436C126.954 465.436 126.979 465.436 126.979 465.436L126.687 465.327C125.762 465.023 124.68 464.78 123.646 464.524L117.321 463.101C115.193 462.639 113.077 462.165 110.948 461.629C109.89 461.362 108.82 461.082 107.749 460.705C107.098 460.518 106.49 460.204 105.961 459.781C105.888 459.712 105.822 459.634 105.767 459.55C105.693 459.425 105.64 459.29 105.609 459.148C105.597 459.015 105.597 458.88 105.609 458.747C105.619 458.54 105.656 458.336 105.718 458.139C105.824 457.833 105.954 457.536 106.107 457.251C107.264 455.328 108.648 453.551 110.231 451.96C110.62 451.563 111.025 451.157 111.447 450.744C111.666 450.561 111.873 450.367 112.116 450.184L112.469 449.929C112.632 449.802 112.818 449.707 113.016 449.649C113.228 449.613 113.445 449.621 113.654 449.671C113.863 449.721 114.06 449.813 114.232 449.941C114.486 450.113 114.726 450.304 114.95 450.513C115.356 450.897 115.742 451.303 116.105 451.729C118.744 455.189 121.111 458.849 123.184 462.675C120.775 459.084 118.139 455.651 115.29 452.398C114.939 452.016 114.565 451.654 114.171 451.315C113.926 451.079 113.637 450.893 113.32 450.768L113.162 450.878L112.882 451.109C112.687 451.273 112.5 451.448 112.323 451.632C111.946 451.997 111.593 452.386 111.24 452.775C109.823 454.325 108.598 456.04 107.591 457.883C107.496 458.079 107.418 458.282 107.36 458.491C107.36 458.564 107.36 458.71 107.36 458.686C107.343 458.609 107.314 458.536 107.275 458.467C107.261 458.438 107.24 458.413 107.214 458.394C107.582 458.573 107.965 458.719 108.358 458.832C109.343 459.136 110.389 459.404 111.423 459.659C113.515 460.146 115.631 460.583 117.759 461.021L125.896 462.578C126.966 462.821 126.261 462.797 127.404 463.15L127.879 463.32C127.993 463.372 128.102 463.433 128.207 463.503C128.316 463.564 128.414 463.642 128.499 463.734C128.615 463.866 128.706 464.018 128.767 464.184C128.852 464.48 128.821 464.797 128.681 465.072C128.558 465.256 128.406 465.42 128.231 465.558C128.133 465.628 128.032 465.693 127.927 465.753L127.429 465.972C126.88 466.178 126.319 466.352 125.75 466.495C123.585 467.018 121.445 467.395 119.304 467.796C118.185 467.978 117.297 468.197 116.057 468.392C114.942 468.524 113.822 468.597 112.7 468.611C110.456 468.683 108.211 468.533 105.998 468.161C105.332 468.055 104.692 467.824 104.113 467.48C103.743 467.191 103.478 466.79 103.359 466.336C103.253 466.026 103.188 465.703 103.164 465.376C103.073 464.242 103.073 463.103 103.164 461.97C103.286 459.769 103.541 457.591 103.869 455.426C104.04 454.344 104.21 453.274 104.453 452.179C104.66 451.632 104.526 451.133 105.183 450.391C105.653 450.01 106.173 449.695 106.728 449.455C108.747 448.606 110.814 447.875 112.919 447.265C114.95 446.754 116.993 446.171 119.17 445.721Z" fill="#C7C7C7"/>
</svg>
