<svg width="526" height="491" viewBox="0 0 526 491" fill="none" xmlns="http://www.w3.org/2000/svg">
<path d="M343.844 370.524H500.178L505.206 271.325H338.816L343.844 370.524Z" fill="#EBEBEB"/>
<path d="M488.72 316.697H351.032L349.14 282.259H490.928L488.72 316.697ZM352.191 315.476H487.572L489.623 283.48H350.434L352.191 315.476Z" fill="#DBDBDB"/>
<path d="M486.852 356.356H355.059L353.448 325.238H488.793L486.852 356.356ZM356.157 355.135H485.705L487.499 326.458H354.729L356.157 355.135Z" fill="#DBDBDB"/>
<path d="M435.709 303.273H406.519L405.458 294.962H436.783L435.709 303.273ZM407.642 302.052H434.684L435.441 296.183H406.861L407.642 302.052Z" fill="#DBDBDB"/>
<path d="M435.709 344.959H406.519L405.458 336.661H436.783L435.709 344.959ZM407.642 343.738H434.684L435.441 337.881H406.861L407.642 343.738Z" fill="#DBDBDB"/>
<path d="M365.529 370.524L364.003 381.324L360.953 403.046H354.985V370.524H365.529Z" fill="#EBEBEB"/>
<path d="M365.529 370.524L364.003 381.324H354.985V370.524H365.529Z" fill="#DBDBDB"/>
<path d="M478.493 370.524L480.007 381.324L483.07 403.046H489.037V370.524H478.493Z" fill="#EBEBEB"/>
<path d="M478.493 370.524L480.007 381.324H489.037V370.524H478.493Z" fill="#DBDBDB"/>
<path d="M112.253 85.8979H49.7729V0H112.253V85.8979ZM181.811 0H119.294V85.8979H181.762L181.811 0ZM112.253 92.9269H49.7729V178.8H112.253V92.9269ZM181.811 92.9269H119.294V178.8H181.762L181.811 92.9269ZM399.112 0H336.644V85.8979H399.112V0ZM468.67 0H406.19V85.8979H468.67V0ZM399.112 92.9269H336.644V178.8H399.112V92.9269ZM468.67 92.9269H406.19V178.8H468.67V92.9269ZM255.689 0H193.209V85.8979H255.689V0ZM325.246 0H262.766V85.8979H325.246V0ZM255.689 92.9269H193.209V178.8H255.689V92.9269ZM325.246 92.9269H262.766V178.8H325.246V92.9269Z" fill="#EBEBEB"/>
<path d="M479.335 200.474C478.831 203.949 479.009 207.488 479.86 210.895C480.257 212.477 480.792 214.02 481.458 215.508C482.454 217.299 482.967 219.317 482.947 221.365C482.74 221.5 483.435 221.487 483.46 221.28C489.037 218.107 496.188 217.521 500.544 212.323C502.486 209.798 503.712 206.797 504.095 203.634C504.729 200.153 504.658 196.581 503.888 193.127C503.573 191.683 502.961 190.32 502.091 189.125C501.222 187.929 500.113 186.928 498.836 186.184C495.922 184.891 492.628 184.743 489.61 185.769C483.313 187.709 480.214 194.433 479.335 200.474Z" fill="#EBEBEB"/>
<path d="M476.419 241.769C477.175 239.23 477.944 236.696 478.725 234.166C480.251 229.212 481.849 224.269 483.606 219.388C484.672 216.459 485.787 213.563 486.95 210.699C486.817 208.891 486.593 207.091 486.279 205.306C485.815 203.133 485.132 201.047 484.509 198.936C484.509 198.801 484.68 198.728 484.729 198.85C485.949 201.767 487.621 205.501 487.658 208.954C489.025 205.708 490.477 202.511 492.039 199.363C492.226 196.697 492.144 194.019 491.795 191.37C491.795 191.344 491.805 191.319 491.823 191.301C491.842 191.282 491.866 191.272 491.892 191.272C491.918 191.272 491.943 191.282 491.961 191.301C491.98 191.319 491.99 191.344 491.99 191.37C492.463 193.689 492.643 196.059 492.527 198.423C493.747 196.056 494.968 193.713 496.334 191.406C496.456 191.199 496.749 191.406 496.639 191.626C494.54 195.653 492.6 199.778 490.77 203.951C493.344 201.731 496.312 200.014 499.519 198.887C499.666 198.887 499.763 199.045 499.629 199.106C496.124 200.61 492.916 202.73 490.16 205.367C488.854 208.43 487.597 211.468 486.413 214.617C490.052 211.262 494.488 208.893 499.3 207.734C499.458 207.734 499.507 207.929 499.3 207.978C493.955 209.589 489.793 212.615 485.73 216.264C485.266 217.484 484.79 218.778 484.339 220.035C482.622 224.818 480.995 229.63 479.457 234.471C478.701 236.79 477.969 239.108 477.236 241.439C476.504 243.77 475.845 246.577 474.796 248.993C474.698 249.225 474.283 249.176 474.344 248.895C474.915 246.486 475.607 244.107 476.419 241.769Z" fill="#DBDBDB"/>
<path d="M485.717 195.58C486.71 197.104 487.394 198.808 487.731 200.596C487.731 200.596 487.731 200.669 487.658 200.596C487.031 198.925 486.302 197.295 485.473 195.715C485.388 195.544 485.632 195.446 485.717 195.58Z" fill="#DBDBDB"/>
<path d="M495.676 207.209C497.23 206.355 498.924 205.784 500.679 205.525C500.679 205.525 500.752 205.525 500.679 205.611C499.874 205.94 499.019 206.172 498.238 206.489C497.457 206.807 496.615 207.185 495.798 207.466C495.766 207.472 495.733 207.468 495.703 207.453C495.674 207.438 495.651 207.414 495.637 207.385C495.623 207.356 495.619 207.322 495.626 207.291C495.633 207.259 495.651 207.23 495.676 207.209Z" fill="#DBDBDB"/>
<path d="M498.483 193.225C498.985 192.843 499.525 192.512 500.093 192.237C500.11 192.234 500.128 192.236 500.144 192.242C500.159 192.249 500.173 192.26 500.182 192.275C500.191 192.289 500.196 192.306 500.195 192.324C500.195 192.341 500.189 192.357 500.179 192.371C499.687 192.77 499.155 193.117 498.592 193.408C498.495 193.445 498.385 193.299 498.483 193.225Z" fill="#DBDBDB"/>
<path d="M460.555 219.425C464.582 220.645 468.621 221.719 472.636 222.891C472.978 223.001 479.775 209.98 477.322 203.28C476.155 200.24 474.323 197.498 471.96 195.256C469.598 193.014 466.764 191.328 463.667 190.321C460.799 189.344 457.272 188.527 454.234 189.186C452.941 189.533 451.759 190.207 450.801 191.143C449.844 192.079 449.143 193.246 448.767 194.531C447.546 197.972 447.961 202.084 448.62 205.599C449.133 208.901 450.495 212.013 452.574 214.629C454.687 216.999 457.47 218.671 460.555 219.425Z" fill="#EBEBEB"/>
<path d="M454.697 207.051C457.239 208.292 459.875 209.328 462.58 210.151C464.383 210.64 466.142 211.276 467.84 212.054C466.144 208.272 464.277 204.562 462.3 200.901C459.604 200.223 457.1 198.937 454.978 197.142C454.955 197.123 454.941 197.095 454.939 197.065C454.937 197.036 454.946 197.006 454.966 196.984C454.985 196.961 455.013 196.947 455.042 196.945C455.072 196.942 455.102 196.952 455.124 196.971C457.288 198.354 459.591 199.508 461.995 200.413C461.458 199.424 460.921 198.436 460.372 197.447C460.336 197.392 460.324 197.325 460.337 197.261C460.351 197.197 460.39 197.141 460.445 197.106C460.5 197.07 460.567 197.058 460.631 197.072C460.695 197.085 460.751 197.124 460.787 197.179C462.89 200.246 464.794 203.446 466.485 206.758C466.923 203.851 467.062 200.907 466.9 197.972C466.9 197.899 467.01 197.899 467.022 197.972C467.527 201.173 467.494 204.435 466.925 207.625C468.328 210.431 469.609 213.311 470.769 216.24C471.232 214.483 471.818 212.762 472.221 210.993C472.831 208.462 473.025 205.849 472.794 203.256C472.794 203.24 472.801 203.224 472.812 203.213C472.824 203.201 472.839 203.195 472.855 203.195C472.872 203.195 472.887 203.201 472.899 203.213C472.91 203.224 472.916 203.24 472.916 203.256C473.624 208.056 473.043 212.959 471.232 217.46C471.904 219.218 472.538 220.975 473.124 222.744C476.156 231.755 477.95 241.135 478.457 250.629C478.457 250.674 478.439 250.717 478.407 250.749C478.375 250.781 478.331 250.799 478.286 250.799C478.24 250.799 478.197 250.781 478.165 250.749C478.133 250.717 478.115 250.674 478.115 250.629C477.067 241.264 475.064 232.031 472.135 223.074C470.915 219.572 469.622 216.167 468.157 212.823C465.778 212.128 463.41 211.176 461.079 210.383C458.75 209.682 456.553 208.601 454.575 207.185C454.566 207.177 454.559 207.168 454.554 207.157C454.549 207.146 454.546 207.135 454.546 207.123C454.545 207.111 454.547 207.099 454.551 207.088C454.555 207.076 454.561 207.066 454.569 207.057C454.577 207.048 454.587 207.041 454.597 207.036C454.608 207.031 454.62 207.028 454.632 207.028C454.644 207.027 454.656 207.029 454.667 207.033C454.678 207.037 454.688 207.043 454.697 207.051Z" fill="#DBDBDB"/>
<path d="M450.951 203.268C453.392 204.147 455.735 205.367 458.187 206.246C458.309 206.246 458.187 206.477 458.126 206.453C455.474 206.046 452.961 204.999 450.805 203.402C450.792 203.341 450.866 203.207 450.951 203.268Z" fill="#DBDBDB"/>
<path d="M471.013 197.96C471.013 197.838 471.184 197.765 471.22 197.96C472.04 200.194 472.205 202.615 471.696 204.94C471.696 204.963 471.687 204.984 471.671 205C471.655 205.016 471.633 205.026 471.611 205.026C471.588 205.026 471.566 205.016 471.55 205C471.534 204.984 471.525 204.963 471.525 204.94C471.566 202.603 471.395 200.266 471.013 197.96Z" fill="#DBDBDB"/>
<path d="M460.86 192.737C461.648 193.858 462.027 195.215 461.934 196.581C461.934 196.667 461.788 196.716 461.763 196.581C461.47 195.288 460.958 194.141 460.543 192.847C460.537 192.808 460.545 192.768 460.566 192.734C460.586 192.7 460.618 192.674 460.656 192.661C460.694 192.648 460.735 192.648 460.772 192.662C460.809 192.676 460.84 192.703 460.86 192.737Z" fill="#DBDBDB"/>
<path d="M508.318 225.173C507.097 228.907 504.339 234.081 499.91 234.118C497.042 234.118 494.138 233.813 491.258 233.764C488.183 233.764 485.083 233.764 482.008 233.91C481.751 233.91 482.374 224.672 489.793 220.169C491.982 219.071 494.336 218.337 496.761 217.997C499.459 217.36 502.227 217.073 504.998 217.143C506.707 217.204 508.122 217.57 508.733 219.315C509.199 221.264 509.054 223.309 508.318 225.173Z" fill="#EBEBEB"/>
<path d="M505.133 220.486C503.327 220.95 501.472 221.475 499.702 222.048C500.175 221.537 500.677 221.052 501.203 220.596C501.972 219.949 502.826 219.437 503.644 218.863C503.656 218.851 503.665 218.836 503.668 218.819C503.671 218.802 503.67 218.785 503.663 218.769C503.657 218.754 503.645 218.74 503.631 218.731C503.617 218.721 503.6 218.717 503.583 218.717C501.834 219.451 500.322 220.655 499.214 222.195C496.957 222.927 494.736 223.732 492.576 224.635C491.094 225.247 489.673 225.995 488.329 226.868C488.765 225.935 489.279 225.041 489.867 224.196C490.933 223.051 492.167 222.076 493.528 221.304C493.554 221.288 493.572 221.262 493.579 221.232C493.586 221.202 493.58 221.171 493.564 221.145C493.548 221.119 493.522 221.101 493.493 221.094C493.463 221.087 493.432 221.092 493.406 221.109C492.059 221.695 490.849 222.556 489.853 223.636C488.857 224.716 488.097 225.991 487.621 227.381C486.083 228.492 484.674 229.773 483.423 231.201C478.542 236.777 474.649 244.185 474.637 251.751C474.637 251.934 474.93 251.983 474.967 251.751C476.224 244.334 479.453 237.392 484.314 231.652C484.668 231.237 485.022 230.847 485.4 230.432C486.744 230.254 488.097 230.157 489.452 230.139C491.026 230.139 492.588 230.371 494.162 230.493C496.749 230.7 499.617 230.737 501.948 229.431C501.967 229.416 501.981 229.395 501.987 229.371C501.993 229.348 501.991 229.323 501.981 229.3C501.972 229.278 501.954 229.259 501.933 229.248C501.911 229.236 501.887 229.232 501.862 229.236C496.664 231.127 491.197 228.736 485.998 229.858C488.223 227.733 490.832 226.052 493.686 224.904L494.174 224.709C497.506 225.111 501.033 225.929 504.291 224.892C504.307 224.885 504.32 224.874 504.33 224.86C504.339 224.846 504.345 224.829 504.345 224.812C504.345 224.795 504.339 224.778 504.33 224.764C504.32 224.75 504.307 224.739 504.291 224.733C501.155 225.526 498.189 224.538 495.041 224.379C498.409 223.061 501.85 222.024 505.243 220.718C505.438 220.669 505.438 220.401 505.133 220.486Z" fill="#DBDBDB"/>
<path d="M506.61 223.769C504.991 223.983 503.361 224.105 501.728 224.135C501.728 224.135 501.728 224.135 501.728 224.208C503.357 224.503 505.033 224.394 506.61 223.891C506.626 223.891 506.641 223.885 506.653 223.873C506.664 223.862 506.671 223.846 506.671 223.83C506.671 223.814 506.664 223.798 506.653 223.787C506.641 223.775 506.626 223.769 506.61 223.769Z" fill="#DBDBDB"/>
<path d="M495.627 220.56C494.716 220.961 493.889 221.528 493.186 222.232C493.1 222.317 493.186 222.464 493.308 222.391C493.715 222.098 494.121 221.817 494.528 221.549C494.949 221.324 495.356 221.075 495.749 220.804C495.871 220.719 495.761 220.524 495.627 220.56Z" fill="#DBDBDB"/>
<path d="M469.439 232.604C469.5 232.726 469.317 232.836 469.256 232.714C469.195 232.592 469.256 232.714 469.256 232.714C469.245 232.734 469.23 232.752 469.21 232.765C469.191 232.777 469.169 232.785 469.146 232.787C466.163 233.503 463.139 234.033 460.091 234.373C457.65 234.593 454.807 234.727 452.659 233.299C449.755 231.371 447.839 226.221 449.413 222.939C451.268 219.058 456.882 221.169 459.688 222.548C464.016 224.655 467.466 228.214 469.439 232.604Z" fill="#EBEBEB"/>
<path d="M471.623 234.398C469.983 232.821 468.164 231.441 466.205 230.285C464.803 228.049 462.934 226.142 460.726 224.696C460.616 224.623 460.53 224.794 460.628 224.867C462.383 226.278 463.939 227.92 465.253 229.748C463.068 228.559 460.8 227.527 458.468 226.661C457.63 225.11 456.358 223.838 454.807 223C454.807 223 454.734 223 454.807 223C456.083 223.968 457.195 225.134 458.102 226.453C456.723 225.941 455.32 225.465 453.928 225.001C453.806 225.001 453.758 225.148 453.928 225.197C456.369 226.161 458.944 227.186 461.397 228.357C458.401 228.833 455.35 228.833 452.354 228.357C452.269 228.357 452.232 228.467 452.354 228.491C455.479 229.414 458.797 229.461 461.946 228.626C463.511 229.387 465.031 230.238 466.498 231.176C465.269 231.079 464.033 231.182 462.837 231.481C460.716 231.974 458.546 232.22 456.369 232.213C456.284 232.213 456.259 232.348 456.369 232.36C460.128 233.007 463.691 231.298 467.352 231.737C471.479 234.511 474.77 238.359 476.87 242.867C478.432 246.052 479.311 249.42 480.531 252.715C480.543 252.743 480.565 252.766 480.592 252.779C480.62 252.791 480.652 252.794 480.681 252.784C480.71 252.775 480.735 252.755 480.75 252.729C480.765 252.702 480.77 252.671 480.763 252.641C479.567 246.174 476.346 239.023 471.623 234.398Z" fill="#DBDBDB"/>
<path d="M460.311 225.502C460.065 225.044 459.743 224.631 459.359 224.281C459.039 223.943 458.663 223.663 458.248 223.452V223.513C458.553 223.867 458.981 224.123 459.31 224.452C459.639 224.782 459.92 225.185 460.262 225.514C460.274 225.624 460.335 225.563 460.311 225.502Z" fill="#DBDBDB"/>
<path d="M454.136 227.515C453.575 227.381 452.989 227.393 452.427 227.271C451.865 227.14 451.311 226.977 450.768 226.783C450.752 226.783 450.736 226.79 450.725 226.801C450.713 226.813 450.707 226.828 450.707 226.844C450.707 226.86 450.713 226.876 450.725 226.887C450.736 226.899 450.752 226.905 450.768 226.905C451.79 227.534 452.99 227.813 454.185 227.698C454.204 227.688 454.219 227.671 454.227 227.651C454.236 227.631 454.237 227.609 454.232 227.588C454.226 227.567 454.214 227.548 454.196 227.535C454.179 227.522 454.158 227.515 454.136 227.515Z" fill="#DBDBDB"/>
<path d="M489.452 241.269L488.83 248.212L486.755 271.654H468.402L465.814 248.212L465.046 241.269H489.452Z" fill="#DBDBDB"/>
<path d="M489.452 241.269L488.83 248.212H465.814L465.046 241.269H489.452Z" fill="#C7C7C7"/>
<path d="M491.258 239.377H463.227V245.015H491.258V239.377Z" fill="#EBEBEB"/>
<path d="M469.451 457.41C500.682 457.41 526 451.455 526 444.109C526 436.762 500.682 430.807 469.451 430.807C438.219 430.807 412.901 436.762 412.901 444.109C412.901 451.455 438.219 457.41 469.451 457.41Z" fill="#EBEBEB"/>
<path d="M61.1457 474.97C92.3771 474.97 117.695 469.015 117.695 461.669C117.695 454.322 92.3771 448.367 61.1457 448.367C29.9144 448.367 4.59644 454.322 4.59644 461.669C4.59644 469.015 29.9144 474.97 61.1457 474.97Z" fill="#EBEBEB"/>
<path d="M92.0442 457.886C123.276 457.886 148.593 451.93 148.593 444.584C148.593 437.238 123.276 431.283 92.0442 431.283C60.8129 431.283 35.4949 437.238 35.4949 444.584C35.4949 451.93 60.8129 457.886 92.0442 457.886Z" fill="#EBEBEB"/>
<path d="M287.746 490.676C396.078 490.676 483.899 479.634 483.899 466.014C483.899 452.393 396.078 441.351 287.746 441.351C179.414 441.351 91.5928 452.393 91.5928 466.014C91.5928 479.634 179.414 490.676 287.746 490.676Z" fill="#EBEBEB"/>
<path d="M16.4707 312.13C31.4806 326.774 34.0066 349.557 30.8338 369.485C30.7606 369.937 30.0528 369.815 30.0528 369.388C30.0528 364.848 30.1993 360.357 30.1748 355.879C30.1016 355.671 30.0284 355.488 29.943 355.281C26.0258 352.425 22.4259 349.179 20.1805 344.798C17.7399 339.917 16.6904 334.316 14.7745 329.166C14.5914 328.666 15.1162 328.812 15.4701 329.068C24.598 335.805 27.5024 343.053 30.1138 352.73C30.0764 347.665 29.5575 342.614 28.564 337.647C26.5871 328.458 22.6821 319.342 16.0924 312.521C15.824 312.265 16.2145 311.813 16.4707 312.13Z" fill="#263238"/>
<path d="M13.6518 313.84C11.0648 313.925 9.45395 318.062 7.44043 319.258C7.22896 319.429 6.98408 319.554 6.72148 319.625C6.45888 319.696 6.18436 319.711 5.91552 319.67C5.64667 319.628 5.38944 319.531 5.1603 319.385C4.93116 319.238 4.73517 319.045 4.5849 318.819C2.59579 316.024 5.32929 312.595 7.90415 310.679C6.06148 311.436 4.53609 312.766 2.54698 313.12C2.29236 313.211 2.02078 313.245 1.75152 313.22C1.48225 313.194 1.22191 313.11 0.988959 312.972C0.756011 312.835 0.556174 312.648 0.403638 312.424C0.251101 312.201 0.149604 311.947 0.106352 311.68C-0.772274 307.885 3.98695 306.201 7.24518 306.115C5.67098 305.017 1.14362 302.027 3.58424 300.55C6.02487 299.074 11.3576 303.357 13.0905 304.761C15.6409 306.835 18.6917 309.935 18.8015 313.169C18.948 316.964 15.6409 314.633 13.6518 313.84Z" fill="#A4D985"/>
<path opacity="0.1" d="M13.6518 313.84C11.0648 313.925 9.45395 318.062 7.44043 319.258C7.22896 319.429 6.98408 319.554 6.72148 319.625C6.45888 319.696 6.18436 319.711 5.91552 319.67C5.64667 319.628 5.38944 319.531 5.1603 319.385C4.93116 319.238 4.73517 319.045 4.5849 318.819C2.59579 316.024 5.32929 312.595 7.90415 310.679C6.06148 311.436 4.53609 312.766 2.54698 313.12C2.29236 313.211 2.02078 313.245 1.75152 313.22C1.48225 313.194 1.22191 313.11 0.988959 312.972C0.756011 312.835 0.556174 312.648 0.403638 312.424C0.251101 312.201 0.149604 311.947 0.106352 311.68C-0.772274 307.885 3.98695 306.201 7.24518 306.115C5.67098 305.017 1.14362 302.027 3.58424 300.55C6.02487 299.074 11.3576 303.357 13.0905 304.761C15.6409 306.835 18.6917 309.935 18.8015 313.169C18.948 316.964 15.6409 314.633 13.6518 313.84Z" fill="black"/>
<path d="M14.3961 314.474C11.1012 312.973 4.75562 315.132 4.21868 313.888C3.1204 311.35 8.1847 309.604 10.9304 309.263C8.40435 308.579 3.60853 307.493 3.73056 305.065C3.9136 302.1 11.1257 304.65 14.7866 307.445C19.3872 310.983 19.3628 314.388 18.6062 315.071C17.5811 316.011 14.9452 314.73 14.3961 314.474Z" fill="#A4D985"/>
<path d="M50.6518 310.678C35.0928 324.785 31.7125 347.41 34.1166 367.423C34.1166 367.887 34.8854 367.789 34.8976 367.362C35.0806 362.835 35.105 358.332 35.2881 353.865C35.3857 353.658 35.4589 353.475 35.5443 353.267C39.5714 350.57 43.2933 347.495 45.6851 343.175C48.382 338.294 49.5779 332.815 51.6891 327.751C51.8843 327.262 51.3596 327.384 51.0057 327.629C41.6215 334.011 38.4365 341.137 35.4589 350.717C35.6964 345.656 36.4197 340.63 37.6189 335.707C39.9375 326.603 44.1841 317.646 51.0423 311.081C51.0925 311.029 51.1204 310.959 51.1201 310.886C51.1199 310.814 51.0915 310.744 51.041 310.692C50.9904 310.64 50.9216 310.609 50.8491 310.607C50.7765 310.604 50.7058 310.63 50.6518 310.678Z" fill="#263238"/>
<path d="M53.4096 312.497C55.9845 312.68 57.4489 316.866 59.4136 318.147C59.6182 318.327 59.8585 318.461 60.1187 318.542C60.3789 318.623 60.6531 318.648 60.9237 318.616C61.1942 318.584 61.4549 318.495 61.6888 318.355C61.9227 318.215 62.1246 318.028 62.2813 317.805C64.3802 315.096 61.7688 311.569 59.2793 309.544C61.0854 310.373 62.562 311.765 64.5267 312.216C64.7755 312.303 65.04 312.337 65.3028 312.315C65.5655 312.293 65.8206 312.215 66.0512 312.087C66.2818 311.959 66.4826 311.784 66.6405 311.572C66.7984 311.361 66.9098 311.119 66.9673 310.862C67.9924 307.103 63.3064 305.236 60.0359 305.029C61.6589 303.991 66.3083 301.172 63.9531 299.61C61.5979 298.048 56.0821 302.112 54.3004 303.454C51.6646 305.431 48.504 308.409 48.2721 311.63C48.0036 315.474 51.3961 313.205 53.4096 312.497Z" fill="#A4D985"/>
<path opacity="0.1" d="M53.4096 312.497C55.9845 312.68 57.4489 316.866 59.4136 318.147C59.6182 318.327 59.8585 318.461 60.1187 318.542C60.3789 318.623 60.6531 318.648 60.9237 318.616C61.1942 318.584 61.4549 318.495 61.6888 318.355C61.9227 318.215 62.1246 318.028 62.2813 317.805C64.3802 315.096 61.7688 311.569 59.2793 309.544C61.0854 310.373 62.562 311.765 64.5267 312.216C64.7755 312.303 65.04 312.337 65.3028 312.315C65.5655 312.293 65.8206 312.215 66.0512 312.087C66.2818 311.959 66.4826 311.784 66.6405 311.572C66.7984 311.361 66.9098 311.119 66.9673 310.862C67.9924 307.103 63.3064 305.236 60.0359 305.029C61.6589 303.991 66.3083 301.172 63.9531 299.61C61.5979 298.048 56.0821 302.112 54.3004 303.454C51.6646 305.431 48.504 308.409 48.2721 311.63C48.0036 315.474 51.3961 313.205 53.4096 312.497Z" fill="black"/>
<path d="M52.6406 313.095C55.9965 311.728 62.2445 314.12 62.8302 312.9C64.0505 310.398 59.0229 308.458 56.3016 308.019C58.852 307.433 63.7089 306.53 63.6234 304.101C63.5502 301.124 56.2405 303.406 52.482 306.066C47.7472 309.422 47.6007 312.827 48.3817 313.535C49.419 314.511 52.0793 313.327 52.6406 313.095Z" fill="#A4D985"/>
<path d="M34.7511 347.947C33.6776 355.497 32.046 362.957 29.8699 370.266C29.8407 370.41 29.7556 370.537 29.6331 370.618C29.5107 370.699 29.361 370.729 29.217 370.7C29.073 370.67 28.9464 370.585 28.8652 370.463C28.7839 370.34 28.7547 370.191 28.7838 370.047C29.7966 363.164 31.6637 356.416 32.6888 349.545C33.8079 342.588 34.2167 335.535 33.9091 328.495C33.2501 316.902 30.1017 304.577 22.5358 295.547C22.3771 295.327 22.731 295.022 22.9019 295.229C38.0338 312.875 35.6297 334.523 35.6175 336.464C37.7531 329.142 39.9618 320.77 48.0769 313.339C48.4186 313.009 48.6993 313.168 48.6383 313.705C47.1861 327.262 43.4153 334.34 35.5565 341.589C35.3613 343.7 35.0928 345.836 34.7511 347.947Z" fill="#263238"/>
<path d="M22.4624 297.536C19.7411 296.316 15.9826 299.794 13.2857 300.038C12.9806 300.108 12.664 300.114 12.3565 300.055C12.049 299.995 11.7575 299.872 11.5009 299.692C11.2442 299.513 11.0282 299.281 10.8669 299.013C10.7056 298.744 10.6025 298.445 10.5644 298.134C9.89321 294.241 14.4572 292.032 18.0937 291.361C15.7995 291.215 13.5542 291.825 11.3088 291.227C11.0028 291.186 10.7091 291.08 10.4478 290.916C10.1866 290.751 9.96379 290.533 9.79471 290.274C9.62562 290.016 9.51419 289.724 9.46801 289.419C9.42184 289.114 9.442 288.802 9.52712 288.506C10.5278 284.125 16.3121 284.772 19.7411 286.334C18.6551 284.393 15.4578 279.012 18.6917 278.694C21.9255 278.377 25.3424 285.504 26.4407 287.847C28.0393 291.276 29.6501 296.023 28.1369 299.44C26.3552 303.442 24.0977 299.366 22.4624 297.536Z" fill="#A4D985"/>
<path opacity="0.1" d="M22.4624 297.536C19.7411 296.316 15.9826 299.794 13.2857 300.038C12.9806 300.108 12.664 300.114 12.3565 300.055C12.049 299.995 11.7575 299.872 11.5009 299.692C11.2442 299.513 11.0282 299.281 10.8669 299.013C10.7056 298.744 10.6025 298.445 10.5644 298.134C9.89321 294.241 14.4572 292.032 18.0937 291.361C15.7995 291.215 13.5542 291.825 11.3088 291.227C11.0028 291.186 10.7091 291.08 10.4478 290.916C10.1866 290.751 9.96379 290.533 9.79471 290.274C9.62562 290.016 9.51419 289.724 9.46801 289.419C9.42184 289.114 9.442 288.802 9.52712 288.506C10.5278 284.125 16.3121 284.772 19.7411 286.334C18.6551 284.393 15.4578 279.012 18.6917 278.694C21.9255 278.377 25.3424 285.504 26.4407 287.847C28.0393 291.276 29.6501 296.023 28.1369 299.44C26.3552 303.442 24.0977 299.366 22.4624 297.536Z" fill="black"/>
<path d="M22.8898 298.573C20.2173 295.351 12.5416 294.399 12.6148 292.837C12.7612 289.652 18.8994 290.397 21.9014 291.41C19.6316 289.433 15.1774 285.882 16.5564 283.429C18.2282 280.451 24.4396 286.736 26.8314 291.483C29.8212 297.462 28.0517 300.977 26.9413 301.306C25.3915 301.758 23.3291 299.11 22.8898 298.573Z" fill="#A4D985"/>
<path d="M44.7089 352.084L51.384 403.105H10.7476C11.5896 398.578 19.1555 352.023 19.1555 352.023L44.7089 352.084Z" fill="#A4D985"/>
<path d="M1.33862 403.045L66.1128 402.74L130.887 402.642L260.423 402.435L389.96 402.642L454.734 402.74L519.508 403.045L454.734 403.338L389.96 403.447L260.423 403.655L130.887 403.447L66.1128 403.338L1.33862 403.045Z" fill="#263238"/>
<path d="M70.6037 414.149H56.741V445.804H70.6037V414.149Z" fill="#455A64"/>
<path d="M56.741 417.554H50.0781V442.412H56.741V417.554Z" fill="#455A64"/>
<path d="M56.7531 417.554H53.4216V442.412H56.7531V417.554Z" fill="#37474F"/>
<path d="M111.643 445.817H125.506V414.162H111.643V445.817Z" fill="#455A64"/>
<path d="M125.506 442.412H132.169V417.554H125.506V442.412Z" fill="#455A64"/>
<path d="M128.837 417.542H125.506V442.4H128.837V417.542Z" fill="#37474F"/>
<path d="M111.643 423.973H70.6038V435.993H111.643V423.973Z" fill="#37474F"/>
<path d="M37.4965 431.539H23.6338V463.194H37.4965V431.539Z" fill="#455A64"/>
<path d="M23.6339 434.943H16.9709V459.801H23.6339V434.943Z" fill="#455A64"/>
<path d="M23.6335 434.943H20.302V459.801H23.6335V434.943Z" fill="#37474F"/>
<path d="M78.5235 463.193H92.3862V431.538H78.5235V463.193Z" fill="#455A64"/>
<path d="M92.3984 459.79H99.0613V434.932H92.3984V459.79Z" fill="#455A64"/>
<path d="M95.7177 434.932H92.3862V459.789H95.7177V434.932Z" fill="#37474F"/>
<path d="M78.5235 441.362H37.4844V453.382H78.5235V441.362Z" fill="#37474F"/>
<path d="M223.387 469.003C269.782 469.003 307.393 434.845 307.393 392.709C307.393 350.573 269.782 316.415 223.387 316.415C176.992 316.415 139.381 350.573 139.381 392.709C139.381 434.845 176.992 469.003 223.387 469.003Z" fill="#A4D985"/>
<path d="M307.393 392.709C307.393 434.846 269.783 469.015 223.387 469.015C192.574 469.015 165.642 453.944 151.035 431.49C143.451 419.977 139.4 406.496 139.381 392.709C139.381 350.571 176.991 316.415 223.387 316.415C236.072 316.38 248.623 319.007 260.228 324.127C288.161 336.513 307.393 362.567 307.393 392.709Z" fill="#A4D985"/>
<path d="M254.884 321.968C244.012 324.661 232.855 326.029 221.655 326.043C214.112 326.052 206.583 325.407 199.152 324.115C196.211 323.591 193.429 322.993 190.842 322.358C191.574 322.077 192.306 321.797 193.051 321.54C212.728 325.968 233.155 325.86 252.785 321.223C253.505 321.455 254.2 321.711 254.884 321.968ZM269.381 328.899C226.963 344.116 192.636 335.269 176.881 329.204L175.551 330.022C183.169 333.041 191.078 335.266 199.152 336.66C206.582 337.963 214.112 338.612 221.655 338.6C238.403 338.544 255.01 335.533 270.711 329.704C270.272 329.387 269.833 329.119 269.381 328.899ZM283.122 339.101C226.548 360.651 181.177 346.96 163.238 339.491C162.909 339.784 162.592 340.089 162.274 340.394C181.137 348.11 201.337 352.025 221.716 351.914C243.073 351.837 264.232 347.807 284.123 340.028L283.122 339.101ZM173.709 454.274C174.929 455.116 176.247 455.934 177.565 456.715C191.917 460.796 206.77 462.85 221.691 462.816C238.542 462.789 255.296 460.264 271.407 455.323C272.627 454.555 273.848 453.749 275.068 452.883C230.978 467.38 194.527 460.912 173.709 454.237V454.274ZM293.787 351.096C250.588 367.754 213.418 366.521 189.219 362.274C176.648 360.118 164.365 356.532 152.609 351.585L151.914 352.597C163.789 357.64 176.21 361.289 188.926 363.47C199.483 365.313 210.181 366.232 220.898 366.216C246.1 366.121 271.062 361.329 294.507 352.085L293.787 351.096ZM189.219 445.817C177.12 443.731 165.285 440.327 153.927 435.664C154.403 436.311 154.891 436.945 155.404 437.58C166.236 441.855 177.476 445.011 188.95 447.001C199.508 448.843 210.206 449.762 220.923 449.747C245.27 449.651 269.4 445.162 292.152 436.494C292.628 435.896 293.08 435.274 293.519 434.676C250.454 451.248 213.369 450.015 189.219 445.781V445.817ZM301.732 365.154C254.469 384.472 213.698 383.252 187.449 378.639C172.746 376.134 158.433 371.72 144.873 365.508C144.714 365.887 144.555 366.265 144.421 366.643C158.028 372.857 172.386 377.275 187.132 379.786C198.233 381.727 209.482 382.695 220.752 382.678C248.696 382.56 276.347 376.976 302.147 366.241C302.049 365.862 301.915 365.508 301.732 365.118V365.154ZM306.1 379.298C256.983 400.531 214.504 399.36 187.449 394.625C161.737 390.11 144.738 381.604 140.65 379.42L140.431 380.64C145.165 383.142 162.055 391.355 187.181 395.772C198.282 397.713 209.531 398.681 220.8 398.664C250.249 398.527 279.356 392.347 306.32 380.506L306.1 379.298ZM186.51 413.223C162.103 408.939 145.336 401.154 139.625 398.237C139.625 398.713 139.698 399.189 139.759 399.653C154.476 406.75 170.126 411.722 186.241 414.418C197.638 416.399 209.184 417.391 220.752 417.384C250.456 417.252 279.828 411.118 307.101 399.348C307.101 398.896 307.186 398.445 307.223 397.981C257.239 419.202 214.052 417.982 186.485 413.186L186.51 413.223ZM187.474 430.307C172.273 427.754 157.492 423.135 143.542 416.578C143.738 417.128 143.945 417.665 144.165 418.214C157.872 424.476 172.343 428.911 187.205 431.405C198.306 433.347 209.556 434.314 220.825 434.297C248.994 434.178 276.864 428.509 302.842 417.616C303.037 417.091 303.233 416.591 303.416 416.066C255.421 436.079 214.052 434.871 187.449 430.185L187.474 430.307Z" fill="white"/>
<path opacity="0.1" d="M307.394 392.709C307.394 434.846 269.784 469.015 223.387 469.015C192.574 469.015 165.642 453.944 151.035 431.491C166.826 444.206 192.965 458.496 227.805 454.677C270.26 449.991 318.706 388.975 260.229 324.103C288.162 336.514 307.394 362.567 307.394 392.709Z" fill="black"/>
<path d="M478.908 357.856H469.951V368.155H478.908V357.856Z" fill="#A6A6A6"/>
<path d="M481.74 364.824H467.133V376.588H481.74V364.824Z" fill="#C7C7C7"/>
<path d="M491.795 391.134V444.987H457.065V391.134C457.065 380.469 463.764 372.244 474.43 372.244C485.095 372.244 491.795 380.493 491.795 391.134Z" fill="#A4D985"/>
<path d="M472.551 376.295C472.551 376.563 472.471 376.826 472.322 377.049C472.172 377.272 471.96 377.445 471.712 377.548C471.463 377.65 471.19 377.676 470.927 377.623C470.664 377.569 470.423 377.439 470.234 377.248C470.045 377.058 469.917 376.815 469.866 376.552C469.815 376.288 469.844 376.015 469.948 375.768C470.053 375.521 470.228 375.31 470.452 375.163C470.677 375.015 470.94 374.938 471.208 374.94C471.565 374.944 471.907 375.088 472.158 375.341C472.41 375.595 472.551 375.938 472.551 376.295ZM488.415 387.119C488.147 387.119 487.885 387.199 487.662 387.347C487.439 387.496 487.266 387.708 487.163 387.955C487.061 388.203 487.034 388.475 487.086 388.738C487.138 389.001 487.267 389.242 487.457 389.432C487.646 389.621 487.888 389.75 488.15 389.802C488.413 389.855 488.686 389.828 488.933 389.725C489.181 389.623 489.392 389.449 489.541 389.226C489.69 389.004 489.769 388.742 489.769 388.474C489.769 388.121 489.632 387.782 489.386 387.529C489.139 387.276 488.804 387.129 488.451 387.119H488.415ZM473.039 388.474C472.77 388.474 472.508 388.554 472.285 388.703C472.062 388.852 471.888 389.065 471.786 389.313C471.684 389.561 471.658 389.834 471.711 390.097C471.764 390.36 471.895 390.601 472.085 390.79C472.276 390.979 472.519 391.107 472.782 391.158C473.046 391.209 473.318 391.181 473.566 391.076C473.813 390.972 474.024 390.796 474.171 390.572C474.318 390.348 474.396 390.085 474.393 389.816C474.393 389.464 474.255 389.126 474.009 388.875C473.762 388.624 473.427 388.48 473.075 388.474H473.039ZM474.393 401.397C474.125 401.397 473.864 401.476 473.641 401.625C473.418 401.774 473.244 401.986 473.142 402.233C473.039 402.481 473.013 402.753 473.065 403.016C473.117 403.278 473.246 403.52 473.436 403.709C473.625 403.899 473.866 404.028 474.129 404.08C474.392 404.132 474.664 404.105 474.912 404.003C475.159 403.9 475.371 403.727 475.52 403.504C475.668 403.281 475.748 403.019 475.748 402.751C475.748 402.398 475.61 402.059 475.364 401.806C475.118 401.553 474.783 401.406 474.43 401.397H474.393ZM460.409 414.918C460.14 414.918 459.878 414.998 459.655 415.147C459.432 415.296 459.258 415.509 459.156 415.757C459.054 416.005 459.028 416.278 459.081 416.541C459.134 416.804 459.264 417.046 459.455 417.235C459.646 417.424 459.888 417.552 460.152 417.602C460.415 417.653 460.688 417.625 460.935 417.52C461.183 417.416 461.393 417.24 461.541 417.016C461.688 416.792 461.766 416.529 461.763 416.26C461.76 415.909 461.621 415.573 461.375 415.323C461.129 415.073 460.796 414.927 460.445 414.918H460.409ZM459.054 402.886C458.786 402.886 458.524 402.965 458.301 403.114C458.079 403.263 457.905 403.474 457.803 403.722C457.7 403.969 457.673 404.242 457.725 404.504C457.778 404.767 457.907 405.009 458.096 405.198C458.286 405.387 458.527 405.516 458.79 405.569C459.052 405.621 459.325 405.594 459.572 405.492C459.82 405.389 460.031 405.215 460.18 404.993C460.329 404.77 460.409 404.508 460.409 404.24C460.409 403.887 460.271 403.548 460.025 403.295C459.779 403.042 459.443 402.895 459.091 402.886H459.054ZM459.396 390.146C459.128 390.146 458.866 390.225 458.643 390.374C458.42 390.523 458.247 390.734 458.144 390.982C458.042 391.229 458.015 391.502 458.067 391.764C458.119 392.027 458.248 392.269 458.438 392.458C458.627 392.647 458.869 392.776 459.131 392.829C459.394 392.881 459.667 392.854 459.914 392.752C460.162 392.649 460.373 392.475 460.522 392.253C460.671 392.03 460.75 391.768 460.75 391.5C460.75 391.147 460.613 390.808 460.367 390.555C460.12 390.302 459.785 390.155 459.432 390.146H459.396ZM465.265 382.348C464.997 382.348 464.736 382.427 464.513 382.576C464.29 382.725 464.116 382.936 464.014 383.184C463.911 383.431 463.885 383.704 463.937 383.967C463.989 384.229 464.118 384.471 464.308 384.66C464.497 384.85 464.738 384.979 465.001 385.031C465.264 385.083 465.536 385.056 465.784 384.954C466.031 384.851 466.243 384.678 466.392 384.455C466.54 384.232 466.62 383.97 466.62 383.702C466.62 383.349 466.482 383.01 466.236 382.757C465.99 382.504 465.655 382.357 465.302 382.348H465.265ZM466.62 395.771C466.352 395.771 466.09 395.851 465.867 395.999C465.645 396.148 465.471 396.36 465.368 396.607C465.266 396.855 465.239 397.127 465.291 397.39C465.344 397.653 465.473 397.894 465.662 398.084C465.852 398.273 466.093 398.402 466.356 398.454C466.618 398.507 466.891 398.48 467.138 398.377C467.386 398.275 467.597 398.101 467.746 397.878C467.895 397.656 467.974 397.394 467.974 397.126C467.978 396.771 467.842 396.428 467.595 396.173C467.349 395.917 467.012 395.769 466.657 395.759L466.62 395.771ZM479.86 381.127C479.592 381.127 479.331 381.207 479.108 381.356C478.885 381.505 478.711 381.716 478.609 381.964C478.506 382.211 478.48 382.484 478.532 382.746C478.584 383.009 478.713 383.25 478.903 383.44C479.092 383.629 479.333 383.758 479.596 383.811C479.859 383.863 480.131 383.836 480.379 383.733C480.626 383.631 480.838 383.457 480.987 383.235C481.135 383.012 481.215 382.75 481.215 382.482C481.206 382.135 481.064 381.806 480.819 381.56C480.573 381.315 480.244 381.173 479.897 381.164L479.86 381.127ZM481.496 394.27C481.227 394.27 480.965 394.35 480.742 394.499C480.519 394.649 480.345 394.861 480.243 395.109C480.141 395.358 480.115 395.63 480.168 395.894C480.221 396.157 480.351 396.398 480.542 396.587C480.733 396.776 480.975 396.904 481.239 396.955C481.502 397.006 481.775 396.977 482.022 396.873C482.27 396.768 482.48 396.593 482.628 396.368C482.775 396.144 482.853 395.881 482.85 395.613C482.838 395.268 482.695 394.941 482.45 394.699C482.205 394.456 481.877 394.316 481.532 394.307L481.496 394.27ZM467.34 408.316C467.072 408.316 466.81 408.395 466.587 408.544C466.365 408.693 466.191 408.905 466.088 409.152C465.986 409.4 465.959 409.672 466.011 409.935C466.064 410.198 466.193 410.439 466.382 410.628C466.572 410.818 466.813 410.947 467.076 410.999C467.338 411.051 467.611 411.025 467.858 410.922C468.106 410.82 468.317 410.646 468.466 410.423C468.615 410.2 468.694 409.938 468.694 409.671C468.685 409.324 468.543 408.994 468.298 408.749C468.053 408.504 467.723 408.362 467.377 408.353L467.34 408.316ZM481.984 419.006C481.715 419.006 481.453 419.086 481.23 419.235C481.007 419.385 480.833 419.597 480.731 419.845C480.629 420.093 480.603 420.366 480.656 420.629C480.709 420.892 480.84 421.134 481.03 421.323C481.221 421.512 481.463 421.64 481.727 421.691C481.991 421.741 482.263 421.713 482.511 421.608C482.758 421.504 482.969 421.329 483.116 421.104C483.263 420.88 483.341 420.617 483.338 420.348C483.326 419.993 483.174 419.658 482.916 419.413C482.658 419.169 482.314 419.036 481.959 419.043L481.984 419.006ZM481.776 429.183C481.508 429.183 481.245 429.263 481.022 429.413C480.799 429.562 480.626 429.774 480.524 430.022C480.422 430.271 480.395 430.544 480.449 430.807C480.502 431.07 480.632 431.311 480.823 431.5C481.013 431.689 481.256 431.817 481.52 431.868C481.783 431.919 482.056 431.89 482.303 431.786C482.55 431.681 482.761 431.506 482.908 431.282C483.056 431.057 483.133 430.794 483.131 430.526C483.118 430.171 482.966 429.835 482.708 429.591C482.451 429.347 482.107 429.213 481.752 429.22L481.776 429.183ZM468.219 419.238C467.951 419.238 467.689 419.317 467.466 419.466C467.243 419.615 467.07 419.826 466.967 420.074C466.865 420.322 466.838 420.594 466.89 420.857C466.942 421.119 467.071 421.361 467.261 421.55C467.45 421.74 467.692 421.869 467.954 421.921C468.217 421.973 468.489 421.946 468.737 421.844C468.984 421.741 469.196 421.568 469.345 421.345C469.494 421.122 469.573 420.86 469.573 420.592C469.564 420.235 469.413 419.896 469.155 419.65C468.897 419.403 468.551 419.268 468.194 419.274L468.219 419.238ZM461.629 435.102C461.36 435.099 461.097 435.177 460.873 435.324C460.649 435.472 460.473 435.682 460.369 435.93C460.264 436.177 460.236 436.45 460.287 436.713C460.338 436.977 460.466 437.219 460.655 437.41C460.843 437.601 461.085 437.731 461.348 437.784C461.611 437.837 461.884 437.811 462.132 437.709C462.38 437.607 462.593 437.433 462.742 437.21C462.891 436.987 462.971 436.725 462.971 436.456C462.968 436.28 462.93 436.106 462.86 435.945C462.789 435.783 462.688 435.637 462.561 435.514C462.434 435.392 462.284 435.296 462.12 435.231C461.956 435.167 461.781 435.135 461.604 435.139L461.629 435.102ZM475.223 413.136C474.955 413.134 474.692 413.211 474.467 413.359C474.243 413.506 474.067 413.717 473.963 413.964C473.859 414.211 473.83 414.484 473.881 414.748C473.932 415.011 474.06 415.254 474.249 415.444C474.438 415.635 474.679 415.765 474.942 415.818C475.205 415.872 475.478 415.846 475.726 415.743C475.975 415.641 476.187 415.468 476.336 415.245C476.486 415.022 476.565 414.759 476.565 414.491C476.553 414.138 476.403 413.804 476.148 413.56C475.892 413.316 475.552 413.182 475.199 413.185L475.223 413.136ZM475.382 424.119C475.114 424.119 474.852 424.199 474.629 424.347C474.406 424.496 474.233 424.708 474.13 424.955C474.028 425.203 474.001 425.475 474.053 425.738C474.106 426.001 474.235 426.242 474.424 426.431C474.613 426.621 474.855 426.75 475.118 426.802C475.38 426.854 475.653 426.828 475.9 426.725C476.148 426.623 476.359 426.449 476.508 426.226C476.657 426.003 476.736 425.742 476.736 425.474C476.724 425.12 476.572 424.785 476.313 424.543C476.055 424.301 475.711 424.17 475.357 424.18L475.382 424.119ZM475.382 435.102C475.114 435.102 474.852 435.181 474.629 435.33C474.406 435.479 474.233 435.691 474.13 435.938C474.028 436.186 474.001 436.458 474.053 436.721C474.106 436.983 474.235 437.225 474.424 437.414C474.613 437.604 474.855 437.733 475.118 437.785C475.38 437.837 475.653 437.81 475.9 437.708C476.148 437.605 476.359 437.432 476.508 437.209C476.657 436.986 476.736 436.724 476.736 436.456C476.733 436.279 476.695 436.104 476.624 435.942C476.553 435.779 476.45 435.633 476.322 435.51C476.193 435.387 476.042 435.292 475.877 435.228C475.711 435.164 475.535 435.134 475.357 435.139L475.382 435.102ZM482.264 440.166C481.996 440.166 481.735 440.246 481.512 440.394C481.289 440.543 481.115 440.755 481.013 441.002C480.91 441.25 480.884 441.522 480.936 441.785C480.988 442.048 481.117 442.289 481.307 442.479C481.496 442.668 481.737 442.797 482 442.849C482.263 442.902 482.535 442.875 482.783 442.772C483.03 442.67 483.242 442.496 483.391 442.273C483.539 442.051 483.619 441.789 483.619 441.521C483.609 441.164 483.459 440.825 483.201 440.578C482.942 440.331 482.597 440.196 482.24 440.203L482.264 440.166ZM461.519 424.79C461.251 424.79 460.988 424.87 460.765 425.019C460.542 425.169 460.369 425.381 460.266 425.629C460.164 425.878 460.138 426.151 460.191 426.414C460.245 426.677 460.375 426.918 460.566 427.107C460.756 427.296 460.999 427.424 461.262 427.475C461.526 427.526 461.799 427.497 462.046 427.393C462.293 427.288 462.504 427.113 462.651 426.888C462.799 426.664 462.876 426.401 462.874 426.133C462.869 425.951 462.828 425.772 462.752 425.607C462.676 425.442 462.568 425.293 462.433 425.171C462.299 425.049 462.141 424.956 461.969 424.896C461.797 424.837 461.615 424.814 461.434 424.827L461.519 424.79ZM468.28 429.672C468.011 429.672 467.749 429.751 467.526 429.901C467.303 430.05 467.129 430.262 467.027 430.511C466.925 430.759 466.899 431.032 466.952 431.295C467.005 431.558 467.135 431.799 467.326 431.988C467.517 432.177 467.759 432.305 468.023 432.356C468.286 432.407 468.559 432.378 468.806 432.274C469.054 432.17 469.264 431.994 469.412 431.77C469.559 431.545 469.637 431.282 469.634 431.014C469.63 430.832 469.588 430.652 469.513 430.486C469.437 430.321 469.329 430.172 469.195 430.049C469.06 429.925 468.902 429.831 468.73 429.77C468.558 429.71 468.376 429.684 468.194 429.696L468.28 429.672ZM488.769 435.114C488.501 435.114 488.239 435.194 488.016 435.342C487.793 435.491 487.62 435.703 487.517 435.95C487.415 436.198 487.388 436.47 487.44 436.733C487.492 436.996 487.621 437.237 487.811 437.426C488 437.616 488.242 437.745 488.504 437.797C488.767 437.849 489.039 437.823 489.287 437.72C489.534 437.618 489.746 437.444 489.895 437.221C490.044 436.998 490.123 436.737 490.123 436.469C490.12 436.285 490.08 436.105 490.005 435.937C489.931 435.77 489.823 435.62 489.688 435.495C489.553 435.371 489.395 435.275 489.222 435.214C489.049 435.153 488.866 435.127 488.683 435.139L488.769 435.114ZM468.585 440.288C468.317 440.288 468.055 440.368 467.832 440.517C467.609 440.665 467.436 440.877 467.333 441.124C467.231 441.372 467.204 441.644 467.256 441.907C467.308 442.17 467.437 442.411 467.627 442.601C467.816 442.79 468.058 442.919 468.32 442.971C468.583 443.024 468.856 442.997 469.103 442.894C469.351 442.792 469.562 442.618 469.711 442.395C469.86 442.173 469.939 441.911 469.939 441.643C469.936 441.46 469.896 441.279 469.821 441.112C469.747 440.944 469.639 440.794 469.504 440.669C469.369 440.545 469.211 440.449 469.038 440.388C468.865 440.327 468.682 440.301 468.499 440.313L468.585 440.288ZM488.976 413.539C488.708 413.539 488.446 413.618 488.224 413.767C488.001 413.916 487.827 414.128 487.725 414.375C487.622 414.623 487.595 414.895 487.648 415.158C487.7 415.421 487.829 415.662 488.018 415.851C488.208 416.041 488.449 416.17 488.712 416.222C488.975 416.274 489.247 416.247 489.494 416.145C489.742 416.042 489.953 415.869 490.102 415.646C490.251 415.423 490.331 415.161 490.331 414.894C490.328 414.71 490.288 414.53 490.213 414.362C490.138 414.195 490.03 414.045 489.895 413.92C489.761 413.796 489.602 413.7 489.43 413.639C489.257 413.577 489.074 413.552 488.891 413.563L488.976 413.539ZM488.976 424.156C488.708 424.156 488.446 424.235 488.224 424.384C488.001 424.533 487.827 424.744 487.725 424.992C487.622 425.239 487.595 425.512 487.648 425.774C487.7 426.037 487.829 426.279 488.018 426.468C488.208 426.658 488.449 426.786 488.712 426.839C488.975 426.891 489.247 426.864 489.494 426.762C489.742 426.659 489.953 426.486 490.102 426.263C490.251 426.04 490.331 425.778 490.331 425.51C490.328 425.327 490.288 425.146 490.213 424.979C490.138 424.812 490.03 424.661 489.895 424.537C489.761 424.413 489.602 424.317 489.43 424.256C489.257 424.194 489.074 424.169 488.891 424.18L488.976 424.156ZM482.325 407.926C482.057 407.926 481.796 408.005 481.573 408.154C481.35 408.303 481.176 408.514 481.074 408.762C480.971 409.009 480.945 409.282 480.997 409.544C481.049 409.807 481.178 410.048 481.368 410.238C481.557 410.427 481.798 410.556 482.061 410.609C482.324 410.661 482.596 410.634 482.844 410.532C483.091 410.429 483.303 410.255 483.452 410.033C483.6 409.81 483.68 409.548 483.68 409.28C483.677 409.097 483.637 408.916 483.562 408.749C483.487 408.582 483.379 408.431 483.245 408.307C483.11 408.182 482.952 408.087 482.779 408.025C482.606 407.964 482.423 407.938 482.24 407.95L482.325 407.926ZM489.647 401.177C489.379 401.177 489.117 401.257 488.895 401.406C488.672 401.554 488.498 401.766 488.396 402.013C488.293 402.261 488.266 402.533 488.319 402.796C488.371 403.059 488.5 403.3 488.689 403.49C488.879 403.679 489.12 403.808 489.383 403.86C489.646 403.913 489.918 403.886 490.166 403.783C490.413 403.681 490.625 403.507 490.774 403.284C490.922 403.062 491.002 402.8 491.002 402.532C491.001 402.348 490.962 402.166 490.887 401.998C490.813 401.83 490.705 401.679 490.57 401.554C490.435 401.43 490.276 401.334 490.103 401.273C489.929 401.213 489.745 401.188 489.562 401.202L489.647 401.177Z" fill="white"/>
<path d="M145.97 211.883C142.211 213.359 129.142 220.425 121.43 227.747C117.695 231.31 108.006 242.696 110.557 245.783C113.107 248.871 116.194 245.783 116.194 245.783C116.194 245.783 112.826 251.201 115.645 254.081C118.464 256.961 123.162 251.995 123.162 251.995C123.162 251.995 120.112 257.815 123.162 260.476C126.213 263.136 130.057 257.376 130.057 257.376C130.057 257.376 127.031 262.562 130.435 263.722C134.536 265.101 139.051 254.899 143.383 251.153C144.371 250.31 164.568 235.362 164.568 235.362L145.97 211.883Z" fill="#EB9481"/>
<path d="M130.155 257.328C133.487 249.836 136.257 247.126 142.956 242.685C143.078 242.599 142.956 242.379 142.834 242.453C135.866 246.248 131.912 249.14 129.777 257.218C129.679 257.585 129.996 257.682 130.155 257.328Z" fill="#263238"/>
<path d="M122.931 252.239C127.067 244.758 130.033 241.805 136.72 236.582C136.818 236.509 136.72 236.338 136.598 236.411C129.618 240.975 125.737 243.953 122.589 251.97C122.442 252.336 122.747 252.581 122.931 252.239Z" fill="#263238"/>
<path d="M116.561 245.173C121.1 238.217 124.2 234.837 131.351 230.602C131.376 230.578 131.392 230.546 131.397 230.512C131.403 230.478 131.396 230.443 131.38 230.412C131.363 230.382 131.337 230.358 131.305 230.343C131.274 230.329 131.238 230.326 131.204 230.334C123.504 233.995 119.599 238.132 116.365 244.978C116.146 245.478 116.28 245.612 116.561 245.173Z" fill="#263238"/>
<path d="M170.12 233.715C170.12 233.715 165.239 242.782 162.261 246.296C159.284 249.811 143.237 258.768 141.101 255.412C138.343 251.092 146.58 244.087 151.059 241.195C151.059 241.195 144.677 231.189 149.509 224.892C154.342 218.595 170.12 233.715 170.12 233.715Z" fill="#EB9481"/>
<path d="M140.759 253.947C141.101 248.199 147.227 244.77 151.352 241.634C151.415 241.59 151.466 241.532 151.502 241.464C151.537 241.396 151.556 241.32 151.556 241.243C151.556 241.167 151.537 241.091 151.502 241.023C151.466 240.955 151.415 240.897 151.352 240.853C148.911 236.472 146.849 229.614 149.192 224.903C149.202 224.876 149.203 224.847 149.193 224.819C149.183 224.792 149.165 224.769 149.14 224.755C149.115 224.74 149.086 224.735 149.057 224.74C149.029 224.744 149.003 224.759 148.984 224.781C145.787 229.492 147.313 236.399 150.205 241.024C145.921 244.172 139.93 247.882 140.674 253.947H140.759Z" fill="#263238"/>
<path d="M179.273 284.613C195.296 260.561 206.73 210.528 195.259 204.817C184.13 199.277 163.75 202.254 144.189 212.591C141.345 214.104 146.398 218.167 153.341 227.137C156.624 231.383 160.187 248.114 163.36 244.904C165.154 243.074 170.926 240.231 172.891 239.352C174.501 238.632 167.887 268.261 164.653 279.415C159.479 297.256 175.002 291.069 179.273 284.613Z" fill="#EB9481"/>
<path d="M188.425 267.102C185.927 273.21 182.867 279.072 179.284 284.614C175.538 290.239 163.274 295.67 163.628 285.138L188.425 267.102Z" fill="#263238"/>
<path d="M85.4429 289.971C85.7724 285.944 89.4943 272.52 94.3145 263.014C96.6575 258.401 104.773 245.93 108.458 247.394C112.143 248.859 110.081 252.8 110.081 252.8C110.081 252.8 114.303 248.017 117.867 249.884C121.43 251.751 118.037 257.681 118.037 257.681C118.037 257.681 122.736 253.093 126.153 255.241C129.569 257.389 125.176 262.746 125.176 262.746C125.176 262.746 129.277 258.353 131.351 261.281C133.853 264.808 125.384 272.069 123.053 277.292C122.528 278.512 114.047 302.137 114.047 302.137L85.4429 289.971Z" fill="#EB9481"/>
<path d="M125.176 262.831C118.952 268.188 117.158 271.605 114.803 279.317C114.803 279.476 114.523 279.439 114.559 279.317C116.182 271.544 117.805 266.931 124.932 262.55C125.274 262.306 125.469 262.574 125.176 262.831Z" fill="#263238"/>
<path d="M118.22 257.388C112.253 263.49 110.276 267.151 107.237 275.107C107.237 275.217 107.005 275.107 107.042 275.034C109.397 267.029 111.13 262.465 117.903 257.132C118.171 256.9 118.489 257.108 118.22 257.388Z" fill="#263238"/>
<path d="M109.617 253.325C104.26 259.671 101.917 263.625 99.9276 271.63C99.9182 271.663 99.8982 271.692 99.8706 271.713C99.8431 271.734 99.8096 271.745 99.7751 271.745C99.7406 271.745 99.7071 271.734 99.6796 271.713C99.652 271.692 99.632 271.663 99.6226 271.63C100.843 263.21 103.747 258.207 109.385 253.179C109.788 252.837 109.946 252.923 109.617 253.325Z" fill="#263238"/>
<path d="M114.071 307.946C114.071 307.946 121.393 300.685 123.834 296.792C126.274 292.9 130.289 274.973 126.47 273.899C121.527 272.508 117.207 282.441 115.719 287.542C115.719 287.542 104.297 284.309 99.6594 290.752C95.0222 297.195 114.071 307.946 114.071 307.946Z" fill="#EB9481"/>
<path d="M124.969 273.985C119.563 275.974 118.037 282.82 116.231 287.689C116.208 287.762 116.167 287.828 116.113 287.882C116.059 287.936 115.992 287.976 115.919 287.999C115.846 288.021 115.769 288.026 115.694 288.013C115.618 287.999 115.547 287.968 115.487 287.921C110.606 286.884 103.43 286.847 99.6227 290.447C99.6006 290.467 99.572 290.478 99.5422 290.478C99.5124 290.479 99.4836 290.468 99.461 290.449C99.4385 290.429 99.424 290.402 99.42 290.373C99.4161 290.343 99.4231 290.313 99.4397 290.288C103.027 285.871 110.081 285.334 115.304 286.798C117.085 281.783 118.904 274.973 124.932 273.936C124.969 273.912 125.03 273.985 124.969 273.985Z" fill="#263238"/>
<path d="M234.797 272.837C234.797 272.837 244.01 286.822 249.867 339.589C249.867 339.589 181.53 334.183 160.785 321.284C151.364 315.439 151.12 307.934 155.013 300.746C155.977 298.964 175.087 279.293 183.19 275.998C190.353 273.081 199.822 277.487 199.822 277.487L234.797 272.837Z" fill="#EB9481"/>
<path d="M154.146 306.213C156.904 301.466 168.961 299.306 175.66 300.307C182.36 301.308 190.67 309.789 187.216 316.513C183.763 323.237 160.76 321.321 160.76 321.321C160.76 321.321 176.453 333.024 206.29 334.207C206.29 334.207 216.223 315.305 206.29 276.657L200.286 277.414C200.286 277.414 192.854 273.057 185.398 274.729C175.758 276.889 157.551 293.51 154.988 300.832C152.425 308.154 153.133 312.559 153.133 312.559C153.133 312.559 152.791 308.544 154.146 306.213Z" fill="#455A64"/>
<path d="M173.147 319.308C150.498 334.171 97.4872 350.279 88.7498 340.944C80.2076 331.877 82.9289 298.587 85.6013 288.068C86.3945 284.944 92.3497 289.678 102.942 293.742C107.97 295.658 125.017 294.255 122.845 298.208C121.625 300.454 116.878 311.559 119.929 312.132C121.662 312.462 144.762 305.677 163.933 303.199C185.984 300.368 179.639 315.049 173.147 319.308Z" fill="#EB9481"/>
<path d="M116.865 248.92C113.827 244.698 106.041 238.486 98.0237 241.366C80.8295 247.468 85.4423 273.912 74.252 292.156C60.7309 314.182 62.0489 331.657 75.4723 333.085C90.592 334.671 103.149 317.562 98.7803 284.272C96.0468 263.466 101.026 253.508 105.358 253.618C108.177 253.791 110.898 254.714 113.241 256.291L116.865 248.92Z" fill="#263238"/>
<path d="M97.5846 272.765C97.7798 276.096 98.3533 279.379 98.8049 282.674C99.2564 285.968 99.7811 289.251 100.159 292.546C100.538 295.841 100.818 299.136 100.855 302.43C100.944 305.701 100.702 308.971 100.135 312.193C99.6165 315.414 98.4812 318.505 96.7914 321.296C94.9836 324.061 92.7083 326.489 90.0674 328.472C87.4133 330.514 84.3225 331.913 81.0371 332.56C79.3859 332.882 77.7011 332.996 76.0216 332.902C75.1805 332.85 74.3443 332.735 73.52 332.56C72.6734 332.43 71.8508 332.175 71.0793 331.803C72.5901 332.624 74.2497 333.134 75.9606 333.304C77.6824 333.524 79.4251 333.524 81.1469 333.304C82.8774 333.067 84.5734 332.625 86.199 331.986C87.8155 331.323 89.3542 330.484 90.7874 329.485C92.2148 328.497 93.543 327.373 94.7534 326.129L95.6809 325.238L96.5351 324.262C97.0964 323.593 97.618 322.893 98.0971 322.163C99.9307 319.23 101.174 315.968 101.758 312.559C102.732 305.882 102.629 299.093 101.453 292.448C100.965 289.141 100.318 285.871 99.6347 282.613C98.9513 279.354 98.1215 276.072 97.5846 272.765Z" fill="#263238"/>
<path d="M115.438 247.272C113.892 245.552 112.137 244.031 110.215 242.745C108.293 241.517 106.121 240.733 103.857 240.451C101.62 240.198 99.3549 240.435 97.2187 241.146C96.1601 241.522 95.1354 241.988 94.1557 242.537C93.1767 243.071 92.2529 243.701 91.3978 244.417C89.7413 245.911 88.3579 247.682 87.3098 249.652C86.278 251.668 85.46 253.787 84.8692 255.973C83.5756 260.354 82.819 264.93 81.8672 269.494C80.9874 274.099 79.7636 278.63 78.2063 283.052C76.4474 287.393 74.3544 291.591 71.946 295.609C69.527 299.532 67.3665 303.608 65.4784 307.812C64.5447 309.911 63.8844 312.122 63.5137 314.389L63.2818 316.098C63.2818 316.671 63.2818 317.245 63.2818 317.819V318.685L63.3794 319.551L63.5625 321.284C62.5399 316.675 62.9312 311.865 64.6852 307.483C66.4366 303.15 68.475 298.938 70.7867 294.877C73.021 290.847 74.9819 286.673 76.6565 282.381C78.1195 278.046 79.2576 273.608 80.0611 269.104C81.0496 264.588 81.8184 259.988 83.1973 255.461C83.8683 253.176 84.7762 250.967 85.9064 248.871C87.0789 246.752 88.6396 244.872 90.507 243.331C91.4542 242.584 92.4766 241.937 93.5578 241.403C94.6224 240.851 95.733 240.394 96.877 240.036C99.1645 239.312 101.591 239.143 103.957 239.542C106.323 239.941 108.56 240.896 110.484 242.33C112.356 243.74 114.024 245.403 115.438 247.272Z" fill="#263238"/>
<path d="M121.515 249.261C120.576 247.858 118.342 246.82 117.281 247.174C116.219 247.528 111.643 255.058 112.277 257.144C112.912 259.231 116.89 258.657 116.89 258.657L121.515 249.261Z" fill="#A4D985"/>
<path d="M156.062 298.586C157.429 299.086 174.135 296.035 180.273 285.284C182.323 281.697 165.263 284.674 165.263 284.674L164.653 284.04L156.111 275.205L140.833 281.977L138.709 283.027C138.709 283.027 141.15 285.284 144.347 288.079L144.786 288.482C144.957 288.64 145.128 288.799 145.299 288.933C145.75 289.36 146.226 289.787 146.714 290.214L147.825 291.166L148.984 292.143C152.865 295.34 155.476 298.391 156.062 298.586Z" fill="#EB9481"/>
<path d="M144.323 288.079C147.801 288.925 151.423 289.001 154.934 288.304C158.445 287.606 161.762 286.151 164.653 284.04L156.111 275.205L140.833 281.977L138.709 283.027C138.709 283.027 141.186 285.284 144.323 288.079Z" fill="#263238"/>
<path d="M155.672 251.47C170.035 267.554 162.017 277.976 158.552 281.075C155.391 283.882 144.298 293.046 128.349 278.525C112.399 264.003 115.34 252.239 122.247 245.43C129.154 238.62 141.309 235.374 155.672 251.47Z" fill="#EB9481"/>
<path d="M150.925 250.713C150.499 250.973 150.059 251.209 149.607 251.421C149.183 251.734 148.669 251.9 148.142 251.897C147.977 251.862 147.828 251.774 147.717 251.646C147.607 251.518 147.542 251.358 147.532 251.189C147.569 250.852 147.692 250.531 147.892 250.257C148.091 249.983 148.358 249.766 148.667 249.627C149.255 249.258 149.959 249.119 150.644 249.237C150.797 249.276 150.935 249.357 151.043 249.472C151.151 249.587 151.224 249.731 151.254 249.886C151.283 250.041 151.268 250.201 151.21 250.347C151.151 250.494 151.053 250.621 150.925 250.713Z" fill="#263238"/>
<path d="M139.612 260.28C139.943 259.893 140.248 259.486 140.527 259.06C140.905 258.685 141.149 258.196 141.223 257.669C141.213 257.5 141.148 257.34 141.038 257.212C140.928 257.084 140.778 256.996 140.613 256.961C140.276 256.942 139.939 257.013 139.639 257.167C139.338 257.322 139.085 257.554 138.904 257.84C138.445 258.362 138.197 259.036 138.209 259.731C138.213 259.892 138.264 260.048 138.357 260.18C138.449 260.312 138.578 260.413 138.728 260.472C138.878 260.53 139.042 260.543 139.199 260.509C139.356 260.475 139.5 260.396 139.612 260.28Z" fill="#263238"/>
<path d="M145.714 262.086C145.714 262.086 145.714 262.221 145.714 262.257C146.727 263.331 147.715 264.698 147.056 265.918H147.117C148.155 264.759 146.812 263.002 145.714 262.086Z" fill="#263238"/>
<path d="M143.676 261.782C141.797 263.222 144.823 266.883 146.568 265.54C148.313 264.198 145.25 260.561 143.676 261.782Z" fill="#263238"/>
<path d="M143.127 262.611C142.968 263.075 142.968 263.698 142.614 264.064C142.372 264.225 142.095 264.326 141.805 264.355C141.516 264.385 141.224 264.344 140.954 264.235C140.954 264.235 140.881 264.235 140.954 264.332C141.173 264.715 141.53 265 141.953 265.127C142.375 265.254 142.83 265.214 143.224 265.016C143.559 264.735 143.777 264.34 143.838 263.907C143.899 263.475 143.798 263.035 143.554 262.673C143.456 262.514 143.175 262.416 143.127 262.611Z" fill="#263238"/>
<path d="M151.815 256.645C151.815 256.645 151.937 256.645 151.974 256.645C152.865 257.804 154.085 259 155.428 258.536C155.428 258.536 155.513 258.536 155.428 258.609C154.024 259.488 152.426 257.901 151.815 256.645Z" fill="#263238"/>
<path d="M151.815 254.631C153.536 252.996 156.697 256.559 155.086 258.072C153.475 259.585 150.375 255.998 151.815 254.631Z" fill="#263238"/>
<path d="M152.767 254.216C153.219 254.155 153.792 254.216 154.146 253.972C154.5 253.728 154.512 253.02 154.439 252.435C154.439 252.435 154.439 252.435 154.525 252.435C154.863 252.696 155.096 253.069 155.184 253.488C155.271 253.906 155.206 254.342 155 254.717C154.512 255.351 153.56 255.156 152.804 254.619C152.657 254.46 152.584 254.241 152.767 254.216Z" fill="#263238"/>
<path d="M153.231 271.544C153.72 271.721 154.255 271.721 154.744 271.544C155.167 271.209 155.519 270.795 155.781 270.324C155.781 270.324 155.867 270.324 155.879 270.324C155.88 270.68 155.786 271.03 155.608 271.338C155.431 271.647 155.175 271.903 154.866 272.081C154.579 272.199 154.264 272.229 153.96 272.168C153.656 272.107 153.377 271.958 153.158 271.739C153.132 271.73 153.111 271.71 153.099 271.685C153.088 271.66 153.087 271.631 153.097 271.605C153.106 271.579 153.126 271.558 153.151 271.547C153.176 271.535 153.205 271.534 153.231 271.544Z" fill="#263238"/>
<path d="M154.488 263.466C154.488 263.466 156.135 264.942 156.806 265.735C156.806 265.809 156.709 266.004 156.453 266.248C155.878 266.957 155.116 267.491 154.253 267.788C153.39 268.086 152.461 268.136 151.571 267.932C151.461 267.932 151.486 267.737 151.571 267.725C153.165 267.566 154.664 266.894 155.842 265.809C155.708 265.54 152.926 263.368 153.048 263.258C153.707 262.794 154.425 262.42 155.183 262.148C151.84 258.963 148.008 256.351 144.725 253.13C144.696 253.109 144.677 253.077 144.671 253.041C144.665 253.006 144.674 252.97 144.695 252.94C144.716 252.911 144.748 252.892 144.783 252.886C144.819 252.88 144.855 252.889 144.884 252.91C149.077 255.585 152.989 258.676 156.562 262.136C157.051 262.55 154.915 263.331 154.488 263.466Z" fill="#263238"/>
<path d="M156.013 265.967C156.136 266.986 155.993 268.021 155.599 268.969C155.371 269.482 154.986 269.909 154.5 270.189C153.439 270.799 152.658 270.043 152.169 269.225C151.907 268.788 151.698 268.321 151.547 267.834C153.197 267.706 154.763 267.052 156.013 265.967Z" fill="#263238"/>
<path d="M155.599 268.97C155.371 269.483 154.987 269.91 154.5 270.19C153.439 270.8 152.658 270.044 152.17 269.226C152.629 268.803 153.217 268.548 153.84 268.501C154.462 268.455 155.082 268.62 155.599 268.97Z" fill="#FF9BBC"/>
<path d="M130.655 278.708C132.254 276.975 132.193 268.091 124.48 259.793C124.48 259.793 130.887 267.725 131.363 269.323C131.839 270.922 131.363 264.345 125.188 257.56C128.689 257.057 132.101 256.054 135.317 254.582C139.271 252.471 141.15 250.604 141.15 250.165C141.15 249.725 135.195 252.678 132.608 252.447C132.608 252.447 144.579 248.346 148.679 244.978C149.155 244.588 140.967 235.008 131.363 236.814C121.759 238.62 116.414 251.751 116.231 256.596C116.231 256.596 113.693 259.842 114.669 267.286C115.645 274.729 128.935 280.563 130.655 278.708Z" fill="#263238"/>
<path d="M133.621 284.479C133.952 284.386 134.271 284.255 134.572 284.089C134.877 283.937 135.157 283.739 135.402 283.503C135.732 283.207 135.991 282.84 136.159 282.429C136.297 282.115 136.388 281.782 136.427 281.441C136.514 280.961 136.514 280.469 136.427 279.989L132.01 276.084C132.01 276.084 124.212 273.521 122.772 276.694C121.332 279.867 129.947 285.565 133.621 284.479Z" fill="#EB9481"/>
<path d="M125.237 278.256C125.237 278.256 125.237 278.365 125.237 278.341C127.861 277.658 130.326 278.732 132.559 280.111C132.292 279.996 132.002 279.941 131.712 279.949C131.421 279.958 131.135 280.03 130.875 280.16C130.615 280.29 130.386 280.475 130.205 280.703C130.024 280.93 129.894 281.195 129.825 281.477C129.825 281.551 129.911 281.599 129.96 281.538C130.23 281.163 130.609 280.88 131.046 280.727C131.482 280.574 131.955 280.559 132.4 280.684C133.144 280.913 133.864 281.216 134.548 281.587C134.768 281.685 135.024 281.355 134.804 281.197C132.864 278.561 128.19 276.425 125.237 278.256Z" fill="#263238"/>
<path d="M133.315 283.576C133.414 283.664 133.529 283.731 133.653 283.774C133.778 283.818 133.909 283.836 134.041 283.828C134.172 283.82 134.301 283.786 134.42 283.728C134.538 283.67 134.644 283.59 134.731 283.491C134.818 283.394 134.885 283.28 134.928 283.156C134.971 283.033 134.989 282.902 134.981 282.771C134.973 282.641 134.94 282.513 134.882 282.396C134.824 282.278 134.744 282.174 134.646 282.088C134.447 281.912 134.187 281.822 133.923 281.835C133.658 281.849 133.409 281.966 133.23 282.161C133.142 282.259 133.075 282.374 133.032 282.498C132.989 282.623 132.971 282.755 132.979 282.886C132.987 283.018 133.02 283.147 133.078 283.265C133.136 283.383 133.217 283.489 133.315 283.576Z" fill="white"/>
<path d="M130.765 283.601C130.906 283.726 131.09 283.789 131.278 283.778C131.466 283.766 131.641 283.681 131.766 283.54C131.89 283.399 131.954 283.215 131.942 283.027C131.931 282.839 131.845 282.664 131.705 282.539C131.564 282.415 131.379 282.351 131.192 282.363C131.004 282.374 130.829 282.46 130.704 282.6C130.579 282.741 130.516 282.926 130.527 283.113C130.539 283.301 130.624 283.476 130.765 283.601Z" fill="white"/>
<path d="M127.861 283.138C126.122 282.059 124.569 280.708 123.26 279.135C122.87 278.476 122.357 277.402 122.76 276.694C122.821 276.584 122.76 276.56 122.662 276.694C122.351 277.351 122.303 278.102 122.528 278.793C122.846 279.551 123.32 280.232 123.919 280.795C125.037 281.876 126.373 282.708 127.836 283.235C127.836 283.235 127.897 283.162 127.861 283.138Z" fill="#263238"/>
<path d="M148.789 244.966C148.667 244.966 148.581 244.966 148.691 244.966C149.314 245.467 154.793 250.726 155.415 251.19L155.501 251.117C155.11 250.568 151.156 246.138 148.789 244.966Z" fill="#263238"/>
<path d="M463.642 469.43C460.371 470.43 365.431 467.868 361.953 465.574C361.784 465.417 361.658 465.219 361.587 465C360.55 462.169 362.539 450.1 362.441 435.285C362.441 435.017 362.661 430.404 362.966 423.766C363.784 406.547 365.272 376.173 365.272 376.173L427.167 377.394L423.066 425.303L422.115 436.445C422.115 436.445 457.199 453.126 460.713 456.055C464.228 458.984 466.9 468.429 463.642 469.43Z" fill="#EB9481"/>
<path d="M463.642 469.43C460.371 470.431 365.431 467.868 361.953 465.574C361.784 465.417 361.658 465.22 361.587 465.001C360.55 462.169 362.539 450.1 362.441 435.286C362.441 435.017 362.661 430.405 362.966 423.766L423.066 425.353L422.115 436.494C422.115 436.494 457.199 453.176 460.713 456.104C464.228 459.033 466.9 468.43 463.642 469.43Z" fill="white"/>
<path d="M463.642 469.43C460.384 470.431 365.431 467.868 361.953 465.562C360.623 464.695 360.099 452.053 362.442 435.298L422.115 436.518C422.115 436.518 457.187 453.175 460.726 456.116C464.265 459.057 466.9 468.417 463.642 469.43Z" fill="#A4D985"/>
<path d="M462.397 465.696C446.899 464.951 384.297 463.438 368.897 463.89C368.775 463.89 368.775 463.975 368.897 463.987C384.248 465.061 446.875 466.062 462.397 465.952C462.727 465.94 462.727 465.708 462.397 465.696Z" fill="#263238"/>
<path d="M454.856 452.639C453.132 452.557 451.409 452.833 449.797 453.448C448.184 454.064 446.716 455.005 445.484 456.215C443.253 458.38 441.942 461.321 441.823 464.427C441.823 464.513 441.994 464.525 442.018 464.427C442.615 461.368 444.187 458.584 446.5 456.494C448.812 454.404 451.74 453.12 454.844 452.834C454.87 452.836 454.895 452.827 454.915 452.81C454.934 452.793 454.946 452.769 454.947 452.743C454.949 452.717 454.94 452.691 454.923 452.672C454.906 452.652 454.882 452.641 454.856 452.639Z" fill="#263238"/>
<path d="M428.094 438.178C421.895 437.958 414.671 439.984 410.668 444.963C410.51 445.158 410.79 445.378 410.973 445.293C416.469 442.566 422.241 440.438 428.192 438.947C428.284 438.923 428.365 438.867 428.418 438.788C428.472 438.709 428.495 438.614 428.483 438.519C428.471 438.425 428.425 438.338 428.353 438.275C428.282 438.213 428.19 438.178 428.094 438.178Z" fill="#263238"/>
<path d="M432.853 440.168C426.642 439.936 419.43 441.962 415.415 446.953C415.257 447.148 415.537 447.355 415.72 447.27C421.218 444.548 426.99 442.421 432.939 440.924C433.022 440.895 433.093 440.838 433.141 440.763C433.188 440.688 433.208 440.6 433.198 440.512C433.188 440.424 433.148 440.342 433.086 440.28C433.023 440.217 432.941 440.178 432.853 440.168Z" fill="#263238"/>
<path d="M437.601 442.144C431.389 441.912 424.177 443.938 420.163 448.929C420.016 449.124 420.285 449.332 420.48 449.246C425.971 446.524 431.74 444.4 437.686 442.913C437.778 442.89 437.857 442.834 437.911 442.757C437.965 442.679 437.989 442.585 437.978 442.491C437.968 442.398 437.924 442.311 437.854 442.247C437.785 442.183 437.695 442.147 437.601 442.144Z" fill="#263238"/>
<path d="M442.348 444.121C436.148 443.889 428.924 445.915 424.922 450.906C424.763 451.101 425.044 451.321 425.227 451.223C430.724 448.503 436.496 446.38 442.445 444.89C442.537 444.866 442.618 444.809 442.671 444.731C442.725 444.652 442.748 444.556 442.736 444.462C442.724 444.368 442.678 444.281 442.606 444.218C442.535 444.155 442.443 444.121 442.348 444.121Z" fill="#263238"/>
<path d="M373.193 449.247C366.225 449.113 365.993 459.937 372.973 460.071C379.953 460.205 380.173 449.393 373.193 449.247Z" fill="#263238"/>
<path d="M435.197 421.765C432.109 419.092 428.094 421.545 426.093 424.205C422.743 428.835 420.668 434.264 420.077 439.948C420.075 439.973 420.079 439.999 420.088 440.023C420.097 440.047 420.112 440.069 420.13 440.086C420.149 440.104 420.172 440.117 420.196 440.125C420.221 440.132 420.247 440.134 420.272 440.131C420.295 440.247 420.344 440.356 420.416 440.45C420.489 440.544 420.582 440.619 420.689 440.67C420.796 440.721 420.913 440.746 421.032 440.744C421.15 440.741 421.266 440.711 421.371 440.655C425.861 437.69 431.035 435.091 434.489 430.893C436.502 428.379 438.101 424.303 435.197 421.765ZM427.265 434.786C425.092 436.299 422.859 437.69 420.748 439.276C421.811 436.177 423.033 433.134 424.409 430.161C425.098 428.729 425.885 427.347 426.764 426.024C428.168 423.998 434.379 418.946 434.843 425.719C435.148 429.453 429.864 432.992 427.265 434.786Z" fill="#263238"/>
<path d="M404.603 441.9C409.985 442.852 415.586 441.448 420.931 440.68C421.048 440.654 421.157 440.601 421.249 440.525C421.341 440.449 421.414 440.352 421.461 440.243C421.509 440.133 421.53 440.014 421.523 439.895C421.515 439.775 421.48 439.66 421.419 439.557C421.44 439.542 421.456 439.523 421.467 439.501C421.479 439.478 421.484 439.454 421.484 439.429C421.484 439.404 421.479 439.379 421.467 439.357C421.456 439.335 421.44 439.315 421.419 439.301C417.259 435.416 412.15 432.693 406.605 431.405C403.347 430.697 398.697 431.405 398.063 435.505C397.574 439.313 401.455 441.339 404.603 441.9ZM400.943 438.239C396.867 432.821 404.872 432.577 407.252 433.187C408.782 433.617 410.282 434.147 411.742 434.773C414.793 435.994 417.612 437.69 420.516 439.24C417.88 439.423 415.269 439.838 412.645 440.118C409.497 440.484 403.2 441.277 400.93 438.276L400.943 438.239Z" fill="#263238"/>
<path d="M247.525 339.589C273.652 344.348 359.794 321.223 364.553 328.911C368.763 335.684 364.553 385.314 364.553 385.314H426.789C426.789 385.314 436.771 323.725 425.166 291.069C423.275 285.724 416.831 279.33 407.935 272.582C376.207 248.578 247.244 271.142 247.244 271.142L247.525 339.589Z" fill="#263238"/>
<path d="M399.246 365.436V377.883L365.895 364.813C366.091 360.835 366.261 356.637 366.347 352.549L399.246 365.436Z" fill="#A4D985"/>
<path d="M399.246 343.69V356.125L366.395 343.25C366.298 337.637 365.944 332.926 365.175 330.327L399.246 343.69Z" fill="#A4D985"/>
<path d="M454.941 157.812C454.148 161.143 403.81 241.672 400.027 243.526C399.811 243.579 399.585 243.579 399.368 243.526C396.391 242.989 386.994 235.155 374.181 227.736C373.949 227.601 370.056 225.051 364.516 221.439L320.707 210.285L353.167 157.568L396.342 170.454L405.47 176.922C405.47 176.922 437.625 155.139 441.933 153.577C446.241 152.015 455.674 154.505 454.941 157.812Z" fill="#EB9481"/>
<path d="M454.942 157.812C454.148 161.143 403.81 241.672 400.027 243.526C399.811 243.579 399.585 243.579 399.369 243.526C396.391 242.99 386.995 235.155 374.181 227.736C373.949 227.601 370.057 225.051 364.516 221.439L396.342 170.442L405.47 176.91C405.47 176.91 437.625 155.127 441.933 153.565C446.241 152.003 455.674 154.505 454.942 157.812Z" fill="white"/>
<path d="M454.941 157.811C454.148 161.13 403.823 241.683 400.027 243.514C398.6 244.209 387.446 238.266 374.193 227.747L405.47 176.921C405.47 176.921 437.613 155.138 441.945 153.576C446.277 152.014 455.674 154.492 454.941 157.811Z" fill="#A4D985"/>
<path d="M451.085 156.994C442.543 169.99 409.595 223.183 402.151 236.68C402.09 236.79 402.151 236.826 402.224 236.68C410.925 223.989 443.532 170.515 451.305 157.079C451.464 156.835 451.269 156.713 451.085 156.994Z" fill="#263238"/>
<path d="M436.015 156.835C435.068 158.278 434.431 159.901 434.143 161.602C433.855 163.304 433.923 165.046 434.343 166.72C435.078 169.741 436.948 172.363 439.566 174.042C439.651 174.042 439.737 173.944 439.663 173.883C437.33 171.824 435.726 169.064 435.093 166.017C434.459 162.97 434.83 159.8 436.149 156.982C436.158 156.973 436.166 156.962 436.172 156.95C436.177 156.939 436.18 156.926 436.181 156.913C436.181 156.9 436.179 156.887 436.175 156.874C436.171 156.862 436.164 156.851 436.155 156.841C436.146 156.832 436.135 156.824 436.124 156.818C436.112 156.813 436.099 156.81 436.086 156.809C436.073 156.809 436.06 156.811 436.048 156.815C436.035 156.82 436.024 156.826 436.015 156.835Z" fill="#263238"/>
<path d="M409.985 172.613C406.641 177.848 404.713 185.121 407.007 191.089C407.093 191.308 407.422 191.186 407.434 190.979C407.878 184.864 408.97 178.814 410.693 172.93C410.721 172.839 410.715 172.74 410.676 172.653C410.637 172.566 410.567 172.496 410.48 172.457C410.392 172.418 410.294 172.412 410.203 172.441C410.111 172.47 410.034 172.531 409.985 172.613Z" fill="#263238"/>
<path d="M414.097 169.526C410.754 174.761 408.826 182.034 411.12 187.99C411.205 188.221 411.535 188.087 411.547 187.892C411.99 181.773 413.083 175.719 414.805 169.831C414.828 169.741 414.817 169.646 414.776 169.563C414.735 169.48 414.666 169.415 414.581 169.378C414.496 169.341 414.4 169.336 414.312 169.363C414.223 169.39 414.147 169.448 414.097 169.526Z" fill="#263238"/>
<path d="M418.21 166.427C414.866 171.662 412.938 178.947 415.232 184.903C415.318 185.134 415.647 185 415.659 184.793C416.103 178.678 417.195 172.628 418.918 166.744C418.946 166.653 418.94 166.554 418.901 166.467C418.862 166.38 418.792 166.31 418.705 166.271C418.618 166.232 418.519 166.226 418.428 166.255C418.336 166.284 418.259 166.345 418.21 166.427Z" fill="#263238"/>
<path d="M422.335 163.339C418.991 168.575 417.063 175.848 419.345 181.803C419.43 182.035 419.76 181.913 419.772 181.705C420.216 175.591 421.308 169.54 423.03 163.657C423.05 163.569 423.039 163.478 422.999 163.397C422.959 163.317 422.893 163.253 422.812 163.215C422.73 163.178 422.638 163.17 422.551 163.193C422.464 163.215 422.388 163.267 422.335 163.339Z" fill="#263238"/>
<path d="M391.693 225.55C388.032 231.493 397.257 237.18 400.918 231.225C404.579 225.27 395.353 219.608 391.693 225.55Z" fill="#263238"/>
<path d="M399.429 158.177C395.561 159.482 395.634 164.193 396.915 167.268C399.21 172.501 402.842 177.038 407.446 180.423C407.466 180.44 407.49 180.453 407.516 180.458C407.542 180.464 407.569 180.463 407.595 180.456C407.62 180.449 407.643 180.435 407.662 180.417C407.681 180.398 407.695 180.375 407.703 180.35C408.154 180.472 408.752 180.228 408.716 179.666C408.447 174.297 408.825 168.525 406.91 163.4C405.799 160.41 403.09 156.956 399.429 158.177ZM406.641 171.6C406.836 174.236 406.91 176.872 407.202 179.496C405.076 176.993 403.08 174.382 401.223 171.673C400.335 170.353 399.544 168.971 398.855 167.536C397.818 165.315 396.622 157.396 402.687 160.434C406.031 162.118 406.409 168.464 406.641 171.612V171.6Z" fill="#263238"/>
<path d="M401.284 194.762C404.835 190.601 406.47 185 408.606 180.118C408.645 180.006 408.656 179.886 408.639 179.768C408.622 179.65 408.577 179.538 408.508 179.441C408.438 179.344 408.347 179.265 408.241 179.211C408.135 179.157 408.017 179.129 407.898 179.13C407.9 179.103 407.895 179.076 407.884 179.051C407.872 179.026 407.855 179.005 407.833 178.989C407.811 178.973 407.785 178.963 407.758 178.96C407.731 178.957 407.703 178.961 407.678 178.971C402.193 180.572 397.226 183.59 393.279 187.721C391.021 190.162 389.325 194.567 392.522 197.117C395.719 199.668 399.209 197.191 401.284 194.762ZM396.305 196.08C389.557 196.849 393.401 189.832 395.085 188.087C396.237 186.984 397.46 185.956 398.746 185.012C401.382 183.023 404.237 181.436 407.044 179.716C405.823 182.095 404.896 184.536 403.81 186.952C402.553 189.783 400.015 195.665 396.305 196.08Z" fill="#263238"/>
<path d="M355.461 158.238L326.552 211.749C326.552 211.749 276.751 198.02 276.946 204.561C277.447 222.036 311.335 285.407 300.45 317.111C289.882 347.899 239.763 338.661 239.763 338.661L226.34 273.985C229.094 273.263 231.926 272.881 234.772 272.85C234.772 272.85 208.841 184.45 225.815 161.008C231.368 153.332 245.987 143.411 260.204 142.069C300.694 138.262 355.461 158.238 355.461 158.238Z" fill="#263238"/>
<path d="M295.813 264.674C297.118 268.493 298.436 272.313 299.608 276.194C300.757 280.09 301.694 284.045 302.414 288.043C303.999 296.118 304.09 304.415 302.683 312.522C301.902 316.625 300.46 320.573 298.412 324.213C296.183 327.793 293.139 330.796 289.528 332.975C282.428 337.123 274.369 339.348 266.147 339.43C270.127 338.867 274.043 337.915 277.837 336.587C281.61 335.328 285.193 333.563 288.491 331.34C291.734 329.192 294.45 326.338 296.435 322.993C298.291 319.556 299.596 315.85 300.303 312.01C301.664 304.172 301.751 296.165 300.56 288.299C299.473 280.391 297.57 272.569 295.813 264.674Z" fill="#455A64"/>
<path d="M325.515 173.468L311.957 208.088C308.37 207.234 304.428 206.343 300.523 205.538L313.068 173.517L325.515 173.468Z" fill="#A4D985"/>
<path d="M303.757 173.468L291.846 203.866C287.877 203.087 283.832 202.764 279.79 202.902L291.322 173.468H303.757Z" fill="#A4D985"/>
</svg>
