<svg width="128" height="126" viewBox="0 0 128 126" fill="none" xmlns="http://www.w3.org/2000/svg">
<path fill-rule="evenodd" clip-rule="evenodd" d="M55.1437 124.521C47.5831 123.421 40.1926 120.919 33.4948 117.19C26.7921 113.465 20.7698 108.529 15.7729 102.692C16.298 103.661 16.091 103.301 17.0006 104.265C21.5069 109.316 26.802 113.657 32.6518 117.076C38.5015 120.503 44.9084 122.99 51.5446 124.412C52.6342 124.341 55.9843 124.898 59.5809 125.157C63.1702 125.448 66.9936 125.411 68.9362 125.255C67.886 125.046 65.1719 125.105 62.3616 125.009C59.544 124.935 56.6129 124.688 55.1437 124.521Z" fill="#9ACA3C"/>
<path fill-rule="evenodd" clip-rule="evenodd" d="M69.2886 124.974L69.296 125.102C74.8277 124.752 80.3447 123.672 85.6374 121.882C85.8987 121.641 89.1773 120.359 92.5003 118.591C94.1618 117.719 95.8381 116.745 97.2285 115.87C98.6114 115 99.7084 114.243 100.258 113.868C99.6862 114.078 98.0666 115.111 95.7519 116.417C93.4396 117.724 90.4123 119.284 87.114 120.606C83.8255 121.942 80.2757 123.039 77.0833 123.749C73.8959 124.473 71.0783 124.823 69.2886 124.974Z" fill="#9ACA3C"/>
<path fill-rule="evenodd" clip-rule="evenodd" d="M5.09002 85.018C2.72595 79.2348 1.19018 73.099 0.559099 66.8893C-0.0769071 60.6747 0.162198 54.4281 1.26905 48.2899L1.02254 48.2455C0.174527 52.0147 -0.0818431 55.991 0.0216928 59.9204C0.127694 63.8671 0.586205 67.7941 1.12607 71.6397C1.91492 76.6414 3.29294 81.5693 5.21821 86.2728C6.39655 88.7231 8.07777 91.8735 9.88718 94.7553C11.6769 97.642 13.575 100.255 14.7435 101.946L15.1897 102.089L15.7049 102.696C14.391 100.728 11.9653 97.5138 9.8724 94.0922C7.74498 90.6903 5.97008 87.0986 5.09002 85.018Z" fill="#9ACA3C"/>
<path fill-rule="evenodd" clip-rule="evenodd" d="M100.484 113.535C102.049 112.554 103.57 111.499 105.051 110.382C105.875 109.458 107.783 107.658 110.036 105.181C112.292 102.708 114.858 99.5331 117.111 96.0745C119.379 92.6209 121.334 88.8936 122.724 85.5977C124.129 82.3067 125.012 79.4718 125.458 77.8645L125.317 76.9993C123.439 84.2665 120.286 91.2157 116.048 97.4057C111.813 103.601 106.503 109.046 100.412 113.432L100.484 113.535Z" fill="#9ACA3C"/>
<path fill-rule="evenodd" clip-rule="evenodd" d="M14.5196 19.4362L13.6913 19.2784C11.2335 21.6277 8.60078 25.5424 6.66318 29.6616C4.69353 33.7759 3.42891 38.0332 2.66471 40.8213L2.3122 41.1344C2.24072 43.067 1.45679 45.4656 1.12646 47.8543L1.24727 47.8741C1.86848 45.7171 2.47244 43.2076 3.20705 40.5477C3.94166 37.8927 4.82171 35.0874 5.91623 32.3831C7.00829 29.6813 8.30989 27.0831 9.77911 24.8398C11.2508 22.6015 12.8729 20.7255 14.5196 19.4362Z" fill="#9ACA3C"/>
<path fill-rule="evenodd" clip-rule="evenodd" d="M127.432 72.1982C127.533 71.6707 127.629 71.1407 127.715 70.6156C127.585 71.1382 127.452 71.6559 127.311 72.1687L127.432 72.1982Z" fill="#9ACA3C"/>
<path fill-rule="evenodd" clip-rule="evenodd" d="M128 56.7025C127.976 56.175 127.948 55.6474 127.914 55.1199C127.904 55.6523 127.894 56.1799 127.875 56.7074L128 56.7025Z" fill="#9ACA3C"/>
<path fill-rule="evenodd" clip-rule="evenodd" d="M125.4 76.6201C125.733 75.8905 126.041 75.1509 126.344 74.4089C126.415 72.6784 126.753 70.0776 126.985 67.0554C127.222 64.0307 127.332 60.6016 127.143 57.2638C126.97 53.926 126.497 50.6844 125.861 48.0985C125.23 45.5076 124.451 43.5774 123.79 42.7664C125.528 47.1592 126.549 52.8981 126.709 58.7503C126.911 64.6001 126.28 70.5756 125.602 75.8535L125.4 76.6201Z" fill="#9ACA3C"/>
<path fill-rule="evenodd" clip-rule="evenodd" d="M126.984 50.4397C126.913 49.9196 126.834 49.3994 126.748 48.8793C126.792 49.4068 126.829 49.9344 126.863 50.4594L126.984 50.4397Z" fill="#9ACA3C"/>
<path fill-rule="evenodd" clip-rule="evenodd" d="M93.4475 4.11998C96.0457 5.40432 98.5602 6.8834 100.971 8.53012L100.589 8.51039C110.016 15.4251 117.322 24.6916 121.732 34.8899L121.848 34.8381C121.116 32.0919 119.59 29.6071 118.05 27.1986L118.757 27.6793C118.501 27.2257 118.237 26.7795 117.978 26.3358C116.856 25.1575 115.821 23.5847 114.786 22.0933C113.76 20.6044 112.745 19.1968 111.823 18.3537C112.15 18.7457 112.478 19.1475 112.796 19.5468C112.237 19.214 111.988 18.933 111.288 18.3069C110.708 17.624 110.114 16.9535 109.505 16.2978C110.169 16.5295 109.708 16.2559 110.556 16.8943C109.727 15.9058 108.872 14.9444 107.987 14.0077C108.477 14.6116 108.958 15.2254 109.419 15.8417L109.333 15.9329C107.011 13.453 104.491 11.1653 101.804 9.10449C102.692 9.7331 103.564 10.3864 104.417 11.0618C103.855 10.0265 102.149 8.43398 100.017 6.89326C97.8946 5.34023 95.3456 3.86361 93.2946 2.7395C92.4589 2.62364 92.7252 2.70992 91.3989 2.20703C91.6775 2.99341 92.0103 3.15858 93.4475 4.11998Z" fill="#9ACA3C"/>
<path fill-rule="evenodd" clip-rule="evenodd" d="M105.96 12.2445L106.211 11.9635L105.341 11.1895C105.573 11.7293 105.534 11.6233 105.96 12.2445Z" fill="#9ACA3C"/>
<path fill-rule="evenodd" clip-rule="evenodd" d="M49.5604 20.0129C48.5719 20.1313 49.235 19.9883 48.4215 20.607C48.1133 20.3827 48.3623 20.5651 48.5152 20.1559C47.5538 20.1806 45.8898 20.8117 44.2924 21.6942C42.6851 22.5668 41.1592 23.6885 40.2693 24.4034L39.9143 24.3467L39.7713 23.6786C40.6859 22.5866 42.4213 21.3145 44.3811 20.2619C46.336 19.197 48.5004 18.3588 50.1545 17.782C49.7231 17.6218 49.2892 17.4665 48.848 17.3186C50.0584 16.6604 51.7272 16.2709 52.5974 15.5708C51.4758 15.9997 49.3854 16.2117 47.0312 16.6899C44.677 17.1534 42.059 17.9053 40.0474 18.9801C39.9439 18.5191 40.2767 18.5511 39.3621 18.9603C40.2644 17.9003 41.6251 17.183 43.0648 16.6899C44.5069 16.192 46.0303 15.9134 47.3146 15.6102C46.7378 15.4303 46.1511 15.27 45.557 15.1123C46.405 14.6069 47.2654 14.1262 48.1503 13.6751L47.1643 12.6939C48.6582 12.0875 50.189 11.5551 51.7346 11.1015L52.2942 10.8278C52.0181 10.2683 51.9836 10.3274 52.3509 9.77029L52.3238 9.64703L50.1471 10.5419C50.1865 10.5148 50.2309 10.4901 50.295 10.4531L49.7009 10.6282C49.8365 10.6183 49.9129 10.6183 49.9573 10.6208C48.0147 11.4491 46.0352 12.339 43.8955 13.4113C41.7607 14.4886 39.4657 15.7359 36.9561 17.3753L36.8896 17.2692C39.9883 15.095 43.3433 13.2782 46.866 11.8632L47.4034 11.5304C47.5932 11.1483 47.7929 10.7662 47.9975 10.3866C46.7181 10.3126 44.884 10.5813 43.6564 10.5764C44.4576 10.2756 45.271 9.98969 46.087 9.72345C45.3968 9.53857 44.8692 9.57801 43.7106 9.86397C43.2275 9.84178 42.7443 9.82206 42.2636 9.81466C43.1634 9.40299 44.0755 9.01596 44.9999 8.65851C44.142 8.57963 41.5462 9.29452 38.2602 10.9215C34.9742 12.5312 31.0571 15.1196 27.5787 18.3194C24.0782 21.497 21.056 25.2612 18.9655 28.5744C16.8578 31.8851 15.6253 34.6855 15.1766 35.849L14.4124 36.6132C14.4962 35.5236 14.8315 35.1218 14.5036 34.3724C17.2794 28.6878 21.0141 23.4913 25.4809 19.0565C29.9477 14.6242 35.1541 10.9536 40.8264 8.2567L41.2455 7.50729C40.5306 7.60097 39.8157 7.7119 39.0983 7.83516C37.8485 8.08414 34.0374 10.0316 30.4925 12.7383C28.7102 14.0769 26.9846 15.5732 25.5623 16.9439C24.1325 18.3145 22.9936 19.552 22.2885 20.2964C22.8161 19.2167 23.8588 17.9841 24.9509 16.971C26.0405 15.9553 27.1671 15.1616 27.7858 14.8386L27.278 14.7745C28.974 13.7737 31.4022 11.8361 34.0349 10.1031C36.6504 8.3553 39.4607 6.82198 41.4304 6.17612L40.9521 5.97398C35.4401 8.17535 30.5665 11.2223 26.1884 14.9841C21.8202 18.7631 17.9302 23.2817 14.5948 28.7469C13.8775 29.8957 12.6375 32.3091 11.7377 34.5006C10.8232 36.6872 10.2118 38.6198 10.2118 38.6198C9.59552 39.9091 8.856 40.9075 8.12385 42.4926C7.66287 43.4836 7.02932 45.5543 6.53383 48.1821C6.03094 50.8001 5.69321 53.9777 5.64391 57.0862C5.58228 60.1972 5.79675 63.2515 6.0901 65.6772C6.37852 68.1054 6.71625 69.9049 6.76063 70.5705C7.12054 75.8262 8.64152 81.3826 11.0179 86.4041C13.3746 91.4478 16.5546 95.9343 19.7913 99.5532C23.8539 104.116 28.5451 108.139 33.7613 111.393C38.9775 114.642 44.7263 117.117 50.7609 118.564C52.9623 119.102 55.5063 119.402 57.9345 119.541C60.3676 119.686 62.6799 119.664 64.4942 119.735C67.5855 119.866 71.261 119.743 74.8626 119.119C78.4666 118.513 81.9844 117.408 84.7355 116.01C85.3468 116.102 84.9919 116.072 84.134 116.499C85.5367 116.316 88.4825 115.108 91.4998 113.37C94.532 111.662 97.5912 109.421 99.7285 107.858C105.361 103.798 110.087 98.4414 113.536 92.599C116.992 86.7517 119.183 80.4434 120.305 74.4531C121.69 68.2262 122.048 61.8291 121.422 55.5677C121.518 55.087 121.604 54.6013 121.681 54.1108C122.075 55.3631 122.403 57.345 122.538 59.4749C122.689 61.5949 122.639 63.8555 122.494 65.6526C122.999 64.8834 122.657 65.7093 122.745 64.2129L123.396 63.8924L123.522 63.9023C123.441 66.2417 123.229 68.5811 122.876 70.9132C123.527 69.2911 123.801 66.4636 123.749 63.6385C123.709 60.8036 123.34 57.9835 123.204 56.1815C122.856 51.3104 121.794 46.8953 120.204 42.4285C118.587 37.9616 116.457 33.4184 113.368 28.3624L113.474 28.2958C116.44 32.7774 118.848 37.407 120.653 42.1844C122.457 46.9619 123.653 51.8921 124.114 56.8791C124.474 60.8283 124.432 65.2138 123.801 69.7891C123.174 74.3594 121.952 79.0999 120.137 83.6875C118.323 88.2752 115.92 92.6976 113.094 96.7158C110.269 100.736 107.033 104.35 103.651 107.449C98.7572 111.62 93.2057 115.017 87.2672 117.462C82.9729 119.457 77.8947 121.079 72.6169 121.868C67.3365 122.669 61.9157 122.637 56.9829 121.845L56.5639 122.176C58.1785 122.795 61.5854 123.127 65.002 123.009C68.4286 122.92 71.8453 122.378 73.6226 122.181C82.3566 120.736 90.7677 117.342 98.0694 112.362C105.381 107.392 111.603 100.852 116.23 93.2966C119.499 87.6786 121.883 81.5527 123.261 75.2444C124.646 68.9263 125.033 62.4553 124.454 56.1174C123.559 48.7836 121.333 41.6889 117.998 35.319C115.335 29.0773 111.27 22.8479 106.234 17.814C101.225 12.7457 95.2937 8.91735 89.6929 6.70612C88.8843 6.80226 89.328 6.58533 89.471 7.15724C88.0043 6.48919 87.383 6.34128 86.8876 6.16133C86.3847 5.99123 86.01 5.79155 84.9549 5.15555C85.0806 5.4982 84.7527 5.12843 85.1915 5.52039C84.1512 5.28867 83.111 5.08159 82.0657 4.9115L82.0263 5.03476C84.2572 5.62886 85.7462 6.15393 87.2968 6.72584C88.8449 7.30515 90.462 7.91651 92.8877 9.00856C92.3404 8.96666 92.8261 9.05787 92.1531 8.87545C92.1777 8.90256 93.748 9.74811 96.0061 11.242C98.2642 12.7383 101.168 14.9446 103.872 17.5232C106.594 20.0869 109.091 23.0155 110.925 25.5102C112.772 28 113.979 30.0313 114.421 30.6599C113.664 30.1817 112.298 28.3648 110.78 26.4149C109.276 24.4527 107.614 22.3598 106.653 20.9941C105.514 19.7862 105.105 19.547 104.765 19.3424C104.422 19.1452 104.141 18.9899 103.157 18.0581L103.308 18.9086C103.177 19.5199 103.919 20.6218 104.797 21.9185C105.669 23.2053 106.665 24.7016 107.166 25.9613C105.327 24.3516 103.66 22.2833 101.883 20.2866C100.116 18.2923 98.2346 16.3843 96.2723 15.1689L96.1466 14.7573L97.2954 15.4648L97.8254 15.8789L97.9018 15.7803C97.2609 15.3243 96.6076 14.883 95.947 14.459C95.6684 14.496 95.3726 14.2223 95.8015 14.6661C95.5772 14.5502 94.5985 13.9043 93.2156 13.076C91.8351 12.2502 90.0429 11.2642 88.2163 10.4063C84.5826 8.66098 80.848 7.56153 80.848 7.56646L80 8.0866C81.4223 8.54758 80.7814 8.38242 81.8932 8.58949C81.1314 8.98884 81.06 8.78917 80.8775 9.57062C80.175 9.3315 79.4675 9.10717 78.7501 8.89763C77.7986 9.08745 77.5102 8.942 77.5718 9.61252C76.5093 9.14661 75.4222 8.71768 74.3227 8.32079L74.5569 8.75959C73.3564 8.37749 72.1362 8.04716 70.9011 7.75874L70.8888 7.87953L75.2348 10.039L80.53 12.5312C81.8513 12.8665 82.3591 13.1007 82.5908 13.8649C81.1512 13.1796 79.677 12.5658 78.1684 12.021L77.8479 12.0604C78.6762 13.288 80.1922 14.3727 81.8858 15.625C82.433 15.7483 83.8678 16.2585 85.6624 17.1312C87.4545 17.9965 89.5918 19.2537 91.5738 20.7204C93.5632 22.1724 95.3775 23.829 96.6963 25.2686C98.0103 26.7009 98.8336 27.8965 98.9594 28.3846C98.4885 27.6549 97.9955 26.9326 97.4778 26.2202L97.2757 26.018C97.1203 26.7157 97.2929 27.1372 97.9289 28.1676C96.9897 27.5415 97.1277 27.4084 95.9741 26.1364C95.6807 26.7748 95.8385 27.0066 95.9741 27.7338C95.1581 26.7231 94.0118 25.6754 92.7546 24.5956C91.4998 23.5159 90.1366 22.4017 88.8449 21.1765C88.3592 20.9004 87.8687 20.6391 87.3756 20.3926C88.1522 21.4304 88.3124 21.2751 87.5507 21.6868C88.5515 22.1034 87.7109 21.7657 88.4357 21.8125C88.6772 22.2759 88.9114 22.7394 89.1308 23.2028C88.2286 23.2028 85.1176 21.1888 81.659 19.5618C79.9433 18.7311 78.1511 17.9767 76.64 17.395C75.1288 16.8107 73.8987 16.3867 73.3391 16.123L72.5306 16.0835L73.211 16.7417C72.358 16.5125 71.4977 16.3177 70.63 16.1427L70.0876 16.192C70.2898 16.6899 70.482 17.183 70.6645 17.6834C70.7803 17.7278 72.6119 17.7204 74.483 18.206C74.1009 17.8979 73.8889 17.819 73.5906 17.4714C75.1707 18.1715 76.603 19.4336 77.0147 20.4C76.423 20.0696 75.824 19.7516 75.2102 19.446L75.1781 19.5717C75.7229 20.1756 76.8421 20.7451 78.018 21.285L77.6384 20.8856C79.0706 21.5265 80.4634 22.2562 81.7995 23.0623L82.5119 23.2842C81.166 22.0763 78.8192 21.036 78.1462 20.9324L77.8035 20.4049L77.843 20.2866C79.7781 21.0976 82.2235 22.202 83.2244 23.5184C83.2244 23.5184 83.8407 23.4395 84.272 23.6712C86.6115 25.1133 88.803 26.8044 90.7973 28.6853C91.4308 29.5333 91.2484 30.1274 92.0841 31.291C91.1547 30.6722 89.9517 29.6689 88.5614 28.5596C87.1735 27.4478 85.5909 26.2399 83.9812 25.1429C80.7789 22.9144 77.4091 21.2505 76.1938 20.5331L75.9226 20.5799C76.5389 21.2184 77.7937 21.704 78.3902 22.3795C77.165 21.7607 75.9053 21.211 74.6087 20.7229L74.3844 21.5808C76.248 22.2266 77.4461 23.0007 78.5998 23.7772C79.7559 24.5661 80.8751 25.3574 82.5366 26.3114C81.9943 25.8578 81.4396 25.419 80.8652 24.995L80.4511 24.7904C81.8661 25.1306 83.286 26.0032 84.4224 26.9277C85.5687 27.8472 86.434 28.8061 86.9467 29.2498L86.4734 28.7297C87.1143 29.1562 87.7504 29.6073 88.3666 30.0757L88.448 29.9795C85.9336 27.6352 83.0937 25.6236 80.0221 24.0336C82.1619 25.0123 84.2153 26.198 86.1455 27.5637C88.6501 29.3386 90.8244 31.2367 92.7842 33.374C94.744 35.5113 96.4917 37.8877 97.9758 40.7103C96.8122 39.3298 95.4317 36.9312 93.7283 34.7939C92.0496 32.6419 90.0774 30.7733 88.5417 30.231C89.9887 31.2885 91.0734 32.3288 91.9978 33.4307C92.9247 34.5425 93.684 35.7233 94.4062 37.1432C94.0562 37.0175 93.7086 36.8967 93.361 36.7858C93.6716 37.1703 94.0414 38.0035 94.4531 38.8244C94.8672 39.6527 95.3159 40.4662 95.8976 40.8286C95.3282 39.6724 94.6947 38.5409 93.9995 37.439L94.1006 37.3675C94.7144 37.7422 96.0406 39.6922 96.6569 40.6486L96.1096 40.7029C97.9955 43.1212 98.5501 45.2979 99.0062 47.3982C99.5387 47.9331 100.061 48.4952 100.572 49.0794L100.692 49.0449C100.064 47.8123 99.7063 47.4204 99.09 46.1459L99.5559 45.9635C99.0604 44.3981 98.4589 42.8623 97.7613 41.366L97.6479 40.8902C98.486 41.7037 99.3439 43.3652 100.051 45.2782C100.769 47.1911 101.323 49.3531 101.861 51.192C102.872 54.5742 103.318 58.2448 103.283 61.765C103.256 65.2803 102.756 68.5959 102.125 71.4432C101.656 72.8409 101.114 74.2115 100.498 75.5452C99.8764 78.0744 98.6167 80.5765 97.0489 82.9011C95.481 85.2381 93.6051 87.4 91.7192 89.4732C88.8079 92.6804 85.1496 95.5103 80.9416 97.6032C76.7435 99.6986 72.008 101.045 67.0801 101.422C62.1449 101.809 57.052 101.252 52.2622 99.7282C47.4601 98.2146 42.9464 95.747 39.0614 92.5546C35.1714 89.3697 31.9174 85.4748 29.4843 81.2421C27.0512 77.0095 25.4365 72.4514 24.6156 67.923C23.7849 63.3945 23.7454 58.8685 24.273 54.6704C24.8005 50.4722 25.9148 46.5921 27.347 43.1409C27.2164 43.5402 27.0956 43.9421 26.9822 44.3414L27.1227 44.6668C27.3963 43.6191 27.7143 42.5813 28.0767 41.5533L28.2049 42.4433C29.0455 40.6191 29.7875 40.0447 30.2633 38.8047C30.3742 38.2969 30.4975 37.7866 30.6257 37.2763C31.2099 36.416 31.6388 36.0931 32.1195 35.6838C32.6076 35.2771 33.1401 34.7915 34.0473 33.6822C34.1163 33.2039 34.2026 32.7281 34.2889 32.2474C34.6537 31.8999 35.021 31.5671 35.3908 31.2367L35.7359 30.8768C35.4795 31.3255 35.2305 31.7692 34.9865 32.2203L34.846 32.7577C38.3539 28.6755 42.6925 25.3007 47.5168 22.9366L46.6417 22.8035L47.0829 22.5866C48.2415 21.5734 50.0805 20.8807 52.0502 20.4197C54.0198 19.9464 56.1078 19.7097 57.8926 19.34L57.6929 19.6185C58.0084 19.5249 58.324 19.4361 58.642 19.3449L58.6272 19.2192L58.0479 19.3055C58.679 19.1674 59.2755 19.017 59.8178 18.8124L60.5352 18.487C59.633 18.2183 56.9361 18.4574 54.4833 19.0072C52.0255 19.5175 49.8168 20.294 49.5604 20.0129Z" fill="#9ACA3C"/>
<path fill-rule="evenodd" clip-rule="evenodd" d="M35.3486 115.277L35.5705 115.681C41.1836 118.693 47.2799 120.828 53.5414 121.969C54.3031 122.058 55.0599 122.135 55.8216 122.196L56.2333 121.997L55.124 121.713C48.5075 120.722 42.0316 118.622 36.0808 115.521L35.3486 115.277Z" fill="#9ACA3C"/>
<path fill-rule="evenodd" clip-rule="evenodd" d="M84.843 0L84.3574 0.229259L85.3435 0.852944C85.2473 0.330331 85.3336 0.441263 84.843 0Z" fill="#9ACA3C"/>
<path fill-rule="evenodd" clip-rule="evenodd" d="M111.77 21.4144C115.174 25.3463 118.122 29.7491 120.476 34.5068C118.864 31.201 116.769 27.2223 114.045 23.2805C111.338 19.3314 107.986 15.434 104.308 12.1899C100.644 8.93588 96.673 6.34256 93.0665 4.66873C89.4625 2.98503 86.2529 2.20605 84.1181 2.26521L84.0762 2.38601C86.8938 3.67281 90.138 4.08942 93.1799 5.52166C96.3378 7.00075 99.6534 9.35002 102.792 12.1504C105.954 14.9533 108.93 18.1974 111.77 21.4144Z" fill="#9ACA3C"/>
<path fill-rule="evenodd" clip-rule="evenodd" d="M123.804 42.3596C123.747 41.8419 123.683 41.3218 123.611 40.8041C122.817 39.5148 121.93 37.5969 120.833 35.3265C121.92 37.6142 122.874 39.9733 123.688 42.3941L123.804 42.3596Z" fill="#9ACA3C"/>
<path fill-rule="evenodd" clip-rule="evenodd" d="M28.7295 110.845C29.6391 112.006 30.847 112.869 33.6474 114.464C32.723 113.458 30.9678 112.386 28.7295 110.845Z" fill="#9ACA3C"/>
<path fill-rule="evenodd" clip-rule="evenodd" d="M28.0306 110.398C26.6033 109.35 25.2228 108.236 23.8867 107.07C23.5071 106.733 23.1299 106.397 22.7577 106.052L22.6738 106.146C24.2022 107.669 25.8144 109.116 27.5006 110.48L27.9566 110.502L28.0306 110.398Z" fill="#9ACA3C"/>
<path fill-rule="evenodd" clip-rule="evenodd" d="M21.8098 105.368C21.1295 104.291 19.9437 102.881 18.583 101.219C17.2197 99.5674 15.6938 97.6643 14.2665 95.6873C12.8367 93.7152 11.5179 91.6666 10.4751 89.8276C9.43237 87.9886 8.66572 86.3666 8.26883 85.2795L7.88672 85.0354C10.9386 92.3248 15.3832 99.0201 20.9002 104.658L21.8098 105.368Z" fill="#9ACA3C"/>
<path fill-rule="evenodd" clip-rule="evenodd" d="M13.9424 23.8365C15.1528 22.4979 16.7157 20.3236 19.06 17.75L18.9515 17.1263C18.1479 17.9448 17.3739 18.7829 16.6195 19.6432C15.6852 20.8561 14.7978 22.0985 13.9572 23.3755L13.9424 23.8365Z" fill="#9ACA3C"/>
<path fill-rule="evenodd" clip-rule="evenodd" d="M4.37245 72.9525C4.31576 73.872 4.62143 75.6987 5.13171 77.624C5.63953 79.5542 6.36181 81.5756 6.88689 82.961L7.39964 83.5797C7.24433 82.6282 6.64038 80.8977 6.01916 78.9255C5.39548 76.9608 4.76934 74.7521 4.37245 72.9525Z" fill="#9ACA3C"/>
<path fill-rule="evenodd" clip-rule="evenodd" d="M13.6063 24.0754C12.3565 25.838 11.1929 27.6671 10.1305 29.5579C9.52651 31.1356 8.5799 33.3345 7.62342 35.8958C6.66448 38.4546 5.71293 41.3783 4.96846 44.329C4.21659 47.2749 3.67427 50.238 3.3464 52.8165C3.01361 55.395 2.87803 57.5792 2.81641 58.9744L2.93719 59.3565H3.06045C3.33408 57.9095 3.52882 55.2693 3.97008 52.04C4.40887 48.8107 5.11884 45.0069 6.19364 41.2895C7.24872 37.5647 8.65631 33.9459 10.0614 30.9926C11.4616 28.0394 12.8298 25.7493 13.6014 24.534L13.6063 24.0754Z" fill="#9ACA3C"/>
<path fill-rule="evenodd" clip-rule="evenodd" d="M89.562 2.70381L88.5266 2.24036L87.7378 2.17627C88.2012 2.37102 88.6598 2.56823 89.1183 2.7753L89.562 2.70381Z" fill="#9ACA3C"/>
<path fill-rule="evenodd" clip-rule="evenodd" d="M74.6078 120.993C73.8436 120.929 72.5641 121.077 71.2749 121.218C69.9831 121.363 68.6741 121.496 67.8804 121.526C68.6594 121.93 68.191 121.846 70.1483 121.726C71.6446 121.531 73.1336 121.294 74.6078 120.993Z" fill="#9ACA3C"/>
<path fill-rule="evenodd" clip-rule="evenodd" d="M63.374 121.754C64.365 121.85 65.3659 121.924 66.3667 121.973L67.1137 121.818C66.1128 121.638 65.4842 121.734 63.374 121.754Z" fill="#9ACA3C"/>
<path fill-rule="evenodd" clip-rule="evenodd" d="M62.6027 121.862C59.7407 121.709 56.8836 121.349 54.0709 120.784L53.6567 120.972C55.6264 121.356 57.6108 121.647 59.6076 121.84C60.6035 121.874 61.6019 121.881 62.6027 121.862Z" fill="#9ACA3C"/>
<path fill-rule="evenodd" clip-rule="evenodd" d="M47.8823 119.515L48.543 119.958C48.0943 119.586 48.5331 119.877 47.8823 119.515Z" fill="#9ACA3C"/>
<path fill-rule="evenodd" clip-rule="evenodd" d="M2.95822 60.115C2.94097 63.793 3.24172 67.4882 3.87033 71.1292C4.07494 70.3009 3.86048 68.6074 3.61889 66.5786C3.37484 64.5572 3.12093 62.198 3.07902 60.115H2.95822Z" fill="#9ACA3C"/>
<path fill-rule="evenodd" clip-rule="evenodd" d="M80.6958 119.323C81.5611 119.163 82.4214 118.985 83.2842 118.786L84.2678 118.177C83.0894 118.598 81.8988 118.978 80.6958 119.323Z" fill="#9ACA3C"/>
<path fill-rule="evenodd" clip-rule="evenodd" d="M74.9219 120.678L74.9441 120.804C75.9351 120.668 76.9285 120.505 77.9146 120.321L78.2252 119.988C77.1307 120.249 76.0263 120.478 74.9219 120.678Z" fill="#9ACA3C"/>
<path fill-rule="evenodd" clip-rule="evenodd" d="M38.3062 116.079C38.7573 116.291 39.2158 116.503 39.6743 116.708C39.233 116.464 38.7942 116.217 38.3554 115.963L38.3062 116.079Z" fill="#9ACA3C"/>
<path fill-rule="evenodd" clip-rule="evenodd" d="M33.9404 113.803C34.3743 114.054 34.8131 114.298 35.2568 114.54C34.8328 114.264 34.4187 113.978 34.0021 113.694L33.9404 113.803Z" fill="#9ACA3C"/>
<path fill-rule="evenodd" clip-rule="evenodd" d="M32.3911 112.834C32.82 113.098 33.2514 113.359 33.6828 113.611C33.2712 113.323 32.862 113.027 32.4552 112.728L32.3911 112.834Z" fill="#9ACA3C"/>
<path fill-rule="evenodd" clip-rule="evenodd" d="M87.0332 116.988L87.1269 117.22C87.7037 116.985 88.2806 116.736 88.8525 116.48L89.0941 116.093C88.4137 116.401 87.7234 116.702 87.0332 116.988Z" fill="#9ACA3C"/>
<path fill-rule="evenodd" clip-rule="evenodd" d="M87.2861 2.15219C86.8227 1.95991 86.3617 1.77502 85.8958 1.59507C85.0305 1.39539 84.1702 1.22037 83.3049 1.06506L83.231 1.30172C84.8407 1.75283 85.5531 1.93279 86.549 1.98456L87.2861 2.15219Z" fill="#9ACA3C"/>
<path fill-rule="evenodd" clip-rule="evenodd" d="M105.341 104.87L105.425 104.964C106.756 103.83 108.043 102.634 109.281 101.38C110.314 100.11 111.287 98.7961 112.214 97.4526C110.124 100.113 107.824 102.597 105.341 104.87Z" fill="#9ACA3C"/>
<path fill-rule="evenodd" clip-rule="evenodd" d="M96.3619 112.063L96.0464 112.265C96.749 112.114 96.0932 112.353 97.1261 111.87L96.3619 112.063Z" fill="#9ACA3C"/>
<path fill-rule="evenodd" clip-rule="evenodd" d="M92.5259 114.434L92.5826 114.545C93.2482 114.192 93.899 113.825 94.5498 113.448L93.7782 113.601C93.364 113.884 92.9474 114.163 92.5259 114.434Z" fill="#9ACA3C"/>
<path fill-rule="evenodd" clip-rule="evenodd" d="M90.8902 115.403C91.3413 115.181 91.785 114.952 92.2287 114.72C91.7678 114.915 91.3043 115.104 90.8359 115.289L90.8902 115.403Z" fill="#9ACA3C"/>
<path fill-rule="evenodd" clip-rule="evenodd" d="M104.637 105.633C105.177 105.458 104.704 105.67 105.355 105.311L104.637 105.633Z" fill="#9ACA3C"/>
<path fill-rule="evenodd" clip-rule="evenodd" d="M112.907 96.5497C113.205 96.1455 113.498 95.7362 113.787 95.327C113.464 95.7116 113.136 96.0962 112.806 96.4758L112.907 96.5497Z" fill="#9ACA3C"/>
<path fill-rule="evenodd" clip-rule="evenodd" d="M10.9849 30.8837C11.4113 29.6339 11.8156 28.9609 12.5206 27.8812L12.8041 27.1737C12.2495 27.6988 12.3875 27.5164 11.6332 28.6626C11.2437 29.7794 11.0046 30.0431 10.9849 30.8837Z" fill="#9ACA3C"/>
<path fill-rule="evenodd" clip-rule="evenodd" d="M115.904 91.334L115.924 91.7876L116.495 90.8139C116.774 90.2494 117.05 89.6824 117.309 89.1129C116.853 89.8648 116.387 90.6068 115.904 91.334Z" fill="#9ACA3C"/>
<path fill-rule="evenodd" clip-rule="evenodd" d="M3.96976 62.7311L3.82679 62.3638L3.73805 63.1206L3.66162 63.8848C4.14971 64.8314 3.85883 64.2249 3.96976 62.7311Z" fill="#9ACA3C"/>
<path fill-rule="evenodd" clip-rule="evenodd" d="M117.855 87.666L117.734 88.4475C118.198 87.56 118.639 86.6627 119.063 85.7506C120.059 83.3101 120.892 80.8031 121.563 78.2689C120.591 81.4983 119.349 84.6462 117.855 87.666Z" fill="#9ACA3C"/>
<path fill-rule="evenodd" clip-rule="evenodd" d="M4.02903 55.9955C4.19912 53.7571 4.49248 51.5237 4.9017 49.3149L4.47522 49.6231C4.15228 51.6075 3.93043 53.6043 3.80225 55.606L4.02903 55.9955Z" fill="#9ACA3C"/>
<path fill-rule="evenodd" clip-rule="evenodd" d="M5.21692 47.8402C5.29334 47.219 5.38454 46.6002 5.47821 45.979C5.00737 46.9379 4.9704 47.4532 4.64746 48.8829C4.98765 48.422 4.91863 48.5058 5.21692 47.8402Z" fill="#9ACA3C"/>
<path fill-rule="evenodd" clip-rule="evenodd" d="M6.78873 40.9068L6.67288 40.8673C6.17985 42.2897 5.73859 43.7318 5.35156 45.1887C6.11329 44.284 6.11082 43.4286 6.78873 40.9068Z" fill="#9ACA3C"/>
<path fill-rule="evenodd" clip-rule="evenodd" d="M9.37424 34.2541L9.25839 34.1998C8.55582 35.6691 7.90995 37.1654 7.32324 38.6889C7.37255 39.1671 7.71028 38.3881 8.13182 37.3281C8.54843 36.2706 9.07596 34.932 9.37424 34.2541Z" fill="#9ACA3C"/>
<path fill-rule="evenodd" clip-rule="evenodd" d="M121.537 77.476L121.668 77.9074C121.818 77.4341 121.956 76.9534 122.092 76.4751C122.222 75.8613 122.343 75.2475 122.452 74.6337C122.173 75.5926 121.865 76.5368 121.537 77.476Z" fill="#9ACA3C"/>
<path fill-rule="evenodd" clip-rule="evenodd" d="M122.758 73.1802C122.849 72.559 122.941 71.9452 123.015 71.3264C122.47 72.8277 122.709 72.9287 122.758 73.1802Z" fill="#9ACA3C"/>
<path fill-rule="evenodd" clip-rule="evenodd" d="M93.562 6.95155C90.8232 5.85456 88.0228 4.9745 85.2026 4.32617L85.353 4.93013C88.0351 5.54642 90.6999 6.36731 93.3179 7.39281C93.6186 8.07072 93.4781 7.80942 94.3089 8.56868C95.0312 8.67715 94.9671 8.77329 95.5587 8.60566C94.8981 8.28766 94.2374 7.97951 93.5669 7.68863L94.4445 7.62453L93.562 6.95155Z" fill="#9ACA3C"/>
<path fill-rule="evenodd" clip-rule="evenodd" d="M97.0677 9.70788L96.4637 9.30359L96.3281 9.51313C96.9962 9.74732 96.5155 9.62653 97.0677 9.70788Z" fill="#9ACA3C"/>
<path fill-rule="evenodd" clip-rule="evenodd" d="M88.5504 7.52563L88.4419 7.75736C89.1124 7.88555 88.6342 7.83871 89.1765 7.83378L88.5504 7.52563Z" fill="#9ACA3C"/>
<path fill-rule="evenodd" clip-rule="evenodd" d="M74.6125 3.599L75.0217 3.29333C72.9904 2.84961 70.9345 2.52667 68.8662 2.31714C69.9558 2.69677 72.8647 3.11091 74.2747 3.53491L74.6125 3.599Z" fill="#9ACA3C"/>
<path fill-rule="evenodd" clip-rule="evenodd" d="M94.8274 11.2307C94.2974 10.9818 93.7575 10.7476 93.23 10.5183C93.9523 11.2628 93.7896 10.9497 95.2711 11.8248L95.6976 11.8076L94.8274 11.2307Z" fill="#9ACA3C"/>
<path fill-rule="evenodd" clip-rule="evenodd" d="M76.9774 3.72766L76.8936 4.09743L77.8944 4.33902C77.3915 3.75724 78.1311 4.23302 76.9774 3.72766Z" fill="#9ACA3C"/>
<path fill-rule="evenodd" clip-rule="evenodd" d="M83.2501 5.72171L82.5944 5.48999L81.9041 5.38892L81.8228 5.62804C82.2615 5.77595 82.693 5.92632 83.1194 6.07916L83.2501 5.72171Z" fill="#9ACA3C"/>
<path fill-rule="evenodd" clip-rule="evenodd" d="M86.0474 7.21898L86.6291 7.6134L87.773 7.57642L86.8264 7.14502L86.0474 7.21898Z" fill="#9ACA3C"/>
<path fill-rule="evenodd" clip-rule="evenodd" d="M84.7691 6.45618L84.3574 6.56464C84.7987 6.69776 85.2375 6.82595 85.6787 6.96892L85.728 6.8506L84.7691 6.45618Z" fill="#9ACA3C"/>
<path fill-rule="evenodd" clip-rule="evenodd" d="M89.4338 8.93776L89.4905 8.82683C88.9161 8.4398 88.3294 8.06017 87.7378 7.69287C88.1865 8.4472 88.0681 8.11687 89.4338 8.93776Z" fill="#9ACA3C"/>
<path fill-rule="evenodd" clip-rule="evenodd" d="M94.6382 12.0575C95.2742 12.2719 94.8132 12.1635 95.3457 12.23L94.7738 11.843L94.6382 12.0575Z" fill="#9ACA3C"/>
<path fill-rule="evenodd" clip-rule="evenodd" d="M82.3862 6.20677L83.392 6.43603L83.4364 6.31524L82.4676 5.96765L82.3862 6.20677Z" fill="#9ACA3C"/>
<path fill-rule="evenodd" clip-rule="evenodd" d="M99.5548 16.4591L99.9788 16.4838C99.2811 15.7196 98.5564 14.9776 97.8144 14.2504L97.314 14.3465C97.9919 14.9628 98.655 15.5914 99.2984 16.2397L99.5548 16.4591Z" fill="#9ACA3C"/>
<path fill-rule="evenodd" clip-rule="evenodd" d="M83.3716 7.26946L83.6896 7.38779L83.5022 6.90955L83.3716 7.26946Z" fill="#9ACA3C"/>
<path fill-rule="evenodd" clip-rule="evenodd" d="M71.9644 4.33057L72.5511 4.93207L72.8838 4.98383C72.5018 4.54257 72.731 4.67076 71.9644 4.33057Z" fill="#9ACA3C"/>
<path fill-rule="evenodd" clip-rule="evenodd" d="M82.1229 6.80836L80.8435 6.37695L80.4146 6.6358L81.3266 7.0672L82.1229 6.80836Z" fill="#9ACA3C"/>
<path fill-rule="evenodd" clip-rule="evenodd" d="M86.0811 8.65234L85.625 8.86435C87.0523 9.37217 86.5125 9.28343 87.3038 9.2144L87.9669 9.39189C87.5799 9.15277 87.1904 8.92598 86.7984 8.69672L86.0811 8.65234Z" fill="#9ACA3C"/>
<path fill-rule="evenodd" clip-rule="evenodd" d="M72.9502 4.98413C73.6503 5.76065 75.5583 7.04745 77.0719 7.77713C76.7071 6.93898 76.818 7.21261 77.947 6.96117C75.684 6.08358 74.6709 5.6226 72.9502 4.98413Z" fill="#9ACA3C"/>
<path fill-rule="evenodd" clip-rule="evenodd" d="M77.0342 8.14383L77.9931 8.26709L78.0252 8.14383L77.0909 7.89978L77.0342 8.14383Z" fill="#9ACA3C"/>
<path fill-rule="evenodd" clip-rule="evenodd" d="M70.8379 8.63025L71.2939 9.84309C71.7796 10.0354 72.2578 10.2424 72.7311 10.4544C72.1419 9.87514 71.7549 9.53988 71.7623 8.75844L70.8379 8.63025Z" fill="#9ACA3C"/>
<path fill-rule="evenodd" clip-rule="evenodd" d="M55.524 9.6175C55.0606 9.4622 55.487 9.54601 54.8757 9.48192L53.9192 9.42029L53.616 9.48192L53.2339 10.6036C53.7343 10.5296 54.2372 10.468 54.7401 10.4113C54.7894 9.66187 54.6094 9.87141 55.524 9.6175Z" fill="#9ACA3C"/>
<path fill-rule="evenodd" clip-rule="evenodd" d="M72.5278 9.15845C73.1145 9.91771 74.145 10.534 75.8582 11.138C74.7859 10.4379 73.6766 9.7772 72.5278 9.15845Z" fill="#9ACA3C"/>
<path fill-rule="evenodd" clip-rule="evenodd" d="M61.3312 9.43101C59.8053 9.27077 58.2596 9.17956 56.6992 9.16724L56.1914 9.88953L56.2111 10.0128C57.8184 9.83037 59.433 9.72929 61.0403 9.70464L61.3312 9.43101Z" fill="#9ACA3C"/>
<path fill-rule="evenodd" clip-rule="evenodd" d="M77.6323 11.7275L76.4712 11.4095L77.2748 11.8878L77.5632 11.9716L77.6323 11.7275Z" fill="#9ACA3C"/>
<path fill-rule="evenodd" clip-rule="evenodd" d="M67.1632 11.0775L67.4664 10.974L66.8945 10.6855L67.1632 11.0775Z" fill="#9ACA3C"/>
<path fill-rule="evenodd" clip-rule="evenodd" d="M54.6318 11.9552C53.2834 12.1894 51.9399 12.4877 50.6161 12.8377C50.128 13.4836 52.8274 12.4556 54.6565 12.0809L54.6318 11.9552Z" fill="#9ACA3C"/>
<path fill-rule="evenodd" clip-rule="evenodd" d="M56.1061 11.8084L56.3945 11.7616C55.8324 11.5964 56.3871 11.663 55.4873 11.6605L56.1061 11.8084Z" fill="#9ACA3C"/>
<path fill-rule="evenodd" clip-rule="evenodd" d="M60.5127 11.3889L60.5053 11.2583C59.8151 11.2311 59.1273 11.2114 58.4371 11.2114C57.9367 11.7217 58.9129 11.3569 60.2219 11.4086L60.5127 11.3889Z" fill="#9ACA3C"/>
<path fill-rule="evenodd" clip-rule="evenodd" d="M65.2046 11.5028C65.7617 11.3426 65.3821 11.4979 65.7938 11.2637L65.212 11.2489L65.2046 11.5028Z" fill="#9ACA3C"/>
<path fill-rule="evenodd" clip-rule="evenodd" d="M68.5688 12.7051L68.0215 12.4019C68.4011 12.673 68.0387 12.4783 68.5688 12.7051Z" fill="#9ACA3C"/>
<path fill-rule="evenodd" clip-rule="evenodd" d="M71.3408 13.679L71.9152 13.6445C71.5553 13.4941 71.2003 13.356 70.8379 13.2205L71.3408 13.679Z" fill="#9ACA3C"/>
<path fill-rule="evenodd" clip-rule="evenodd" d="M71.8237 14.0237C72.2798 14.3589 72.546 14.4255 73.3866 14.7016C72.8739 14.4674 72.3513 14.2382 71.8237 14.0237Z" fill="#9ACA3C"/>
<path fill-rule="evenodd" clip-rule="evenodd" d="M93.0894 23.8643L93.7796 24.7837L93.9398 24.5915L93.0894 23.8643Z" fill="#9ACA3C"/>
<path fill-rule="evenodd" clip-rule="evenodd" d="M80.8369 16.8182C80.8764 17.8388 82.2913 18.2382 83.9898 19.207C82.989 18.3688 81.9364 17.5701 80.8369 16.8182Z" fill="#9ACA3C"/>
<path fill-rule="evenodd" clip-rule="evenodd" d="M58.5873 14.6371L59.1001 14.3166L59.0877 14.1909C58.4468 14.2698 57.8108 14.3512 57.1772 14.4547C57.616 14.6026 58.0351 14.5607 58.5873 14.6371Z" fill="#9ACA3C"/>
<path fill-rule="evenodd" clip-rule="evenodd" d="M59.5713 14.2614C60.1259 14.2861 60.6831 14.3255 61.2328 14.3748L61.5039 14.3551L61.7653 14.0888L60.932 14.0149C60.476 14.0888 60.0249 14.1702 59.5713 14.2614Z" fill="#9ACA3C"/>
<path fill-rule="evenodd" clip-rule="evenodd" d="M62.3428 13.934C61.7586 14.3926 63.9944 14.1362 65.0964 14.1584C64.2212 13.8379 63.6863 13.9636 62.3428 13.934Z" fill="#9ACA3C"/>
<path fill-rule="evenodd" clip-rule="evenodd" d="M53.9759 15.2295L53.4385 15.3601L53.2339 15.6757L53.9759 15.2295Z" fill="#9ACA3C"/>
<path fill-rule="evenodd" clip-rule="evenodd" d="M54.9691 14.9852L54.4342 15.1036L54.2197 15.4142C54.979 15.0764 54.5377 15.3451 54.9691 14.9852Z" fill="#9ACA3C"/>
<path fill-rule="evenodd" clip-rule="evenodd" d="M78.5835 17.211L79.3009 17.6029L78.7043 16.8535L78.5835 17.211Z" fill="#9ACA3C"/>
<path fill-rule="evenodd" clip-rule="evenodd" d="M67.5986 14.653L68.1089 15.077C67.8772 14.7146 68.3998 14.9611 67.5986 14.653Z" fill="#9ACA3C"/>
<path fill-rule="evenodd" clip-rule="evenodd" d="M84.2168 19.3268L84.5841 19.8026C84.3573 19.4131 84.6014 19.7286 84.2168 19.3268Z" fill="#9ACA3C"/>
<path fill-rule="evenodd" clip-rule="evenodd" d="M86.6109 20.6453L85.6076 20.2114L85.4844 20.4333C86.0735 20.6699 86.6652 20.9165 87.247 21.1778L87.7079 21.4686C87.348 21.1876 86.9782 20.914 86.6109 20.6453Z" fill="#9ACA3C"/>
<path fill-rule="evenodd" clip-rule="evenodd" d="M82.5319 18.9531C82.1596 18.6942 81.785 18.4255 81.4004 18.1716C81.6666 18.4724 81.9304 18.7707 82.1843 19.0763L82.5319 18.9531Z" fill="#9ACA3C"/>
<path fill-rule="evenodd" clip-rule="evenodd" d="M74.6837 16.4225L74.2178 16.0503C74.5308 16.3683 74.2202 16.1267 74.6837 16.4225Z" fill="#9ACA3C"/>
<path fill-rule="evenodd" clip-rule="evenodd" d="M83.1482 19.5343L82.6675 19.3026C83.0471 19.6132 82.6749 19.4407 83.1482 19.5343Z" fill="#9ACA3C"/>
<path fill-rule="evenodd" clip-rule="evenodd" d="M51.622 17.9669L51.1216 18.1296L51.198 18.3687C51.6171 18.0483 51.3434 18.3096 51.622 17.9669Z" fill="#9ACA3C"/>
<path fill-rule="evenodd" clip-rule="evenodd" d="M59.637 19.0958L59.1489 19.1575C59.5951 19.2142 59.2278 19.2659 59.637 19.0958Z" fill="#9ACA3C"/>
<path fill-rule="evenodd" clip-rule="evenodd" d="M83.3894 95.162C82.5364 95.1792 81.1116 96.0618 81.1067 96.0593L80.3942 96.2516L80.2734 96.5844C80.8281 96.4291 81.3778 96.259 81.93 96.0765C82.4798 95.5219 82.5143 95.5712 83.3894 95.162Z" fill="#9ACA3C"/>
<path fill-rule="evenodd" clip-rule="evenodd" d="M77.261 97.6442L77.0342 97.7255L77.3842 98.0016L77.261 97.6442Z" fill="#9ACA3C"/>
<path fill-rule="evenodd" clip-rule="evenodd" d="M77.822 97.1578L77.5977 97.2392L77.9526 97.5104L77.822 97.1578Z" fill="#9ACA3C"/>
<path fill-rule="evenodd" clip-rule="evenodd" d="M41.3347 92.5544L41.2632 92.6555L42.0668 93.22L41.3347 92.5544Z" fill="#9ACA3C"/>
<path fill-rule="evenodd" clip-rule="evenodd" d="M98.9742 77.809L98.8633 78.0234L99.3021 77.984L98.9742 77.809Z" fill="#9ACA3C"/>
<path fill-rule="evenodd" clip-rule="evenodd" d="M31.0414 80.9765L30.7012 80.905C30.9132 81.2551 31.135 81.5977 31.3618 81.9404C31.3692 81.4276 31.3224 81.721 31.0414 80.9765Z" fill="#9ACA3C"/>
<path fill-rule="evenodd" clip-rule="evenodd" d="M100.292 75.1729C100.275 75.6659 100.24 75.3109 100.334 75.7201L100.521 75.269L100.292 75.1729Z" fill="#9ACA3C"/>
<path fill-rule="evenodd" clip-rule="evenodd" d="M94.179 85.6368L94.5118 84.6459C93.8413 85.6369 94.1297 85.2893 94.179 85.6368Z" fill="#9ACA3C"/>
<path fill-rule="evenodd" clip-rule="evenodd" d="M27.3213 72.8359L27.3336 73.61C27.8217 73.9157 27.4889 73.5213 27.3213 72.8359Z" fill="#9ACA3C"/>
<path fill-rule="evenodd" clip-rule="evenodd" d="M37.8209 29.8892L37.4609 30.2219C37.8578 30.0075 37.5916 30.2688 37.8209 29.8892Z" fill="#9ACA3C"/>
<path fill-rule="evenodd" clip-rule="evenodd" d="M38.5717 29.2422L38.0244 29.7254L38.6333 29.6859C38.7935 29.1387 38.7048 29.5577 38.5717 29.2422Z" fill="#9ACA3C"/>
<path fill-rule="evenodd" clip-rule="evenodd" d="M101.329 71.6763L101.257 71.9055L101.455 72.4848L101.684 71.7921L101.329 71.6763Z" fill="#9ACA3C"/>
<path fill-rule="evenodd" clip-rule="evenodd" d="M26.7578 71.7188L26.8515 71.179C26.7282 71.5783 26.7849 71.2184 26.7578 71.7188Z" fill="#9ACA3C"/>
<path fill-rule="evenodd" clip-rule="evenodd" d="M25.5116 64.0547C25.1985 63.2264 25.5535 63.7539 25.0679 63.3694L25.1122 63.8526L25.5116 64.0547Z" fill="#9ACA3C"/>
<path fill-rule="evenodd" clip-rule="evenodd" d="M25.6849 65.0163L25.4729 64.3113L25.3496 64.3211L25.4408 65.0484L25.6849 65.0163Z" fill="#9ACA3C"/>
<path fill-rule="evenodd" clip-rule="evenodd" d="M25.3267 61.3957L25.4253 60.6636L25.1739 60.4245L25.1665 59.9388C25.127 60.3456 25.0925 60.7548 25.0679 61.164L25.3267 61.3957Z" fill="#9ACA3C"/>
<path fill-rule="evenodd" clip-rule="evenodd" d="M26.8984 47.4644L27.0636 47.77C27.0316 47.3017 26.9749 47.5925 26.8984 47.4644Z" fill="#9ACA3C"/>
<path fill-rule="evenodd" clip-rule="evenodd" d="M33.8534 34.8383C34.0014 34.3724 33.9348 34.72 33.9619 34.3033L33.6587 34.6805L33.8534 34.8383Z" fill="#9ACA3C"/>
<path fill-rule="evenodd" clip-rule="evenodd" d="M101.991 68.8833L102.099 68.4174C101.895 68.8069 101.974 68.4469 101.991 68.8833Z" fill="#9ACA3C"/>
<path fill-rule="evenodd" clip-rule="evenodd" d="M37.0995 31.6083L37.2671 31.0906L36.7568 31.6009L37.0995 31.6083Z" fill="#9ACA3C"/>
<path fill-rule="evenodd" clip-rule="evenodd" d="M34.0811 34.9216L34.1254 35.2643C34.2635 34.8255 34.1082 35.072 34.0811 34.9216Z" fill="#9ACA3C"/>
<path fill-rule="evenodd" clip-rule="evenodd" d="M77.5173 96.2073L76.8936 96.5696L76.9355 96.688L77.6011 96.4464L77.5173 96.2073Z" fill="#9ACA3C"/>
<path fill-rule="evenodd" clip-rule="evenodd" d="M73.2319 97.6496L73.2615 97.7778L74.1761 97.5363L73.2319 97.6496Z" fill="#9ACA3C"/>
<path fill-rule="evenodd" clip-rule="evenodd" d="M91.6362 86.9195C91.9394 86.6631 92.2377 86.4018 92.5384 86.138L92.5113 85.788C92.1982 86.1429 91.8753 86.4881 91.54 86.8307L91.6362 86.9195Z" fill="#9ACA3C"/>
<path fill-rule="evenodd" clip-rule="evenodd" d="M89.146 89.112L89.3062 89.3019L90.0187 88.6683C89.5059 88.7891 89.8708 88.624 89.146 89.112Z" fill="#9ACA3C"/>
<path fill-rule="evenodd" clip-rule="evenodd" d="M87.7983 90.5167C87.2486 90.6055 87.1771 90.7115 86.3291 91.313C86.8197 91.059 87.3102 90.7977 87.7983 90.5167Z" fill="#9ACA3C"/>
<path fill-rule="evenodd" clip-rule="evenodd" d="M82.4028 93.8307C82.0922 94.2054 82.282 93.9096 82.1045 94.2818L82.5211 94.0575L82.4028 93.8307Z" fill="#9ACA3C"/>
<path fill-rule="evenodd" clip-rule="evenodd" d="M80.735 94.6976C80.4096 95.0551 80.6118 94.7691 80.4146 95.1315L80.8435 94.9269L80.735 94.6976Z" fill="#9ACA3C"/>
<path fill-rule="evenodd" clip-rule="evenodd" d="M79.4822 95.2919C79.142 95.6345 79.354 95.3584 79.147 95.711L79.5808 95.5236L79.4822 95.2919Z" fill="#9ACA3C"/>
<path fill-rule="evenodd" clip-rule="evenodd" d="M97.204 78.7441C97.0141 79.0843 96.8145 79.422 96.6099 79.7598L96.8243 79.8904L97.0659 79.4837L97.204 78.7441Z" fill="#9ACA3C"/>
<path fill-rule="evenodd" clip-rule="evenodd" d="M102.352 60.9516L102.103 60.9467C102.258 61.4027 102.107 61.0872 102.334 61.4274L102.352 60.9516Z" fill="#9ACA3C"/>
<path fill-rule="evenodd" clip-rule="evenodd" d="M77.2411 95.6152L76.8936 96.0146L77.5468 95.7681L77.2411 95.6152Z" fill="#9ACA3C"/>
<path fill-rule="evenodd" clip-rule="evenodd" d="M74.6401 96.6173L74.6771 96.7356L75.567 96.4669L74.6401 96.6173Z" fill="#9ACA3C"/>
<path fill-rule="evenodd" clip-rule="evenodd" d="M101.735 53.6372L101.664 53.1737C101.304 52.2789 100.919 51.4062 100.5 50.5582C100.207 51.495 100.727 53.6076 100.907 54.9289L101.183 55.1237C101.097 54.357 100.981 53.6002 100.85 52.8434C101.237 53.2206 101.257 53.4079 101.735 53.6372Z" fill="#9ACA3C"/>
<path fill-rule="evenodd" clip-rule="evenodd" d="M101.788 62.1082L101.667 62.0983L101.539 62.0909C101.569 63.1633 101.529 63.257 101.899 63.7771L101.966 63.0696C101.914 62.7491 101.852 62.4287 101.788 62.1082Z" fill="#9ACA3C"/>
<path fill-rule="evenodd" clip-rule="evenodd" d="M101.554 59.0521C101.559 59.5994 101.559 60.1417 101.539 60.689H101.665C101.717 60.3019 101.763 59.9125 101.803 59.5205L101.554 59.0521Z" fill="#9ACA3C"/>
<path fill-rule="evenodd" clip-rule="evenodd" d="M101.672 61.4L101.398 61.8536C101.649 61.5405 101.474 61.8413 101.672 61.4Z" fill="#9ACA3C"/>
<path fill-rule="evenodd" clip-rule="evenodd" d="M100.835 66.9184L100.99 67.4237L101.126 66.7384L100.835 66.9184Z" fill="#9ACA3C"/>
<path fill-rule="evenodd" clip-rule="evenodd" d="M101.117 56.5193L101.287 57.1972C101.255 57.9885 101.22 57.7568 101.462 58.3558L101.588 58.3533L101.573 57.885C101.427 57.4265 101.277 56.9704 101.117 56.5193Z" fill="#9ACA3C"/>
<path fill-rule="evenodd" clip-rule="evenodd" d="M101.168 66.029L101.24 65.5656C101.065 65.96 101.111 65.6075 101.168 66.029Z" fill="#9ACA3C"/>
<path fill-rule="evenodd" clip-rule="evenodd" d="M100.254 49.6604L100.131 50.1707C100.279 49.8009 100.2 50.1362 100.254 49.6604Z" fill="#9ACA3C"/>
<path fill-rule="evenodd" clip-rule="evenodd" d="M101.141 64.155L100.835 64.579L101.109 65.3186L101.175 64.8576L101.141 64.155Z" fill="#9ACA3C"/>
<path fill-rule="evenodd" clip-rule="evenodd" d="M101.228 55.8163L101.179 55.3553C101.112 55.7818 101.063 55.4293 101.228 55.8163Z" fill="#9ACA3C"/>
<path fill-rule="evenodd" clip-rule="evenodd" d="M92.9288 35.9809L92.5935 35.3646L91.9624 35.0096L92.453 35.7862L92.596 35.9661L92.9288 35.9809Z" fill="#9ACA3C"/>
<path fill-rule="evenodd" clip-rule="evenodd" d="M87.4972 31.4823L87.1743 31.8669C88.4956 32.5891 89.7159 33.7502 90.872 35.1603C92.0282 36.5728 93.1153 38.2319 94.232 40.0141C92.4423 36.8785 90.1621 33.9844 87.4972 31.4823Z" fill="#9ACA3C"/>
<path fill-rule="evenodd" clip-rule="evenodd" d="M94.9833 41.5953L95.4172 41.8541C95.1657 41.4005 94.9044 40.9543 94.6382 40.5131C94.759 40.873 94.8773 41.2329 94.9833 41.5953Z" fill="#9ACA3C"/>
<path fill-rule="evenodd" clip-rule="evenodd" d="M86.4702 31.7384L87.0545 32.0614L87.1309 31.9652L86.6305 31.5461L86.4702 31.7384Z" fill="#9ACA3C"/>
<path fill-rule="evenodd" clip-rule="evenodd" d="M88.1284 33.1768C87.9312 32.7133 87.9485 32.7306 87.3149 32.1094C87.485 32.6024 87.4752 32.5211 88.1284 33.1768Z" fill="#9ACA3C"/>
<path fill-rule="evenodd" clip-rule="evenodd" d="M90.5238 36.0107L90.7111 35.8455L90.1318 35.1923C90.228 35.6828 90.0875 35.3426 90.5238 36.0107Z" fill="#9ACA3C"/>
<path fill-rule="evenodd" clip-rule="evenodd" d="M92.0717 37.7852C91.7586 37.3834 91.4455 36.984 91.1177 36.5896C91.4135 37.3365 91.485 37.4351 92.0717 37.7852Z" fill="#9ACA3C"/>
<path fill-rule="evenodd" clip-rule="evenodd" d="M93.733 40.6073L93.8365 40.5407L93.3706 39.811L93.733 40.6073Z" fill="#9ACA3C"/>
</svg>
